<?xml version="1.0" encoding="UTF-8" standalone="no"?>
<!DOCTYPE svg PUBLIC "-//W3C//DTD SVG 1.1//EN"
 "http://www.w3.org/Graphics/SVG/1.1/DTD/svg11.dtd">
<!-- Generated by graphviz version 2.47.1 (20210417.1919)
 -->
<!-- Title: legend Pages: 1 -->
<svg width="429pt" height="44pt"
 viewBox="0.00 0.00 428.95 44.00" xmlns="http://www.w3.org/2000/svg" xmlns:xlink="http://www.w3.org/1999/xlink">
<g id="graph0" class="graph" transform="scale(1 1) rotate(0) translate(4 40)">
<title>legend</title>
<polygon fill="white" stroke="transparent" points="-4,4 -4,-40 424.95,-40 424.95,4 -4,4"/>
<!-- cluster -->
<g id="node1" class="node">
<title>cluster</title>
<ellipse fill="none" stroke="black" cx="34.45" cy="-18" rx="34.39" ry="18"/>
<text text-anchor="middle" x="34.45" y="-14.3" font-family="Times New Roman,serif" font-size="14.00">cluster</text>
</g>
<!-- key -->
<g id="node2" class="node">
<title>key</title>
<ellipse fill="none" stroke="black" cx="113.45" cy="-18" rx="27" ry="18"/>
<text text-anchor="middle" x="113.45" y="-14.3" font-family="Times New Roman,serif" font-size="14.00">key</text>
</g>
<!-- technology -->
<g id="node3" class="node">
<title>technology</title>
<path fill="#1f0477" stroke="black" d="M236.45,-32.73C236.45,-34.53 218.97,-36 197.45,-36 175.93,-36 158.45,-34.53 158.45,-32.73 158.45,-32.73 158.45,-3.27 158.45,-3.27 158.45,-1.47 175.93,0 197.45,0 218.97,0 236.45,-1.47 236.45,-3.27 236.45,-3.27 236.45,-32.73 236.45,-32.73"/>
<path fill="none" stroke="black" d="M236.45,-32.73C236.45,-30.92 218.97,-29.45 197.45,-29.45 175.93,-29.45 158.45,-30.92 158.45,-32.73"/>
<text text-anchor="middle" x="197.45" y="-14.3" font-family="Times New Roman,serif" font-size="14.00" fill="white">technology</text>
</g>
<!-- ourcode -->
<g id="node4" class="node">
<title>ourcode</title>
<ellipse fill="#e5e6ce" stroke="black" cx="298.45" cy="-18" rx="43.59" ry="18"/>
<text text-anchor="middle" x="298.45" y="-14.3" font-family="Times New Roman,serif" font-size="14.00">our code</text>
</g>
<!-- process -->
<g id="node5" class="node">
<title>process</title>
<polygon fill="none" stroke="black" points="420.95,-36 359.95,-36 359.95,-32 355.95,-32 355.95,-28 359.95,-28 359.95,-8 355.95,-8 355.95,-4 359.95,-4 359.95,0 420.95,0 420.95,-36"/>
<polyline fill="none" stroke="black" points="359.95,-32 363.95,-32 363.95,-28 359.95,-28 "/>
<polyline fill="none" stroke="black" points="359.95,-8 363.95,-8 363.95,-4 359.95,-4 "/>
<text text-anchor="middle" x="390.45" y="-14.3" font-family="Times New Roman,serif" font-size="14.00">process</text>
</g>
</g>
</svg>
