<?xml version="1.0" encoding="UTF-8" standalone="no"?>
<!DOCTYPE svg PUBLIC "-//W3C//DTD SVG 1.1//EN"
 "http://www.w3.org/Graphics/SVG/1.1/DTD/svg11.dtd">
<!-- Generated by graphviz version 2.47.1 (20210417.1919)
 -->
<!-- Title: legend Pages: 1 -->
<svg width="235pt" height="116pt"
 viewBox="0.00 0.00 235.32 116.00" xmlns="http://www.w3.org/2000/svg" xmlns:xlink="http://www.w3.org/1999/xlink">
<g id="graph0" class="graph" transform="scale(1 1) rotate(0) translate(4 112)">
<title>legend</title>
<polygon fill="white" stroke="transparent" points="-4,4 -4,-112 231.32,-112 231.32,4 -4,4"/>
<!-- technology -->
<g id="node1" class="node">
<title>technology</title>
<polygon fill="#8b9fe0" stroke="black" points="209.46,-10.54 209.46,-25.46 148.16,-36 61.48,-36 0.18,-25.46 0.18,-10.54 61.48,0 148.16,0 209.46,-10.54"/>
<text text-anchor="middle" x="104.82" y="-14.3" font-family="Times New Roman,serif" font-size="14.00">external&lt;br&gt;technology</text>
</g>
<!-- ourcode -->
<g id="node2" class="node">
<title>ourcode</title>
<ellipse fill="#e5e6ce" stroke="black" cx="104.82" cy="-90" rx="43.59" ry="18"/>
<text text-anchor="middle" x="104.82" y="-86.3" font-family="Times New Roman,serif" font-size="14.00">our code</text>
</g>
<!-- ourcode&#45;&gt;technology -->
<g id="edge1" class="edge">
<title>ourcode&#45;&gt;technology</title>
<path fill="none" stroke="black" d="M104.82,-71.7C104.82,-63.98 104.82,-54.71 104.82,-46.11"/>
<polygon fill="black" stroke="black" points="108.32,-46.1 104.82,-36.1 101.32,-46.1 108.32,-46.1"/>
</g>
<!-- process -->
<g id="node3" class="node">
<title>process</title>
<polygon fill="none" stroke="black" points="227.32,-108 166.32,-108 166.32,-72 227.32,-72 227.32,-108"/>
<text text-anchor="middle" x="196.82" y="-86.3" font-family="Times New Roman,serif" font-size="14.00">process</text>
</g>
</g>
</svg>
