<?xml version="1.0" encoding="UTF-8" standalone="no"?>
<!DOCTYPE svg PUBLIC "-//W3C//DTD SVG 1.1//EN"
 "http://www.w3.org/Graphics/SVG/1.1/DTD/svg11.dtd">
<!-- Generated by graphviz version 2.47.1 (20210417.1919)
 -->
<!-- Title: legend Pages: 1 -->
<svg width="246pt" height="116pt"
 viewBox="0.00 0.00 245.87 116.00" xmlns="http://www.w3.org/2000/svg" xmlns:xlink="http://www.w3.org/1999/xlink">
<g id="graph0" class="graph" transform="scale(1 1) rotate(0) translate(4 112)">
<title>legend</title>
<polygon fill="white" stroke="transparent" points="-4,4 -4,-112 241.87,-112 241.87,4 -4,4"/>
<!-- technology -->
<g id="node1" class="node">
<title>technology</title>
<polygon fill="#8b9fe0" stroke="black" points="230.62,-10.54 230.62,-25.46 163.11,-36 67.64,-36 0.13,-25.46 0.13,-10.54 67.64,0 163.11,0 230.62,-10.54"/>
<text text-anchor="middle" x="115.37" y="-14.3" font-family="Times New Roman,serif" font-size="14.00">external&lt;BR /&gt;technology</text>
</g>
<!-- ourcode -->
<g id="node2" class="node">
<title>ourcode</title>
<ellipse fill="#e5e6ce" stroke="black" cx="115.37" cy="-90" rx="43.59" ry="18"/>
<text text-anchor="middle" x="115.37" y="-86.3" font-family="Times New Roman,serif" font-size="14.00">our code</text>
</g>
<!-- ourcode&#45;&gt;technology -->
<g id="edge1" class="edge">
<title>ourcode&#45;&gt;technology</title>
<path fill="none" stroke="black" d="M115.37,-71.7C115.37,-63.98 115.37,-54.71 115.37,-46.11"/>
<polygon fill="black" stroke="black" points="118.87,-46.1 115.37,-36.1 111.87,-46.1 118.87,-46.1"/>
</g>
<!-- process -->
<g id="node3" class="node">
<title>process</title>
<polygon fill="none" stroke="black" points="237.87,-108 176.87,-108 176.87,-72 237.87,-72 237.87,-108"/>
<text text-anchor="middle" x="207.37" y="-86.3" font-family="Times New Roman,serif" font-size="14.00">process</text>
</g>
</g>
</svg>
