<?xml version="1.0" encoding="UTF-8" standalone="no"?>
<!DOCTYPE svg PUBLIC "-//W3C//DTD SVG 1.1//EN"
 "http://www.w3.org/Graphics/SVG/1.1/DTD/svg11.dtd">
<!-- Generated by graphviz version 2.47.1 (20210417.1919)
 -->
<!-- Title: legend Pages: 1 -->
<svg width="240pt" height="116pt"
 viewBox="0.00 0.00 240.24 116.00" xmlns="http://www.w3.org/2000/svg" xmlns:xlink="http://www.w3.org/1999/xlink">
<g id="graph0" class="graph" transform="scale(1 1) rotate(0) translate(4 112)">
<title>legend</title>
<polygon fill="white" stroke="transparent" points="-4,4 -4,-112 236.24,-112 236.24,4 -4,4"/>
<!-- technology -->
<g id="node1" class="node">
<title>technology</title>
<polygon fill="#8b9fe0" stroke="black" points="219.74,-10.54 219.74,-25.46 155.3,-36 64.19,-36 -0.25,-25.46 -0.25,-10.54 64.19,0 155.3,0 219.74,-10.54"/>
<text text-anchor="middle" x="109.74" y="-14.3" font-family="Times New Roman,serif" font-size="14.00">external&lt;BR&gt;technology</text>
</g>
<!-- ourcode -->
<g id="node2" class="node">
<title>ourcode</title>
<ellipse fill="#e5e6ce" stroke="black" cx="109.74" cy="-90" rx="43.59" ry="18"/>
<text text-anchor="middle" x="109.74" y="-86.3" font-family="Times New Roman,serif" font-size="14.00">our code</text>
</g>
<!-- ourcode&#45;&gt;technology -->
<g id="edge1" class="edge">
<title>ourcode&#45;&gt;technology</title>
<path fill="none" stroke="black" d="M109.74,-71.7C109.74,-63.98 109.74,-54.71 109.74,-46.11"/>
<polygon fill="black" stroke="black" points="113.24,-46.1 109.74,-36.1 106.24,-46.1 113.24,-46.1"/>
</g>
<!-- process -->
<g id="node3" class="node">
<title>process</title>
<polygon fill="none" stroke="black" points="232.24,-108 171.24,-108 171.24,-72 232.24,-72 232.24,-108"/>
<text text-anchor="middle" x="201.74" y="-86.3" font-family="Times New Roman,serif" font-size="14.00">process</text>
</g>
</g>
</svg>
