<?xml version="1.0" encoding="UTF-8" standalone="no"?>
<!DOCTYPE svg PUBLIC "-//W3C//DTD SVG 1.1//EN"
 "http://www.w3.org/Graphics/SVG/1.1/DTD/svg11.dtd">
<!-- Generated by graphviz version 2.47.1 (20210417.1919)
 -->
<!-- Title: foo Pages: 1 -->
<svg width="867pt" height="392pt"
 viewBox="0.00 0.00 867.00 392.00" xmlns="http://www.w3.org/2000/svg" xmlns:xlink="http://www.w3.org/1999/xlink">
<g id="graph0" class="graph" transform="scale(1 1) rotate(0) translate(4 388)">
<title>foo</title>
<polygon fill="white" stroke="transparent" points="-4,4 -4,-388 863,-388 863,4 -4,4"/>
<!-- reddit -->
<g id="node1" class="node">
<title>reddit</title>
<ellipse fill="none" stroke="black" cx="197" cy="-279" rx="53.89" ry="18"/>
<text text-anchor="middle" x="197" y="-275.3" font-family="Times New Roman,serif" font-size="14.00">Reddit Data</text>
</g>
<!-- redditAPI -->
<g id="node2" class="node">
<title>redditAPI</title>
<g id="a_node2"><a xlink:href="https://www.reddit.com/dev/api" xlink:title="Reddit API" target="_blank">
<ellipse fill="none" stroke="black" cx="52" cy="-192" rx="51.99" ry="18"/>
<text text-anchor="middle" x="52" y="-188.3" font-family="Times New Roman,serif" font-size="14.00">Reddit API</text>
</a>
</g>
</g>
<!-- reddit&#45;&gt;redditAPI -->
<g id="edge1" class="edge">
<title>reddit&#45;&gt;redditAPI</title>
<path fill="none" stroke="black" d="M171.41,-263C147.7,-249.1 112.26,-228.33 86.14,-213.02"/>
<polygon fill="black" stroke="black" points="87.73,-209.89 77.33,-207.85 84.19,-215.93 87.73,-209.89"/>
</g>
<!-- redditAPIRules -->
<g id="node3" class="node">
<title>redditAPIRules</title>
<g id="a_node3"><a xlink:href="https://github.com/reddit-archive/reddit/wiki/API" xlink:title="Reddit API Rules" target="_blank">
<ellipse fill="none" stroke="black" cx="197" cy="-192" rx="75.29" ry="18"/>
<text text-anchor="middle" x="197" y="-188.3" font-family="Times New Roman,serif" font-size="14.00">Reddit API Rules</text>
</a>
</g>
</g>
<!-- reddit&#45;&gt;redditAPIRules -->
<g id="edge2" class="edge">
<title>reddit&#45;&gt;redditAPIRules</title>
<path fill="none" stroke="black" d="M197,-260.8C197,-249.16 197,-233.55 197,-220.24"/>
<polygon fill="black" stroke="black" points="200.5,-220.18 197,-210.18 193.5,-220.18 200.5,-220.18"/>
</g>
<!-- documentation -->
<g id="node4" class="node">
<title>documentation</title>
<ellipse fill="none" stroke="black" cx="595" cy="-366" rx="64.19" ry="18"/>
<text text-anchor="middle" x="595" y="-362.3" font-family="Times New Roman,serif" font-size="14.00">documentation</text>
</g>
<!-- sphinx -->
<g id="node5" class="node">
<title>sphinx</title>
<g id="a_node5"><a xlink:href="https://www.sphinx-doc.org" xlink:title="sphinx" target="_blank">
<ellipse fill="none" stroke="black" cx="595" cy="-279" rx="34.39" ry="18"/>
<text text-anchor="middle" x="595" y="-275.3" font-family="Times New Roman,serif" font-size="14.00">sphinx</text>
</a>
</g>
</g>
<!-- documentation&#45;&gt;sphinx -->
<g id="edge3" class="edge">
<title>documentation&#45;&gt;sphinx</title>
<path fill="none" stroke="black" d="M595,-347.8C595,-336.16 595,-320.55 595,-307.24"/>
<polygon fill="black" stroke="black" points="598.5,-307.18 595,-297.18 591.5,-307.18 598.5,-307.18"/>
<text text-anchor="middle" x="624" y="-318.8" font-family="Times New Roman,serif" font-size="14.00">made with</text>
</g>
<!-- django -->
<g id="node6" class="node">
<title>django</title>
<g id="a_node6"><a xlink:href="https://docs.djangoproject.com/en/3.2/" xlink:title="Django" target="_blank">
<ellipse fill="none" stroke="black" cx="506" cy="-279" rx="36.29" ry="18"/>
<text text-anchor="middle" x="506" y="-275.3" font-family="Times New Roman,serif" font-size="14.00">Django</text>
</a>
</g>
</g>
<!-- view -->
<g id="node13" class="node">
<title>view</title>
<g id="a_node13"><a xlink:href="https://docs.djangoproject.com/en/3.2/#the-view-layer" xlink:title="View" target="_blank">
<ellipse fill="none" stroke="black" cx="506" cy="-192" rx="29.5" ry="18"/>
<text text-anchor="middle" x="506" y="-188.3" font-family="Times New Roman,serif" font-size="14.00">View</text>
</a>
</g>
</g>
<!-- django&#45;&gt;view -->
<g id="edge9" class="edge">
<title>django&#45;&gt;view</title>
<path fill="none" stroke="black" d="M506,-260.8C506,-249.16 506,-233.55 506,-220.24"/>
<polygon fill="black" stroke="black" points="509.5,-220.18 506,-210.18 502.5,-220.18 509.5,-220.18"/>
<text text-anchor="middle" x="566" y="-231.8" font-family="Times New Roman,serif" font-size="14.00">processes http GETs</text>
</g>
<!-- sqlite -->
<g id="node7" class="node">
<title>sqlite</title>
<g id="a_node7"><a xlink:href="https://www.sqlite.org/index.html" xlink:title="SQLite" target="_blank">
<ellipse fill="none" stroke="black" cx="327" cy="-192" rx="36.29" ry="18"/>
<text text-anchor="middle" x="327" y="-188.3" font-family="Times New Roman,serif" font-size="14.00">SQLite</text>
</a>
</g>
</g>
<!-- production -->
<g id="node8" class="node">
<title>production</title>
<ellipse fill="none" stroke="black" cx="760" cy="-366" rx="51.19" ry="18"/>
<text text-anchor="middle" x="760" y="-362.3" font-family="Times New Roman,serif" font-size="14.00">Production</text>
</g>
<!-- apache -->
<g id="node9" class="node">
<title>apache</title>
<g id="a_node9"><a xlink:href="https://httpd.apache.org/" xlink:title="Apache" target="_blank">
<ellipse fill="none" stroke="black" cx="686" cy="-279" rx="38.19" ry="18"/>
<text text-anchor="middle" x="686" y="-275.3" font-family="Times New Roman,serif" font-size="14.00">Apache</text>
</a>
</g>
</g>
<!-- production&#45;&gt;apache -->
<g id="edge4" class="edge">
<title>production&#45;&gt;apache</title>
<path fill="none" stroke="black" d="M740.52,-349.09C734.01,-343.37 726.91,-336.67 721,-330 714.18,-322.31 707.51,-313.28 701.85,-305.02"/>
<polygon fill="black" stroke="black" points="704.61,-302.84 696.15,-296.46 698.78,-306.72 704.61,-302.84"/>
<text text-anchor="middle" x="745" y="-318.8" font-family="Times New Roman,serif" font-size="14.00">backend</text>
</g>
<!-- modwsgi -->
<g id="node10" class="node">
<title>modwsgi</title>
<g id="a_node10"><a xlink:href="https://modwsgi.readthedocs.io/en/develop/" xlink:title="mod_wsgi" target="_blank">
<ellipse fill="none" stroke="black" cx="791" cy="-279" rx="48.99" ry="18"/>
<text text-anchor="middle" x="791" y="-275.3" font-family="Times New Roman,serif" font-size="14.00">mod_wsgi</text>
</a>
</g>
</g>
<!-- production&#45;&gt;modwsgi -->
<g id="edge5" class="edge">
<title>production&#45;&gt;modwsgi</title>
<path fill="none" stroke="black" d="M766.27,-347.8C770.58,-335.97 776.4,-320.03 781.3,-306.58"/>
<polygon fill="black" stroke="black" points="784.7,-307.48 784.84,-296.89 778.12,-305.08 784.7,-307.48"/>
<text text-anchor="middle" x="818" y="-318.8" font-family="Times New Roman,serif" font-size="14.00">python/apache</text>
</g>
<!-- database -->
<g id="node11" class="node">
<title>database</title>
<ellipse fill="none" stroke="black" cx="327" cy="-279" rx="44.39" ry="18"/>
<text text-anchor="middle" x="327" y="-275.3" font-family="Times New Roman,serif" font-size="14.00">Database</text>
</g>
<!-- database&#45;&gt;sqlite -->
<g id="edge7" class="edge">
<title>database&#45;&gt;sqlite</title>
<path fill="none" stroke="black" d="M327,-260.8C327,-249.16 327,-233.55 327,-220.24"/>
<polygon fill="black" stroke="black" points="330.5,-220.18 327,-210.18 323.5,-220.18 330.5,-220.18"/>
</g>
<!-- models -->
<g id="node12" class="node">
<title>models</title>
<g id="a_node12"><a xlink:href="https://docs.djangoproject.com/en/3.2/topics/db/models/" xlink:title="Models" target="_blank">
<ellipse fill="none" stroke="black" cx="420" cy="-192" rx="38.19" ry="18"/>
<text text-anchor="middle" x="420" y="-188.3" font-family="Times New Roman,serif" font-size="14.00">Models</text>
</a>
</g>
</g>
<!-- database&#45;&gt;models -->
<g id="edge6" class="edge">
<title>database&#45;&gt;models</title>
<path fill="none" stroke="black" d="M344.49,-262.01C358.96,-248.79 379.67,-229.86 395.74,-215.17"/>
<polygon fill="black" stroke="black" points="398.19,-217.67 403.21,-208.34 393.46,-212.51 398.19,-217.67"/>
<text text-anchor="middle" x="407.5" y="-231.8" font-family="Times New Roman,serif" font-size="14.00">populates</text>
</g>
<!-- template -->
<g id="node14" class="node">
<title>template</title>
<g id="a_node14"><a xlink:href="https://docs.djangoproject.com/en/3.2/topics/templates/" xlink:title="Template" target="_blank">
<ellipse fill="none" stroke="black" cx="463" cy="-105" rx="44.39" ry="18"/>
<text text-anchor="middle" x="463" y="-101.3" font-family="Times New Roman,serif" font-size="14.00">Template</text>
</a>
</g>
</g>
<!-- models&#45;&gt;template -->
<g id="edge12" class="edge">
<title>models&#45;&gt;template</title>
<path fill="none" stroke="black" d="M417.84,-173.96C417.32,-163.89 418.02,-151.15 423,-141 425.43,-136.03 428.93,-131.47 432.84,-127.39"/>
<polygon fill="black" stroke="black" points="435.23,-129.95 440.22,-120.61 430.49,-124.8 435.23,-129.95"/>
<text text-anchor="middle" x="450.5" y="-144.8" font-family="Times New Roman,serif" font-size="14.00">populates</text>
</g>
<!-- view&#45;&gt;template -->
<g id="edge10" class="edge">
<title>view&#45;&gt;template</title>
<path fill="none" stroke="black" d="M498.2,-174.23C493.6,-164.47 487.6,-151.97 482,-141 480.45,-137.98 478.81,-134.84 477.15,-131.73"/>
<polygon fill="black" stroke="black" points="480.08,-129.78 472.25,-122.64 473.92,-133.11 480.08,-129.78"/>
<text text-anchor="middle" x="507" y="-144.8" font-family="Times New Roman,serif" font-size="14.00">serves</text>
</g>
<!-- html -->
<g id="node15" class="node">
<title>html</title>
<ellipse fill="none" stroke="black" cx="463" cy="-18" rx="55.79" ry="18"/>
<text text-anchor="middle" x="463" y="-14.3" font-family="Times New Roman,serif" font-size="14.00">HTML/CSS</text>
</g>
<!-- template&#45;&gt;html -->
<g id="edge8" class="edge">
<title>template&#45;&gt;html</title>
<path fill="none" stroke="black" d="M461.82,-86.92C461.49,-81.22 461.16,-74.84 461,-69 460.79,-61.65 460.93,-53.69 461.22,-46.33"/>
<polygon fill="black" stroke="black" points="464.73,-46.28 461.73,-36.12 457.74,-45.94 464.73,-46.28"/>
</g>
<!-- template&#45;&gt;html -->
<g id="edge11" class="edge">
<title>template&#45;&gt;html</title>
<path fill="none" stroke="black" d="M463,-86.8C463,-75.16 463,-59.55 463,-46.24"/>
<polygon fill="black" stroke="black" points="466.5,-46.18 463,-36.18 459.5,-46.18 466.5,-46.18"/>
<text text-anchor="middle" x="489" y="-57.8" font-family="Times New Roman,serif" font-size="14.00">generates</text>
</g>
<!-- populator -->
<g id="node16" class="node">
<title>populator</title>
<g id="a_node16"><a xlink:href="https://www.digitalocean.com/community/tutorials/how-to-use-web-apis-in-python-3" xlink:title="Scheduled API calls" target="_blank">
<ellipse fill="none" stroke="black" cx="246" cy="-366" rx="84.49" ry="18"/>
<text text-anchor="middle" x="246" y="-362.3" font-family="Times New Roman,serif" font-size="14.00">Scheduled API calls</text>
</a>
</g>
</g>
<!-- populator&#45;&gt;reddit -->
<g id="edge13" class="edge">
<title>populator&#45;&gt;reddit</title>
<path fill="none" stroke="black" d="M236.08,-347.8C229.13,-335.74 219.71,-319.4 211.86,-305.79"/>
<polygon fill="black" stroke="black" points="214.76,-303.8 206.73,-296.89 208.69,-307.3 214.76,-303.8"/>
<text text-anchor="middle" x="245" y="-318.8" font-family="Times New Roman,serif" font-size="14.00">queries</text>
</g>
<!-- populator&#45;&gt;database -->
<g id="edge14" class="edge">
<title>populator&#45;&gt;database</title>
<path fill="none" stroke="black" d="M262,-348.21C274.14,-335.47 290.97,-317.8 304.47,-303.64"/>
<polygon fill="black" stroke="black" points="307.21,-305.84 311.58,-296.18 302.14,-301.01 307.21,-305.84"/>
<text text-anchor="middle" x="302" y="-318.8" font-family="Times New Roman,serif" font-size="14.00">fills</text>
</g>
</g>
</svg>
