<?xml version="1.0" encoding="UTF-8" standalone="no"?>
<!DOCTYPE svg PUBLIC "-//W3C//DTD SVG 1.1//EN"
 "http://www.w3.org/Graphics/SVG/1.1/DTD/svg11.dtd">
<!-- Generated by graphviz version 2.47.1 (20210417.1919)
 -->
<!-- Title: foo Pages: 1 -->
<svg width="607pt" height="500pt"
 viewBox="0.00 0.00 607.00 500.00" xmlns="http://www.w3.org/2000/svg" xmlns:xlink="http://www.w3.org/1999/xlink">
<g id="graph0" class="graph" transform="scale(1 1) rotate(0) translate(4 496)">
<title>foo</title>
<polygon fill="white" stroke="transparent" points="-4,4 -4,-496 603,-496 603,4 -4,4"/>
<!-- reddit -->
<g id="node1" class="node">
<title>reddit</title>
<g id="a_node1"><a xlink:href="https://www.reddit.com/dev/api" xlink:title="Reddit API" target="_blank">
<polygon fill="none" stroke="black" points="98,-405 18,-405 18,-369 98,-369 98,-405"/>
<text text-anchor="middle" x="58" y="-383.3" font-family="Times New Roman,serif" font-size="14.00">Reddit API</text>
</a>
</g>
</g>
<!-- redditAPIRules -->
<g id="node2" class="node">
<title>redditAPIRules</title>
<g id="a_node2"><a xlink:href="https://github.com/reddit-archive/reddit/wiki/API" xlink:title="Reddit API Rules" target="_blank">
<polygon fill="none" stroke="black" points="116,-318 0,-318 0,-282 116,-282 116,-318"/>
<text text-anchor="middle" x="58" y="-296.3" font-family="Times New Roman,serif" font-size="14.00">Reddit API Rules</text>
</a>
</g>
</g>
<!-- reddit&#45;&gt;redditAPIRules -->
<g id="edge1" class="edge">
<title>reddit&#45;&gt;redditAPIRules</title>
<path fill="none" stroke="black" d="M58,-368.8C58,-357.16 58,-341.55 58,-328.24"/>
<polygon fill="black" stroke="black" points="61.5,-328.18 58,-318.18 54.5,-328.18 61.5,-328.18"/>
</g>
<!-- documentation -->
<g id="node3" class="node">
<title>documentation</title>
<polygon fill="none" stroke="black" points="403.5,-492 304.5,-492 304.5,-456 403.5,-456 403.5,-492"/>
<text text-anchor="middle" x="354" y="-470.3" font-family="Times New Roman,serif" font-size="14.00">documentation</text>
</g>
<!-- sphinx -->
<g id="node4" class="node">
<title>sphinx</title>
<g id="a_node4"><a xlink:href="https://www.sphinx-doc.org" xlink:title="sphinx" target="_blank">
<polygon fill="none" stroke="black" points="381,-405 327,-405 327,-369 381,-369 381,-405"/>
<text text-anchor="middle" x="354" y="-383.3" font-family="Times New Roman,serif" font-size="14.00">sphinx</text>
</a>
</g>
</g>
<!-- documentation&#45;&gt;sphinx -->
<g id="edge2" class="edge">
<title>documentation&#45;&gt;sphinx</title>
<path fill="none" stroke="black" d="M354,-455.8C354,-444.16 354,-428.55 354,-415.24"/>
<polygon fill="black" stroke="black" points="357.5,-415.18 354,-405.18 350.5,-415.18 357.5,-415.18"/>
<text text-anchor="middle" x="383" y="-426.8" font-family="Times New Roman,serif" font-size="14.00">made with</text>
</g>
<!-- django -->
<g id="node5" class="node">
<title>django</title>
<g id="a_node5"><a xlink:href="https://docs.djangoproject.com/en/3.2/" xlink:title="Django" target="_blank">
<polygon fill="none" stroke="black" points="309,-405 253,-405 253,-369 309,-369 309,-405"/>
<text text-anchor="middle" x="281" y="-383.3" font-family="Times New Roman,serif" font-size="14.00">Django</text>
</a>
</g>
</g>
<!-- database -->
<g id="node10" class="node">
<title>database</title>
<polygon fill="none" stroke="black" points="208,-318 140,-318 140,-282 208,-282 208,-318"/>
<text text-anchor="middle" x="174" y="-296.3" font-family="Times New Roman,serif" font-size="14.00">Database</text>
</g>
<!-- django&#45;&gt;database -->
<g id="edge10" class="edge">
<title>django&#45;&gt;database</title>
<path fill="none" stroke="black" d="M254.86,-369C246.74,-363.47 237.86,-357.16 230,-351 219.74,-342.96 208.96,-333.57 199.62,-325.11"/>
<polygon fill="black" stroke="black" points="201.89,-322.45 192.16,-318.28 197.17,-327.61 201.89,-322.45"/>
</g>
<!-- models -->
<g id="node11" class="node">
<title>models</title>
<g id="a_node11"><a xlink:href="https://docs.djangoproject.com/en/3.2/topics/db/models/" xlink:title="Models" target="_blank">
<polygon fill="none" stroke="black" points="246.5,-210 187.5,-210 187.5,-174 246.5,-174 246.5,-210"/>
<text text-anchor="middle" x="217" y="-188.3" font-family="Times New Roman,serif" font-size="14.00">Models</text>
</a>
</g>
</g>
<!-- django&#45;&gt;models -->
<g id="edge9" class="edge">
<title>django&#45;&gt;models</title>
<path fill="none" stroke="black" d="M275.73,-368.85C266.74,-339.76 247.67,-278.92 230,-228 229.04,-225.24 228.02,-222.38 226.99,-219.52"/>
<polygon fill="black" stroke="black" points="230.24,-218.21 223.5,-210.04 223.67,-220.63 230.24,-218.21"/>
</g>
<!-- view -->
<g id="node12" class="node">
<title>view</title>
<g id="a_node12"><a xlink:href="https://docs.djangoproject.com/en/3.2/#the-view-layer" xlink:title="View" target="_blank">
<polygon fill="none" stroke="black" points="313,-264 259,-264 259,-228 313,-228 313,-264"/>
<text text-anchor="middle" x="286" y="-242.3" font-family="Times New Roman,serif" font-size="14.00">View</text>
</a>
</g>
</g>
<!-- django&#45;&gt;view -->
<g id="edge8" class="edge">
<title>django&#45;&gt;view</title>
<path fill="none" stroke="black" d="M281.61,-368.96C282.46,-345.4 284,-302.64 285.01,-274.53"/>
<polygon fill="black" stroke="black" points="288.52,-274.3 285.38,-264.18 281.52,-274.05 288.52,-274.3"/>
</g>
<!-- template -->
<g id="node13" class="node">
<title>template</title>
<g id="a_node13"><a xlink:href="https://docs.djangoproject.com/en/3.2/topics/templates/" xlink:title="Template" target="_blank">
<polygon fill="none" stroke="black" points="320,-123 252,-123 252,-87 320,-87 320,-123"/>
<text text-anchor="middle" x="286" y="-101.3" font-family="Times New Roman,serif" font-size="14.00">Template</text>
</a>
</g>
</g>
<!-- django&#45;&gt;template -->
<g id="edge11" class="edge">
<title>django&#45;&gt;template</title>
<path fill="none" stroke="black" d="M290.17,-368.8C308.33,-332.51 345.47,-245.52 326,-174 321.86,-158.79 313.36,-143.52 305.26,-131.31"/>
<polygon fill="black" stroke="black" points="308.07,-129.22 299.49,-123 302.32,-133.22 308.07,-129.22"/>
</g>
<!-- sqlite -->
<g id="node6" class="node">
<title>sqlite</title>
<g id="a_node6"><a xlink:href="https://www.sqlite.org/index.html" xlink:title="SQLite" target="_blank">
<polygon fill="none" stroke="black" points="169,-210 113,-210 113,-174 169,-174 169,-210"/>
<text text-anchor="middle" x="141" y="-188.3" font-family="Times New Roman,serif" font-size="14.00">SQLite</text>
</a>
</g>
</g>
<!-- production -->
<g id="node7" class="node">
<title>production</title>
<polygon fill="none" stroke="black" points="536.5,-492 457.5,-492 457.5,-456 536.5,-456 536.5,-492"/>
<text text-anchor="middle" x="497" y="-470.3" font-family="Times New Roman,serif" font-size="14.00">Production</text>
</g>
<!-- apache -->
<g id="node8" class="node">
<title>apache</title>
<g id="a_node8"><a xlink:href="https://httpd.apache.org/" xlink:title="Apache" target="_blank">
<polygon fill="none" stroke="black" points="477.5,-405 418.5,-405 418.5,-369 477.5,-369 477.5,-405"/>
<text text-anchor="middle" x="448" y="-383.3" font-family="Times New Roman,serif" font-size="14.00">Apache</text>
</a>
</g>
</g>
<!-- production&#45;&gt;apache -->
<g id="edge3" class="edge">
<title>production&#45;&gt;apache</title>
<path fill="none" stroke="black" d="M474.76,-455.9C469.23,-450.69 463.81,-444.58 460,-438 456.01,-431.09 453.34,-422.91 451.56,-415.19"/>
<polygon fill="black" stroke="black" points="454.95,-414.28 449.64,-405.11 448.07,-415.59 454.95,-414.28"/>
<text text-anchor="middle" x="484" y="-426.8" font-family="Times New Roman,serif" font-size="14.00">backend</text>
</g>
<!-- modwsgi -->
<g id="node9" class="node">
<title>modwsgi</title>
<g id="a_node9"><a xlink:href="https://modwsgi.readthedocs.io/en/develop/" xlink:title="mod_wsgi" target="_blank">
<polygon fill="none" stroke="black" points="570.5,-405 495.5,-405 495.5,-369 570.5,-369 570.5,-405"/>
<text text-anchor="middle" x="533" y="-383.3" font-family="Times New Roman,serif" font-size="14.00">mod_wsgi</text>
</a>
</g>
</g>
<!-- production&#45;&gt;modwsgi -->
<g id="edge4" class="edge">
<title>production&#45;&gt;modwsgi</title>
<path fill="none" stroke="black" d="M504.29,-455.8C509.31,-443.93 516.09,-427.93 521.8,-414.45"/>
<polygon fill="black" stroke="black" points="525.05,-415.75 525.73,-405.18 518.6,-413.02 525.05,-415.75"/>
<text text-anchor="middle" x="558" y="-426.8" font-family="Times New Roman,serif" font-size="14.00">python/apache</text>
</g>
<!-- database&#45;&gt;sqlite -->
<g id="edge6" class="edge">
<title>database&#45;&gt;sqlite</title>
<path fill="none" stroke="black" d="M163.25,-281.68C160.22,-276.19 157.16,-269.98 155,-264 149.92,-249.92 146.54,-233.56 144.37,-220.1"/>
<polygon fill="black" stroke="black" points="147.81,-219.41 142.89,-210.03 140.88,-220.43 147.81,-219.41"/>
</g>
<!-- database&#45;&gt;models -->
<g id="edge5" class="edge">
<title>database&#45;&gt;models</title>
<path fill="none" stroke="black" d="M170.37,-281.74C168.09,-266.77 166.93,-244.91 175,-228 176.84,-224.14 179.33,-220.56 182.18,-217.28"/>
<polygon fill="black" stroke="black" points="184.73,-219.69 189.38,-210.16 179.81,-214.71 184.73,-219.69"/>
<text text-anchor="middle" x="202.5" y="-242.3" font-family="Times New Roman,serif" font-size="14.00">populates</text>
</g>
<!-- models&#45;&gt;template -->
<g id="edge14" class="edge">
<title>models&#45;&gt;template</title>
<path fill="none" stroke="black" d="M212.71,-173.57C211.19,-163.36 211.1,-150.62 217,-141 222.92,-131.36 232.41,-124.27 242.49,-119.11"/>
<polygon fill="black" stroke="black" points="244.15,-122.2 251.81,-114.88 241.26,-115.82 244.15,-122.2"/>
<text text-anchor="middle" x="244.5" y="-144.8" font-family="Times New Roman,serif" font-size="14.00">populates</text>
</g>
<!-- view&#45;&gt;template -->
<g id="edge12" class="edge">
<title>view&#45;&gt;template</title>
<path fill="none" stroke="black" d="M286,-227.96C286,-204.4 286,-161.64 286,-133.53"/>
<polygon fill="black" stroke="black" points="289.5,-133.18 286,-123.18 282.5,-133.18 289.5,-133.18"/>
<text text-anchor="middle" x="304" y="-188.3" font-family="Times New Roman,serif" font-size="14.00">serves</text>
</g>
<!-- html -->
<g id="node14" class="node">
<title>html</title>
<polygon fill="none" stroke="black" points="329,-36 243,-36 243,0 329,0 329,-36"/>
<text text-anchor="middle" x="286" y="-14.3" font-family="Times New Roman,serif" font-size="14.00">HTML/CSS</text>
</g>
<!-- template&#45;&gt;html -->
<g id="edge7" class="edge">
<title>template&#45;&gt;html</title>
<path fill="none" stroke="black" d="M284.83,-86.92C284.49,-81.22 284.17,-74.84 284,-69 283.79,-61.65 283.94,-53.69 284.23,-46.33"/>
<polygon fill="black" stroke="black" points="287.74,-46.28 284.73,-36.12 280.74,-45.94 287.74,-46.28"/>
</g>
<!-- template&#45;&gt;html -->
<g id="edge13" class="edge">
<title>template&#45;&gt;html</title>
<path fill="none" stroke="black" d="M286,-86.8C286,-75.16 286,-59.55 286,-46.24"/>
<polygon fill="black" stroke="black" points="289.5,-46.18 286,-36.18 282.5,-46.18 289.5,-46.18"/>
<text text-anchor="middle" x="312" y="-57.8" font-family="Times New Roman,serif" font-size="14.00">generates</text>
</g>
<!-- caller -->
<g id="node15" class="node">
<title>caller</title>
<g id="a_node15"><a xlink:href="https://www.digitalocean.com/community/tutorials/how-to-use-web-apis-in-python-3" xlink:title="Scheduled API calls" target="_blank">
<polygon fill="none" stroke="black" points="182,-492 52,-492 52,-456 182,-456 182,-492"/>
<text text-anchor="middle" x="117" y="-470.3" font-family="Times New Roman,serif" font-size="14.00">Scheduled API calls</text>
</a>
</g>
</g>
<!-- caller&#45;&gt;reddit -->
<g id="edge15" class="edge">
<title>caller&#45;&gt;reddit</title>
<path fill="none" stroke="black" d="M105.06,-455.8C96.66,-443.7 85.28,-427.3 75.82,-413.67"/>
<polygon fill="black" stroke="black" points="78.5,-411.39 69.92,-405.18 72.75,-415.39 78.5,-411.39"/>
<text text-anchor="middle" x="112" y="-426.8" font-family="Times New Roman,serif" font-size="14.00">queries</text>
</g>
<!-- processor -->
<g id="node16" class="node">
<title>processor</title>
<polygon fill="none" stroke="black" points="231.5,-405 116.5,-405 116.5,-369 231.5,-369 231.5,-405"/>
<text text-anchor="middle" x="174" y="-383.3" font-family="Times New Roman,serif" font-size="14.00">Process API data</text>
</g>
<!-- caller&#45;&gt;processor -->
<g id="edge16" class="edge">
<title>caller&#45;&gt;processor</title>
<path fill="none" stroke="black" d="M128.53,-455.8C136.65,-443.7 147.64,-427.3 156.79,-413.67"/>
<polygon fill="black" stroke="black" points="159.82,-415.43 162.48,-405.18 154.01,-411.53 159.82,-415.43"/>
<text text-anchor="middle" x="177.5" y="-426.8" font-family="Times New Roman,serif" font-size="14.00">processes</text>
</g>
<!-- processor&#45;&gt;database -->
<g id="edge17" class="edge">
<title>processor&#45;&gt;database</title>
<path fill="none" stroke="black" d="M174,-368.8C174,-357.16 174,-341.55 174,-328.24"/>
<polygon fill="black" stroke="black" points="177.5,-328.18 174,-318.18 170.5,-328.18 177.5,-328.18"/>
<text text-anchor="middle" x="184" y="-339.8" font-family="Times New Roman,serif" font-size="14.00">fills</text>
</g>
</g>
</svg>
