<?xml version="1.0" encoding="UTF-8" standalone="no"?>
<!DOCTYPE svg PUBLIC "-//W3C//DTD SVG 1.1//EN"
 "http://www.w3.org/Graphics/SVG/1.1/DTD/svg11.dtd">
<!-- Generated by graphviz version 2.47.1 (20210417.1919)
 -->
<!-- Title: techstack Pages: 1 -->
<svg width="703pt" height="500pt"
 viewBox="0.00 0.00 703.00 500.00" xmlns="http://www.w3.org/2000/svg" xmlns:xlink="http://www.w3.org/1999/xlink">
<g id="graph0" class="graph" transform="scale(1 1) rotate(0) translate(4 496)">
<title>techstack</title>
<polygon fill="white" stroke="transparent" points="-4,4 -4,-496 699,-496 699,4 -4,4"/>
<!-- caller -->
<g id="node1" class="node">
<title>caller</title>
<g id="a_node1"><a xlink:href="https://www.digitalocean.com/community/tutorials/how-to-use-web-apis-in-python-3" xlink:title="Scheduled API calls" target="_blank">
<polygon fill="none" stroke="black" points="183,-492 53,-492 53,-488 49,-488 49,-484 53,-484 53,-464 49,-464 49,-460 53,-460 53,-456 183,-456 183,-492"/>
<polyline fill="none" stroke="black" points="53,-488 57,-488 57,-484 53,-484 "/>
<polyline fill="none" stroke="black" points="53,-464 57,-464 57,-460 53,-460 "/>
<text text-anchor="middle" x="118" y="-470.3" font-family="Times New Roman,serif" font-size="14.00">Scheduled API calls</text>
</a>
</g>
</g>
<!-- processor -->
<g id="node5" class="node">
<title>processor</title>
<polygon fill="none" stroke="black" points="233.5,-405 118.5,-405 118.5,-401 114.5,-401 114.5,-397 118.5,-397 118.5,-377 114.5,-377 114.5,-373 118.5,-373 118.5,-369 233.5,-369 233.5,-405"/>
<polyline fill="none" stroke="black" points="118.5,-401 122.5,-401 122.5,-397 118.5,-397 "/>
<polyline fill="none" stroke="black" points="118.5,-377 122.5,-377 122.5,-373 118.5,-373 "/>
<text text-anchor="middle" x="176" y="-383.3" font-family="Times New Roman,serif" font-size="14.00">Process API data</text>
</g>
<!-- caller&#45;&gt;processor -->
<g id="edge13" class="edge">
<title>caller&#45;&gt;processor</title>
<path fill="none" stroke="black" d="M129.74,-455.8C137.99,-443.7 149.18,-427.3 158.49,-413.67"/>
<polygon fill="black" stroke="black" points="161.53,-415.41 164.28,-405.18 155.75,-411.46 161.53,-415.41"/>
<text text-anchor="middle" x="179.5" y="-426.8" font-family="Times New Roman,serif" font-size="14.00">processes</text>
</g>
<!-- reddit -->
<g id="node6" class="node">
<title>reddit</title>
<g id="a_node6"><a xlink:href="https://www.reddit.com/dev/api" xlink:title="Reddit API" target="_blank">
<path fill="#1f0477" stroke="black" d="M99,-401.73C99,-403.53 81.07,-405 59,-405 36.93,-405 19,-403.53 19,-401.73 19,-401.73 19,-372.27 19,-372.27 19,-370.47 36.93,-369 59,-369 81.07,-369 99,-370.47 99,-372.27 99,-372.27 99,-401.73 99,-401.73"/>
<path fill="none" stroke="black" d="M99,-401.73C99,-399.92 81.07,-398.45 59,-398.45 36.93,-398.45 19,-399.92 19,-401.73"/>
<text text-anchor="middle" x="59" y="-383.3" font-family="Times New Roman,serif" font-size="14.00" fill="white">Reddit API</text>
</a>
</g>
</g>
<!-- caller&#45;&gt;reddit -->
<g id="edge12" class="edge">
<title>caller&#45;&gt;reddit</title>
<path fill="none" stroke="black" d="M106.06,-455.8C97.66,-443.7 86.28,-427.3 76.82,-413.67"/>
<polygon fill="black" stroke="black" points="79.5,-411.39 70.92,-405.18 73.75,-415.39 79.5,-411.39"/>
<text text-anchor="middle" x="113" y="-426.8" font-family="Times New Roman,serif" font-size="14.00">queries</text>
</g>
<!-- redditAPIRules -->
<g id="node2" class="node">
<title>redditAPIRules</title>
<g id="a_node2"><a xlink:href="https://github.com/reddit-archive/reddit/wiki/API" xlink:title="Reddit API Rules" target="_blank">
<polygon fill="none" stroke="black" points="116,-318 0,-318 0,-314 -4,-314 -4,-310 0,-310 0,-290 -4,-290 -4,-286 0,-286 0,-282 116,-282 116,-318"/>
<polyline fill="none" stroke="black" points="0,-314 4,-314 4,-310 0,-310 "/>
<polyline fill="none" stroke="black" points="0,-290 4,-290 4,-286 0,-286 "/>
<text text-anchor="middle" x="58" y="-296.3" font-family="Times New Roman,serif" font-size="14.00">Reddit API Rules</text>
</a>
</g>
</g>
<!-- production -->
<g id="node3" class="node">
<title>production</title>
<polygon fill="none" stroke="black" points="591.5,-405 512.5,-405 512.5,-401 508.5,-401 508.5,-397 512.5,-397 512.5,-377 508.5,-377 508.5,-373 512.5,-373 512.5,-369 591.5,-369 591.5,-405"/>
<polyline fill="none" stroke="black" points="512.5,-401 516.5,-401 516.5,-397 512.5,-397 "/>
<polyline fill="none" stroke="black" points="512.5,-377 516.5,-377 516.5,-373 512.5,-373 "/>
<text text-anchor="middle" x="552" y="-383.3" font-family="Times New Roman,serif" font-size="14.00">Production</text>
</g>
<!-- apache -->
<g id="node9" class="node">
<title>apache</title>
<g id="a_node9"><a xlink:href="https://httpd.apache.org/" xlink:title="Apache" target="_blank">
<path fill="#1f0477" stroke="black" d="M688.5,-314.73C688.5,-316.53 675.28,-318 659,-318 642.72,-318 629.5,-316.53 629.5,-314.73 629.5,-314.73 629.5,-285.27 629.5,-285.27 629.5,-283.47 642.72,-282 659,-282 675.28,-282 688.5,-283.47 688.5,-285.27 688.5,-285.27 688.5,-314.73 688.5,-314.73"/>
<path fill="none" stroke="black" d="M688.5,-314.73C688.5,-312.92 675.28,-311.45 659,-311.45 642.72,-311.45 629.5,-312.92 629.5,-314.73"/>
<text text-anchor="middle" x="659" y="-296.3" font-family="Times New Roman,serif" font-size="14.00" fill="white">Apache</text>
</a>
</g>
</g>
<!-- production&#45;&gt;apache -->
<g id="edge17" class="edge">
<title>production&#45;&gt;apache</title>
<path fill="none" stroke="black" d="M591.76,-371.18C612.1,-363.32 633.35,-354.57 637,-351 643.54,-344.62 648.27,-335.96 651.63,-327.65"/>
<polygon fill="black" stroke="black" points="654.94,-328.79 654.97,-318.19 648.34,-326.46 654.94,-328.79"/>
<text text-anchor="middle" x="671" y="-339.8" font-family="Times New Roman,serif" font-size="14.00">backend</text>
</g>
<!-- modwsgi -->
<g id="node10" class="node">
<title>modwsgi</title>
<g id="a_node10"><a xlink:href="https://modwsgi.readthedocs.io/en/develop/" xlink:title="mod_wsgi" target="_blank">
<path fill="#1f0477" stroke="black" d="M592.5,-314.73C592.5,-316.53 575.69,-318 555,-318 534.31,-318 517.5,-316.53 517.5,-314.73 517.5,-314.73 517.5,-285.27 517.5,-285.27 517.5,-283.47 534.31,-282 555,-282 575.69,-282 592.5,-283.47 592.5,-285.27 592.5,-285.27 592.5,-314.73 592.5,-314.73"/>
<path fill="none" stroke="black" d="M592.5,-314.73C592.5,-312.92 575.69,-311.45 555,-311.45 534.31,-311.45 517.5,-312.92 517.5,-314.73"/>
<text text-anchor="middle" x="555" y="-296.3" font-family="Times New Roman,serif" font-size="14.00" fill="white">mod_wsgi</text>
</a>
</g>
</g>
<!-- production&#45;&gt;modwsgi -->
<g id="edge18" class="edge">
<title>production&#45;&gt;modwsgi</title>
<path fill="none" stroke="black" d="M552.61,-368.8C553.02,-357.16 553.57,-341.55 554.04,-328.24"/>
<polygon fill="black" stroke="black" points="557.54,-328.29 554.39,-318.18 550.54,-328.05 557.54,-328.29"/>
<text text-anchor="middle" x="594" y="-339.8" font-family="Times New Roman,serif" font-size="14.00">python/apache</text>
</g>
<!-- testing -->
<g id="node4" class="node">
<title>testing</title>
<polygon fill="none" stroke="black" points="668,-405 610,-405 610,-401 606,-401 606,-397 610,-397 610,-377 606,-377 606,-373 610,-373 610,-369 668,-369 668,-405"/>
<polyline fill="none" stroke="black" points="610,-401 614,-401 614,-397 610,-397 "/>
<polyline fill="none" stroke="black" points="610,-377 614,-377 614,-373 610,-373 "/>
<text text-anchor="middle" x="639" y="-383.3" font-family="Times New Roman,serif" font-size="14.00">Testing</text>
</g>
<!-- database -->
<g id="node16" class="node">
<title>database</title>
<ellipse fill="#e5e6ce" stroke="black" cx="178" cy="-300" rx="44.39" ry="18"/>
<text text-anchor="middle" x="178" y="-296.3" font-family="Times New Roman,serif" font-size="14.00">Database</text>
</g>
<!-- processor&#45;&gt;database -->
<g id="edge14" class="edge">
<title>processor&#45;&gt;database</title>
<path fill="none" stroke="black" d="M176.4,-368.8C176.68,-357.16 177.05,-341.55 177.36,-328.24"/>
<polygon fill="black" stroke="black" points="180.86,-328.26 177.6,-318.18 173.86,-328.09 180.86,-328.26"/>
<text text-anchor="middle" x="188" y="-339.8" font-family="Times New Roman,serif" font-size="14.00">fills</text>
</g>
<!-- reddit&#45;&gt;redditAPIRules -->
<g id="edge1" class="edge">
<title>reddit&#45;&gt;redditAPIRules</title>
<path fill="none" stroke="black" d="M58.8,-368.8C58.66,-357.16 58.48,-341.55 58.32,-328.24"/>
<polygon fill="black" stroke="black" points="61.82,-328.13 58.2,-318.18 54.82,-328.22 61.82,-328.13"/>
</g>
<!-- django -->
<g id="node7" class="node">
<title>django</title>
<g id="a_node7"><a xlink:href="https://docs.djangoproject.com/en/3.2/" xlink:title="Django" target="_blank">
<path fill="#1f0477" stroke="black" d="M316,-401.73C316,-403.53 303.45,-405 288,-405 272.55,-405 260,-403.53 260,-401.73 260,-401.73 260,-372.27 260,-372.27 260,-370.47 272.55,-369 288,-369 303.45,-369 316,-370.47 316,-372.27 316,-372.27 316,-401.73 316,-401.73"/>
<path fill="none" stroke="black" d="M316,-401.73C316,-399.92 303.45,-398.45 288,-398.45 272.55,-398.45 260,-399.92 260,-401.73"/>
<text text-anchor="middle" x="288" y="-383.3" font-family="Times New Roman,serif" font-size="14.00" fill="white">Django</text>
</a>
</g>
</g>
<!-- models -->
<g id="node15" class="node">
<title>models</title>
<g id="a_node15"><a xlink:href="https://docs.djangoproject.com/en/3.2/topics/db/models/" xlink:title="Models" target="_blank">
<ellipse fill="#e5e6ce" stroke="black" cx="220" cy="-192" rx="38.19" ry="18"/>
<text text-anchor="middle" x="220" y="-188.3" font-family="Times New Roman,serif" font-size="14.00">Models</text>
</a>
</g>
</g>
<!-- django&#45;&gt;models -->
<g id="edge6" class="edge">
<title>django&#45;&gt;models</title>
<path fill="none" stroke="black" d="M280.74,-368.66C278.48,-363.06 276.05,-356.8 274,-351 254.92,-297.06 256.38,-281.46 236,-228 234.89,-225.1 233.66,-222.09 232.38,-219.12"/>
<polygon fill="black" stroke="black" points="235.54,-217.6 228.26,-209.9 229.15,-220.46 235.54,-217.6"/>
</g>
<!-- django&#45;&gt;database -->
<g id="edge7" class="edge">
<title>django&#45;&gt;database</title>
<path fill="none" stroke="black" d="M262.98,-370.03C254.28,-364.25 244.56,-357.54 236,-351 224.74,-342.41 212.81,-332.31 202.72,-323.44"/>
<polygon fill="black" stroke="black" points="204.86,-320.67 195.06,-316.65 200.22,-325.91 204.86,-320.67"/>
</g>
<!-- view -->
<g id="node17" class="node">
<title>view</title>
<g id="a_node17"><a xlink:href="https://docs.djangoproject.com/en/3.2/#the-view-layer" xlink:title="View" target="_blank">
<ellipse fill="#e5e6ce" stroke="black" cx="333" cy="-246" rx="29.5" ry="18"/>
<text text-anchor="middle" x="333" y="-242.3" font-family="Times New Roman,serif" font-size="14.00">View</text>
</a>
</g>
</g>
<!-- django&#45;&gt;view -->
<g id="edge5" class="edge">
<title>django&#45;&gt;view</title>
<path fill="none" stroke="black" d="M295.29,-368.67C297.55,-363.07 299.98,-356.81 302,-351 311.01,-325.12 319.79,-295.08 325.69,-273.96"/>
<polygon fill="black" stroke="black" points="329.13,-274.66 328.42,-264.08 322.38,-272.79 329.13,-274.66"/>
</g>
<!-- template -->
<g id="node18" class="node">
<title>template</title>
<g id="a_node18"><a xlink:href="https://docs.djangoproject.com/en/3.2/topics/templates/" xlink:title="Template" target="_blank">
<ellipse fill="#e5e6ce" stroke="black" cx="288" cy="-105" rx="44.39" ry="18"/>
<text text-anchor="middle" x="288" y="-101.3" font-family="Times New Roman,serif" font-size="14.00">Template</text>
</a>
</g>
</g>
<!-- django&#45;&gt;template -->
<g id="edge8" class="edge">
<title>django&#45;&gt;template</title>
<path fill="none" stroke="black" d="M288,-368.91C288,-321.95 288,-190.65 288,-133.34"/>
<polygon fill="black" stroke="black" points="291.5,-133.23 288,-123.23 284.5,-133.23 291.5,-133.23"/>
</g>
<!-- sqlite -->
<g id="node8" class="node">
<title>sqlite</title>
<g id="a_node8"><a xlink:href="https://www.sqlite.org/index.html" xlink:title="SQLite" target="_blank">
<path fill="#1f0477" stroke="black" d="M164,-206.73C164,-208.53 151.45,-210 136,-210 120.55,-210 108,-208.53 108,-206.73 108,-206.73 108,-177.27 108,-177.27 108,-175.47 120.55,-174 136,-174 151.45,-174 164,-175.47 164,-177.27 164,-177.27 164,-206.73 164,-206.73"/>
<path fill="none" stroke="black" d="M164,-206.73C164,-204.92 151.45,-203.45 136,-203.45 120.55,-203.45 108,-204.92 108,-206.73"/>
<text text-anchor="middle" x="136" y="-188.3" font-family="Times New Roman,serif" font-size="14.00" fill="white">SQLite</text>
</a>
</g>
</g>
<!-- autodoc -->
<g id="node11" class="node">
<title>autodoc</title>
<g id="a_node11"><a xlink:href="https://www.sphinx-doc.org/en/master/usage/extensions/autodoc.html" xlink:title="sphinx&#45;autodoc" target="_blank">
<path fill="#1f0477" stroke="black" d="M486,-401.73C486,-403.53 462.69,-405 434,-405 405.31,-405 382,-403.53 382,-401.73 382,-401.73 382,-372.27 382,-372.27 382,-370.47 405.31,-369 434,-369 462.69,-369 486,-370.47 486,-372.27 486,-372.27 486,-401.73 486,-401.73"/>
<path fill="none" stroke="black" d="M486,-401.73C486,-399.92 462.69,-398.45 434,-398.45 405.31,-398.45 382,-399.92 382,-401.73"/>
<text text-anchor="middle" x="434" y="-383.3" font-family="Times New Roman,serif" font-size="14.00" fill="white">sphinx&#45;autodoc</text>
</a>
</g>
</g>
<!-- sphinx -->
<g id="node12" class="node">
<title>sphinx</title>
<g id="a_node12"><a xlink:href="https://www.sphinx-doc.org" xlink:title="sphinx documentation" target="_blank">
<path fill="#1f0477" stroke="black" d="M499,-314.73C499,-316.53 467.62,-318 429,-318 390.38,-318 359,-316.53 359,-314.73 359,-314.73 359,-285.27 359,-285.27 359,-283.47 390.38,-282 429,-282 467.62,-282 499,-283.47 499,-285.27 499,-285.27 499,-314.73 499,-314.73"/>
<path fill="none" stroke="black" d="M499,-314.73C499,-312.92 467.62,-311.45 429,-311.45 390.38,-311.45 359,-312.92 359,-314.73"/>
<text text-anchor="middle" x="429" y="-296.3" font-family="Times New Roman,serif" font-size="14.00" fill="white">sphinx documentation</text>
</a>
</g>
</g>
<!-- autodoc&#45;&gt;sphinx -->
<g id="edge16" class="edge">
<title>autodoc&#45;&gt;sphinx</title>
<path fill="none" stroke="black" d="M432.99,-368.8C432.3,-357.16 431.39,-341.55 430.6,-328.24"/>
<polygon fill="black" stroke="black" points="434.09,-327.95 430.01,-318.18 427.1,-328.36 434.09,-327.95"/>
<text text-anchor="middle" x="460" y="-339.8" font-family="Times New Roman,serif" font-size="14.00">made with</text>
</g>
<!-- github -->
<g id="node14" class="node">
<title>github</title>
<path fill="#1f0477" stroke="black" d="M471.5,-206.73C471.5,-208.53 452.9,-210 430,-210 407.1,-210 388.5,-208.53 388.5,-206.73 388.5,-206.73 388.5,-177.27 388.5,-177.27 388.5,-175.47 407.1,-174 430,-174 452.9,-174 471.5,-175.47 471.5,-177.27 471.5,-177.27 471.5,-206.73 471.5,-206.73"/>
<path fill="none" stroke="black" d="M471.5,-206.73C471.5,-204.92 452.9,-203.45 430,-203.45 407.1,-203.45 388.5,-204.92 388.5,-206.73"/>
<text text-anchor="middle" x="430" y="-188.3" font-family="Times New Roman,serif" font-size="14.00" fill="white">github/jekyll</text>
</g>
<!-- sphinx&#45;&gt;github -->
<g id="edge22" class="edge">
<title>sphinx&#45;&gt;github</title>
<path fill="none" stroke="black" d="M429.16,-281.97C429.32,-265.38 429.56,-239.88 429.74,-220.43"/>
<polygon fill="black" stroke="black" points="433.24,-220.37 429.84,-210.34 426.24,-220.31 433.24,-220.37"/>
<text text-anchor="middle" x="473.5" y="-242.3" font-family="Times New Roman,serif" font-size="14.00">hosted static on</text>
</g>
<!-- html -->
<g id="node13" class="node">
<title>html</title>
<path fill="#1f0477" stroke="black" d="M331,-32.73C331,-34.53 311.73,-36 288,-36 264.27,-36 245,-34.53 245,-32.73 245,-32.73 245,-3.27 245,-3.27 245,-1.47 264.27,0 288,0 311.73,0 331,-1.47 331,-3.27 331,-3.27 331,-32.73 331,-32.73"/>
<path fill="none" stroke="black" d="M331,-32.73C331,-30.92 311.73,-29.45 288,-29.45 264.27,-29.45 245,-30.92 245,-32.73"/>
<text text-anchor="middle" x="288" y="-14.3" font-family="Times New Roman,serif" font-size="14.00" fill="white">HTML/CSS</text>
</g>
<!-- models&#45;&gt;template -->
<g id="edge11" class="edge">
<title>models&#45;&gt;template</title>
<path fill="none" stroke="black" d="M215.3,-174.05C213.46,-163.75 213,-150.77 219,-141 224.59,-131.89 233.37,-125.06 242.82,-119.98"/>
<polygon fill="black" stroke="black" points="244.47,-123.07 252,-115.62 241.47,-116.75 244.47,-123.07"/>
<text text-anchor="middle" x="246.5" y="-144.8" font-family="Times New Roman,serif" font-size="14.00">populates</text>
</g>
<!-- database&#45;&gt;sqlite -->
<g id="edge3" class="edge">
<title>database&#45;&gt;sqlite</title>
<path fill="none" stroke="black" d="M171.25,-281.97C164.62,-265.22 154.39,-239.41 146.66,-219.89"/>
<polygon fill="black" stroke="black" points="149.81,-218.35 142.87,-210.34 143.3,-220.93 149.81,-218.35"/>
</g>
<!-- database&#45;&gt;models -->
<g id="edge2" class="edge">
<title>database&#45;&gt;models</title>
<path fill="none" stroke="black" d="M175.12,-281.76C173.44,-266.81 173,-244.96 181,-228 183.43,-222.86 186.99,-218.14 191,-213.95"/>
<polygon fill="black" stroke="black" points="193.56,-216.34 198.53,-206.98 188.81,-211.2 193.56,-216.34"/>
<text text-anchor="middle" x="208.5" y="-242.3" font-family="Times New Roman,serif" font-size="14.00">populates</text>
</g>
<!-- view&#45;&gt;template -->
<g id="edge9" class="edge">
<title>view&#45;&gt;template</title>
<path fill="none" stroke="black" d="M328.42,-227.92C322.75,-207.18 312.53,-171.25 302,-141 301.03,-138.22 299.97,-135.33 298.88,-132.47"/>
<polygon fill="black" stroke="black" points="302.06,-131 295.15,-122.97 295.55,-133.56 302.06,-131"/>
<text text-anchor="middle" x="341" y="-188.3" font-family="Times New Roman,serif" font-size="14.00">serves</text>
</g>
<!-- template&#45;&gt;html -->
<g id="edge4" class="edge">
<title>template&#45;&gt;html</title>
<path fill="none" stroke="black" d="M286.73,-86.88C286.17,-77.23 285.69,-64.94 286,-54 286.07,-51.44 286.18,-48.79 286.3,-46.13"/>
<polygon fill="black" stroke="black" points="289.79,-46.25 286.83,-36.08 282.8,-45.88 289.79,-46.25"/>
</g>
<!-- template&#45;&gt;html -->
<g id="edge10" class="edge">
<title>template&#45;&gt;html</title>
<path fill="none" stroke="black" d="M288,-86.8C288,-75.16 288,-59.55 288,-46.24"/>
<polygon fill="black" stroke="black" points="291.5,-46.18 288,-36.18 284.5,-46.18 291.5,-46.18"/>
<text text-anchor="middle" x="314" y="-57.8" font-family="Times New Roman,serif" font-size="14.00">generates</text>
</g>
<!-- codebase -->
<g id="node19" class="node">
<title>codebase</title>
<g id="a_node19"><a xlink:href="https://www.github.com/unhm-programming-team" xlink:title="Code Base" target="_blank">
<ellipse fill="#e5e6ce" stroke="black" cx="491" cy="-474" rx="50.89" ry="18"/>
<text text-anchor="middle" x="491" y="-470.3" font-family="Times New Roman,serif" font-size="14.00">Code Base</text>
</a>
</g>
</g>
<!-- codebase&#45;&gt;production -->
<g id="edge19" class="edge">
<title>codebase&#45;&gt;production</title>
<path fill="none" stroke="black" d="M503.05,-456.21C511.85,-443.95 523.93,-427.11 533.89,-413.24"/>
<polygon fill="black" stroke="black" points="536.78,-415.21 539.76,-405.05 531.09,-411.13 536.78,-415.21"/>
</g>
<!-- codebase&#45;&gt;testing -->
<g id="edge20" class="edge">
<title>codebase&#45;&gt;testing</title>
<path fill="none" stroke="black" d="M516.44,-458.39C539.66,-445.06 574.29,-425.17 600.82,-409.93"/>
<polygon fill="black" stroke="black" points="602.9,-412.77 609.83,-404.75 599.42,-406.7 602.9,-412.77"/>
</g>
<!-- codebase&#45;&gt;django -->
<g id="edge21" class="edge">
<title>codebase&#45;&gt;django</title>
<path fill="none" stroke="black" d="M443.19,-467.92C413.09,-463.25 374.18,-454.43 343,-438 330.75,-431.54 319.1,-421.71 309.71,-412.47"/>
<polygon fill="black" stroke="black" points="312.17,-409.99 302.69,-405.27 307.16,-414.87 312.17,-409.99"/>
<text text-anchor="middle" x="399" y="-426.8" font-family="Times New Roman,serif" font-size="14.00">mostly written using</text>
</g>
<!-- codebase&#45;&gt;autodoc -->
<g id="edge15" class="edge">
<title>codebase&#45;&gt;autodoc</title>
<path fill="none" stroke="black" d="M479.74,-456.21C471.59,-444.06 460.44,-427.43 451.19,-413.63"/>
<polygon fill="black" stroke="black" points="453.91,-411.41 445.43,-405.05 448.1,-415.3 453.91,-411.41"/>
</g>
</g>
</svg>
