<?xml version="1.0" encoding="UTF-8" standalone="no"?>
<!DOCTYPE svg PUBLIC "-//W3C//DTD SVG 1.1//EN"
 "http://www.w3.org/Graphics/SVG/1.1/DTD/svg11.dtd">
<!-- Generated by graphviz version 2.47.1 (20210417.1919)
 -->
<!-- Title: techstack Pages: 1 -->
<svg width="697pt" height="500pt"
 viewBox="0.00 0.00 697.00 500.00" xmlns="http://www.w3.org/2000/svg" xmlns:xlink="http://www.w3.org/1999/xlink">
<g id="graph0" class="graph" transform="scale(1 1) rotate(0) translate(4 496)">
<title>techstack</title>
<polygon fill="white" stroke="transparent" points="-4,4 -4,-496 693,-496 693,4 -4,4"/>
<!-- reddit -->
<g id="node1" class="node">
<title>reddit</title>
<g id="a_node1"><a xlink:href="https://www.reddit.com/dev/api" xlink:title="Reddit API" target="_blank">
<polygon fill="none" stroke="black" points="98,-405 18,-405 18,-369 98,-369 98,-405"/>
<text text-anchor="middle" x="58" y="-383.3" font-family="Times New Roman,serif" font-size="14.00">Reddit API</text>
</a>
</g>
</g>
<!-- redditAPIRules -->
<g id="node2" class="node">
<title>redditAPIRules</title>
<g id="a_node2"><a xlink:href="https://github.com/reddit-archive/reddit/wiki/API" xlink:title="Reddit API Rules" target="_blank">
<polygon fill="none" stroke="black" points="116,-318 0,-318 0,-282 116,-282 116,-318"/>
<text text-anchor="middle" x="58" y="-296.3" font-family="Times New Roman,serif" font-size="14.00">Reddit API Rules</text>
</a>
</g>
</g>
<!-- reddit&#45;&gt;redditAPIRules -->
<g id="edge1" class="edge">
<title>reddit&#45;&gt;redditAPIRules</title>
<path fill="none" stroke="black" d="M58,-368.8C58,-357.16 58,-341.55 58,-328.24"/>
<polygon fill="black" stroke="black" points="61.5,-328.18 58,-318.18 54.5,-328.18 61.5,-328.18"/>
</g>
<!-- django -->
<g id="node3" class="node">
<title>django</title>
<g id="a_node3"><a xlink:href="https://docs.djangoproject.com/en/3.2/" xlink:title="Django" target="_blank">
<polygon fill="none" stroke="black" points="309,-405 253,-405 253,-369 309,-369 309,-405"/>
<text text-anchor="middle" x="281" y="-383.3" font-family="Times New Roman,serif" font-size="14.00">Django</text>
</a>
</g>
</g>
<!-- database -->
<g id="node8" class="node">
<title>database</title>
<polygon fill="none" stroke="black" points="208,-318 140,-318 140,-282 208,-282 208,-318"/>
<text text-anchor="middle" x="174" y="-296.3" font-family="Times New Roman,serif" font-size="14.00">Database</text>
</g>
<!-- django&#45;&gt;database -->
<g id="edge7" class="edge">
<title>django&#45;&gt;database</title>
<path fill="none" stroke="black" d="M254.86,-369C246.74,-363.47 237.86,-357.16 230,-351 219.74,-342.96 208.96,-333.57 199.62,-325.11"/>
<polygon fill="black" stroke="black" points="201.89,-322.45 192.16,-318.28 197.17,-327.61 201.89,-322.45"/>
</g>
<!-- models -->
<g id="node9" class="node">
<title>models</title>
<g id="a_node9"><a xlink:href="https://docs.djangoproject.com/en/3.2/topics/db/models/" xlink:title="Models" target="_blank">
<polygon fill="none" stroke="black" points="246.5,-210 187.5,-210 187.5,-174 246.5,-174 246.5,-210"/>
<text text-anchor="middle" x="217" y="-188.3" font-family="Times New Roman,serif" font-size="14.00">Models</text>
</a>
</g>
</g>
<!-- django&#45;&gt;models -->
<g id="edge6" class="edge">
<title>django&#45;&gt;models</title>
<path fill="none" stroke="black" d="M275.73,-368.85C266.74,-339.76 247.67,-278.92 230,-228 229.04,-225.24 228.02,-222.38 226.99,-219.52"/>
<polygon fill="black" stroke="black" points="230.24,-218.21 223.5,-210.04 223.67,-220.63 230.24,-218.21"/>
</g>
<!-- view -->
<g id="node10" class="node">
<title>view</title>
<g id="a_node10"><a xlink:href="https://docs.djangoproject.com/en/3.2/#the-view-layer" xlink:title="View" target="_blank">
<polygon fill="none" stroke="black" points="313,-264 259,-264 259,-228 313,-228 313,-264"/>
<text text-anchor="middle" x="286" y="-242.3" font-family="Times New Roman,serif" font-size="14.00">View</text>
</a>
</g>
</g>
<!-- django&#45;&gt;view -->
<g id="edge5" class="edge">
<title>django&#45;&gt;view</title>
<path fill="none" stroke="black" d="M281.61,-368.96C282.46,-345.4 284,-302.64 285.01,-274.53"/>
<polygon fill="black" stroke="black" points="288.52,-274.3 285.38,-264.18 281.52,-274.05 288.52,-274.3"/>
</g>
<!-- template -->
<g id="node11" class="node">
<title>template</title>
<g id="a_node11"><a xlink:href="https://docs.djangoproject.com/en/3.2/topics/templates/" xlink:title="Template" target="_blank">
<polygon fill="none" stroke="black" points="320,-123 252,-123 252,-87 320,-87 320,-123"/>
<text text-anchor="middle" x="286" y="-101.3" font-family="Times New Roman,serif" font-size="14.00">Template</text>
</a>
</g>
</g>
<!-- django&#45;&gt;template -->
<g id="edge8" class="edge">
<title>django&#45;&gt;template</title>
<path fill="none" stroke="black" d="M290.17,-368.8C308.33,-332.51 345.47,-245.52 326,-174 321.86,-158.79 313.36,-143.52 305.26,-131.31"/>
<polygon fill="black" stroke="black" points="308.07,-129.22 299.49,-123 302.32,-133.22 308.07,-129.22"/>
</g>
<!-- sqlite -->
<g id="node4" class="node">
<title>sqlite</title>
<g id="a_node4"><a xlink:href="https://www.sqlite.org/index.html" xlink:title="SQLite" target="_blank">
<polygon fill="none" stroke="black" points="169,-210 113,-210 113,-174 169,-174 169,-210"/>
<text text-anchor="middle" x="141" y="-188.3" font-family="Times New Roman,serif" font-size="14.00">SQLite</text>
</a>
</g>
</g>
<!-- production -->
<g id="node5" class="node">
<title>production</title>
<polygon fill="none" stroke="black" points="532.5,-405 453.5,-405 453.5,-369 532.5,-369 532.5,-405"/>
<text text-anchor="middle" x="493" y="-383.3" font-family="Times New Roman,serif" font-size="14.00">Production</text>
</g>
<!-- apache -->
<g id="node6" class="node">
<title>apache</title>
<g id="a_node6"><a xlink:href="https://httpd.apache.org/" xlink:title="Apache" target="_blank">
<polygon fill="none" stroke="black" points="437.5,-318 378.5,-318 378.5,-282 437.5,-282 437.5,-318"/>
<text text-anchor="middle" x="408" y="-296.3" font-family="Times New Roman,serif" font-size="14.00">Apache</text>
</a>
</g>
</g>
<!-- production&#45;&gt;apache -->
<g id="edge17" class="edge">
<title>production&#45;&gt;apache</title>
<path fill="none" stroke="black" d="M463.38,-368.99C455.62,-363.78 447.59,-357.65 441,-351 434.01,-343.95 427.64,-335.2 422.41,-327.01"/>
<polygon fill="black" stroke="black" points="425.38,-325.16 417.2,-318.43 419.4,-328.8 425.38,-325.16"/>
<text text-anchor="middle" x="465" y="-339.8" font-family="Times New Roman,serif" font-size="14.00">backend</text>
</g>
<!-- modwsgi -->
<g id="node7" class="node">
<title>modwsgi</title>
<g id="a_node7"><a xlink:href="https://modwsgi.readthedocs.io/en/develop/" xlink:title="mod_wsgi" target="_blank">
<polygon fill="none" stroke="black" points="530.5,-318 455.5,-318 455.5,-282 530.5,-282 530.5,-318"/>
<text text-anchor="middle" x="493" y="-296.3" font-family="Times New Roman,serif" font-size="14.00">mod_wsgi</text>
</a>
</g>
</g>
<!-- production&#45;&gt;modwsgi -->
<g id="edge18" class="edge">
<title>production&#45;&gt;modwsgi</title>
<path fill="none" stroke="black" d="M493,-368.8C493,-357.16 493,-341.55 493,-328.24"/>
<polygon fill="black" stroke="black" points="496.5,-328.18 493,-318.18 489.5,-328.18 496.5,-328.18"/>
<text text-anchor="middle" x="534" y="-339.8" font-family="Times New Roman,serif" font-size="14.00">python/apache</text>
</g>
<!-- database&#45;&gt;sqlite -->
<g id="edge3" class="edge">
<title>database&#45;&gt;sqlite</title>
<path fill="none" stroke="black" d="M163.25,-281.68C160.22,-276.19 157.16,-269.98 155,-264 149.92,-249.92 146.54,-233.56 144.37,-220.1"/>
<polygon fill="black" stroke="black" points="147.81,-219.41 142.89,-210.03 140.88,-220.43 147.81,-219.41"/>
</g>
<!-- database&#45;&gt;models -->
<g id="edge2" class="edge">
<title>database&#45;&gt;models</title>
<path fill="none" stroke="black" d="M170.37,-281.74C168.09,-266.77 166.93,-244.91 175,-228 176.84,-224.14 179.33,-220.56 182.18,-217.28"/>
<polygon fill="black" stroke="black" points="184.73,-219.69 189.38,-210.16 179.81,-214.71 184.73,-219.69"/>
<text text-anchor="middle" x="202.5" y="-242.3" font-family="Times New Roman,serif" font-size="14.00">populates</text>
</g>
<!-- models&#45;&gt;template -->
<g id="edge11" class="edge">
<title>models&#45;&gt;template</title>
<path fill="none" stroke="black" d="M212.71,-173.57C211.19,-163.36 211.1,-150.62 217,-141 222.92,-131.36 232.41,-124.27 242.49,-119.11"/>
<polygon fill="black" stroke="black" points="244.15,-122.2 251.81,-114.88 241.26,-115.82 244.15,-122.2"/>
<text text-anchor="middle" x="244.5" y="-144.8" font-family="Times New Roman,serif" font-size="14.00">populates</text>
</g>
<!-- view&#45;&gt;template -->
<g id="edge9" class="edge">
<title>view&#45;&gt;template</title>
<path fill="none" stroke="black" d="M286,-227.96C286,-204.4 286,-161.64 286,-133.53"/>
<polygon fill="black" stroke="black" points="289.5,-133.18 286,-123.18 282.5,-133.18 289.5,-133.18"/>
<text text-anchor="middle" x="304" y="-188.3" font-family="Times New Roman,serif" font-size="14.00">serves</text>
</g>
<!-- html -->
<g id="node12" class="node">
<title>html</title>
<polygon fill="none" stroke="black" points="329,-36 243,-36 243,0 329,0 329,-36"/>
<text text-anchor="middle" x="286" y="-14.3" font-family="Times New Roman,serif" font-size="14.00">HTML/CSS</text>
</g>
<!-- template&#45;&gt;html -->
<g id="edge4" class="edge">
<title>template&#45;&gt;html</title>
<path fill="none" stroke="black" d="M284.83,-86.92C284.49,-81.22 284.17,-74.84 284,-69 283.79,-61.65 283.94,-53.69 284.23,-46.33"/>
<polygon fill="black" stroke="black" points="287.74,-46.28 284.73,-36.12 280.74,-45.94 287.74,-46.28"/>
</g>
<!-- template&#45;&gt;html -->
<g id="edge10" class="edge">
<title>template&#45;&gt;html</title>
<path fill="none" stroke="black" d="M286,-86.8C286,-75.16 286,-59.55 286,-46.24"/>
<polygon fill="black" stroke="black" points="289.5,-46.18 286,-36.18 282.5,-46.18 289.5,-46.18"/>
<text text-anchor="middle" x="312" y="-57.8" font-family="Times New Roman,serif" font-size="14.00">generates</text>
</g>
<!-- caller -->
<g id="node13" class="node">
<title>caller</title>
<g id="a_node13"><a xlink:href="https://www.digitalocean.com/community/tutorials/how-to-use-web-apis-in-python-3" xlink:title="Scheduled API calls" target="_blank">
<polygon fill="none" stroke="black" points="175,-492 45,-492 45,-456 175,-456 175,-492"/>
<text text-anchor="middle" x="110" y="-470.3" font-family="Times New Roman,serif" font-size="14.00">Scheduled API calls</text>
</a>
</g>
</g>
<!-- caller&#45;&gt;reddit -->
<g id="edge12" class="edge">
<title>caller&#45;&gt;reddit</title>
<path fill="none" stroke="black" d="M97.72,-455.76C93.86,-450.16 89.65,-443.88 86,-438 81.3,-430.43 76.46,-422.03 72.15,-414.32"/>
<polygon fill="black" stroke="black" points="75.1,-412.42 67.21,-405.35 68.97,-415.8 75.1,-412.42"/>
<text text-anchor="middle" x="106" y="-426.8" font-family="Times New Roman,serif" font-size="14.00">queries</text>
</g>
<!-- processor -->
<g id="node14" class="node">
<title>processor</title>
<polygon fill="none" stroke="black" points="231.5,-405 116.5,-405 116.5,-369 231.5,-369 231.5,-405"/>
<text text-anchor="middle" x="174" y="-383.3" font-family="Times New Roman,serif" font-size="14.00">Process API data</text>
</g>
<!-- caller&#45;&gt;processor -->
<g id="edge13" class="edge">
<title>caller&#45;&gt;processor</title>
<path fill="none" stroke="black" d="M122.95,-455.8C132.15,-443.59 144.64,-426.99 154.97,-413.28"/>
<polygon fill="black" stroke="black" points="157.85,-415.27 161.07,-405.18 152.26,-411.06 157.85,-415.27"/>
<text text-anchor="middle" x="174.5" y="-426.8" font-family="Times New Roman,serif" font-size="14.00">processes</text>
</g>
<!-- processor&#45;&gt;database -->
<g id="edge14" class="edge">
<title>processor&#45;&gt;database</title>
<path fill="none" stroke="black" d="M174,-368.8C174,-357.16 174,-341.55 174,-328.24"/>
<polygon fill="black" stroke="black" points="177.5,-328.18 174,-318.18 170.5,-328.18 177.5,-328.18"/>
<text text-anchor="middle" x="184" y="-339.8" font-family="Times New Roman,serif" font-size="14.00">fills</text>
</g>
<!-- codebase -->
<g id="node15" class="node">
<title>codebase</title>
<g id="a_node15"><a xlink:href="https://www.github.com/unhm-programming-team" xlink:title="Code Base" target="_blank">
<polygon fill="none" stroke="black" points="594,-492 516,-492 516,-456 594,-456 594,-492"/>
<text text-anchor="middle" x="555" y="-470.3" font-family="Times New Roman,serif" font-size="14.00">Code Base</text>
</a>
</g>
</g>
<!-- codebase&#45;&gt;production -->
<g id="edge19" class="edge">
<title>codebase&#45;&gt;production</title>
<path fill="none" stroke="black" d="M542.45,-455.8C533.55,-443.59 521.44,-426.99 511.44,-413.28"/>
<polygon fill="black" stroke="black" points="514.25,-411.19 505.53,-405.18 508.59,-415.32 514.25,-411.19"/>
</g>
<!-- autodoc -->
<g id="node16" class="node">
<title>autodoc</title>
<g id="a_node16"><a xlink:href="https://www.sphinx-doc.org/en/master/usage/extensions/autodoc.html" xlink:title="sphinx&#45;autodoc" target="_blank">
<polygon fill="none" stroke="black" points="663,-405 559,-405 559,-369 663,-369 663,-405"/>
<text text-anchor="middle" x="611" y="-383.3" font-family="Times New Roman,serif" font-size="14.00">sphinx&#45;autodoc</text>
</a>
</g>
</g>
<!-- codebase&#45;&gt;autodoc -->
<g id="edge15" class="edge">
<title>codebase&#45;&gt;autodoc</title>
<path fill="none" stroke="black" d="M566.33,-455.8C574.3,-443.7 585.11,-427.3 594.09,-413.67"/>
<polygon fill="black" stroke="black" points="597.11,-415.45 599.68,-405.18 591.26,-411.6 597.11,-415.45"/>
<text text-anchor="middle" x="598" y="-426.8" font-family="Times New Roman,serif" font-size="14.00">doc</text>
</g>
<!-- sphinx -->
<g id="node17" class="node">
<title>sphinx</title>
<g id="a_node17"><a xlink:href="https://www.sphinx-doc.org" xlink:title="sphinx documentation" target="_blank">
<polygon fill="none" stroke="black" points="689,-318 549,-318 549,-282 689,-282 689,-318"/>
<text text-anchor="middle" x="619" y="-296.3" font-family="Times New Roman,serif" font-size="14.00">sphinx documentation</text>
</a>
</g>
</g>
<!-- autodoc&#45;&gt;sphinx -->
<g id="edge16" class="edge">
<title>autodoc&#45;&gt;sphinx</title>
<path fill="none" stroke="black" d="M612.62,-368.8C613.71,-357.16 615.18,-341.55 616.44,-328.24"/>
<polygon fill="black" stroke="black" points="619.93,-328.46 617.38,-318.18 612.96,-327.8 619.93,-328.46"/>
<text text-anchor="middle" x="645" y="-339.8" font-family="Times New Roman,serif" font-size="14.00">made with</text>
</g>
</g>
</svg>
