<?xml version="1.0" encoding="UTF-8" standalone="no"?>
<!DOCTYPE svg PUBLIC "-//W3C//DTD SVG 1.1//EN"
 "http://www.w3.org/Graphics/SVG/1.1/DTD/svg11.dtd">
<!-- Generated by graphviz version 2.47.1 (20210417.1919)
 -->
<!-- Title: foo Pages: 1 -->
<svg width="526pt" height="131pt"
 viewBox="0.00 0.00 526.39 131.00" xmlns="http://www.w3.org/2000/svg" xmlns:xlink="http://www.w3.org/1999/xlink">
<g id="graph0" class="graph" transform="scale(1 1) rotate(0) translate(4 127)">
<title>foo</title>
<polygon fill="white" stroke="transparent" points="-4,4 -4,-127 522.39,-127 522.39,4 -4,4"/>
<!-- reddit -->
<g id="node1" class="node">
<title>reddit</title>
<ellipse fill="none" stroke="black" cx="159" cy="-105" rx="53.89" ry="18"/>
<text text-anchor="middle" x="159" y="-101.3" font-family="Times New Roman,serif" font-size="14.00">Reddit Data</text>
</g>
<!-- redditAPI -->
<g id="node2" class="node">
<title>redditAPI</title>
<g id="a_node2"><a xlink:href="https://www.reddit.com/dev/api" xlink:title="Reddit API" target="_blank">
<ellipse fill="none" stroke="black" cx="52" cy="-18" rx="51.99" ry="18"/>
<text text-anchor="middle" x="52" y="-14.3" font-family="Times New Roman,serif" font-size="14.00">Reddit API</text>
</a>
</g>
</g>
<!-- reddit&#45;&gt;redditAPI -->
<g id="edge1" class="edge">
<title>reddit&#45;&gt;redditAPI</title>
<path fill="none" stroke="black" d="M128.82,-89.93C117.95,-84.19 105.93,-77.01 96,-69 86.85,-61.63 78.04,-52.24 70.73,-43.6"/>
<polygon fill="black" stroke="black" points="73.26,-41.16 64.23,-35.62 67.84,-45.58 73.26,-41.16"/>
<text text-anchor="middle" x="134" y="-57.8" font-family="Times New Roman,serif" font-size="14.00">acquired with</text>
</g>
<!-- redditAPIRules -->
<g id="node3" class="node">
<title>redditAPIRules</title>
<g id="a_node3"><a xlink:href="https://github.com/reddit-archive/reddit/wiki/API" xlink:title="Reddit API Rules" target="_blank">
<ellipse fill="none" stroke="black" cx="197" cy="-18" rx="75.29" ry="18"/>
<text text-anchor="middle" x="197" y="-14.3" font-family="Times New Roman,serif" font-size="14.00">Reddit API Rules</text>
</a>
</g>
</g>
<!-- reddit&#45;&gt;redditAPIRules -->
<g id="edge2" class="edge">
<title>reddit&#45;&gt;redditAPIRules</title>
<path fill="none" stroke="black" d="M166.69,-86.8C171.99,-74.93 179.15,-58.93 185.17,-45.45"/>
<polygon fill="black" stroke="black" points="188.43,-46.73 189.32,-36.18 182.04,-43.88 188.43,-46.73"/>
<text text-anchor="middle" x="202" y="-57.8" font-family="Times New Roman,serif" font-size="14.00">follows</text>
</g>
<!-- documentation -->
<g id="node4" class="node">
<title>documentation</title>
<ellipse fill="none" stroke="black" cx="363" cy="-105" rx="64.19" ry="18"/>
<text text-anchor="middle" x="363" y="-101.3" font-family="Times New Roman,serif" font-size="14.00">documentation</text>
</g>
<!-- sphinx -->
<g id="node5" class="node">
<title>sphinx</title>
<g id="a_node5"><a xlink:href="https://www.sphinx-doc.org" xlink:title="sphinx" target="_blank">
<ellipse fill="none" stroke="black" cx="363" cy="-18" rx="34.39" ry="18"/>
<text text-anchor="middle" x="363" y="-14.3" font-family="Times New Roman,serif" font-size="14.00">sphinx</text>
</a>
</g>
</g>
<!-- documentation&#45;&gt;sphinx -->
<g id="edge3" class="edge">
<title>documentation&#45;&gt;sphinx</title>
<path fill="none" stroke="black" d="M363,-86.8C363,-75.16 363,-59.55 363,-46.24"/>
<polygon fill="black" stroke="black" points="366.5,-46.18 363,-36.18 359.5,-46.18 366.5,-46.18"/>
<text text-anchor="middle" x="403.5" y="-57.8" font-family="Times New Roman,serif" font-size="14.00">generated with</text>
</g>
<!-- django -->
<g id="node6" class="node">
<title>django</title>
<g id="a_node6"><a xlink:href="https://docs.djangoproject.com/en/3.2/" xlink:title="Django" target="_blank">
<ellipse fill="none" stroke="black" cx="482" cy="-105" rx="36.29" ry="18"/>
<text text-anchor="middle" x="482" y="-101.3" font-family="Times New Roman,serif" font-size="14.00">Django</text>
</a>
</g>
</g>
</g>
</svg>
