<?xml version="1.0" encoding="UTF-8" standalone="no"?>
<!DOCTYPE svg PUBLIC "-//W3C//DTD SVG 1.1//EN"
 "http://www.w3.org/Graphics/SVG/1.1/DTD/svg11.dtd">
<!-- Generated by graphviz version 2.47.1 (20210417.1919)
 -->
<!-- Title: legend Pages: 1 -->
<svg width="499pt" height="67pt"
 viewBox="0.00 0.00 498.79 67.00" xmlns="http://www.w3.org/2000/svg" xmlns:xlink="http://www.w3.org/1999/xlink">
<g id="graph0" class="graph" transform="scale(1 1) rotate(0) translate(4 63)">
<title>legend</title>
<polygon fill="white" stroke="transparent" points="-4,4 -4,-63 494.79,-63 494.79,4 -4,4"/>
<text text-anchor="middle" x="245.4" y="-7.8" font-family="Times New Roman,serif" font-size="14.00">Legend</text>
<!-- blue -->
<!-- technology -->
<g id="node2" class="node">
<title>technology</title>
<path fill="#1f0477" stroke="black" d="M306.29,-55.73C306.29,-57.53 288.81,-59 267.29,-59 245.77,-59 228.29,-57.53 228.29,-55.73 228.29,-55.73 228.29,-26.27 228.29,-26.27 228.29,-24.47 245.77,-23 267.29,-23 288.81,-23 306.29,-24.47 306.29,-26.27 306.29,-26.27 306.29,-55.73 306.29,-55.73"/>
<path fill="none" stroke="black" d="M306.29,-55.73C306.29,-53.92 288.81,-52.45 267.29,-52.45 245.77,-52.45 228.29,-53.92 228.29,-55.73"/>
<text text-anchor="middle" x="267.29" y="-37.3" font-family="Times New Roman,serif" font-size="14.00" fill="white">technology</text>
</g>
<!-- ourcode -->
<g id="node3" class="node">
<title>ourcode</title>
<ellipse fill="#e5e6ce" stroke="black" cx="368.29" cy="-41" rx="43.59" ry="18"/>
<text text-anchor="middle" x="368.29" y="-37.3" font-family="Times New Roman,serif" font-size="14.00">our code</text>
</g>
<!-- process -->
<g id="node4" class="node">
<title>process</title>
<polygon fill="none" stroke="black" points="490.79,-59 429.79,-59 429.79,-55 425.79,-55 425.79,-51 429.79,-51 429.79,-31 425.79,-31 425.79,-27 429.79,-27 429.79,-23 490.79,-23 490.79,-59"/>
<polyline fill="none" stroke="black" points="429.79,-55 433.79,-55 433.79,-51 429.79,-51 "/>
<polyline fill="none" stroke="black" points="429.79,-31 433.79,-31 433.79,-27 429.79,-27 "/>
<text text-anchor="middle" x="460.29" y="-37.3" font-family="Times New Roman,serif" font-size="14.00">process</text>
</g>
</g>
</svg>
