<?xml version="1.0" encoding="UTF-8" standalone="no"?>
<!DOCTYPE svg PUBLIC "-//W3C//DTD SVG 1.1//EN"
 "http://www.w3.org/Graphics/SVG/1.1/DTD/svg11.dtd">
<!-- Generated by graphviz version 2.47.1 (20210417.1919)
 -->
<!-- Title: foo Pages: 1 -->
<svg width="656pt" height="131pt"
 viewBox="0.00 0.00 656.24 131.00" xmlns="http://www.w3.org/2000/svg" xmlns:xlink="http://www.w3.org/1999/xlink">
<g id="graph0" class="graph" transform="scale(1 1) rotate(0) translate(4 127)">
<title>foo</title>
<polygon fill="white" stroke="transparent" points="-4,4 -4,-127 652.24,-127 652.24,4 -4,4"/>
<!-- reddit -->
<g id="node1" class="node">
<title>reddit</title>
<ellipse fill="none" stroke="black" cx="259.84" cy="-105" rx="53.89" ry="18"/>
<text text-anchor="middle" x="259.84" y="-101.3" font-family="Times New Roman,serif" font-size="14.00">Reddit Data</text>
</g>
<!-- redditAPI -->
<g id="node2" class="node">
<title>redditAPI</title>
<g id="a_node2"><a xlink:href="https://www.reddit.com/dev/api" xlink:title="Reddit API Documentation" target="_blank">
<ellipse fill="none" stroke="black" cx="109.84" cy="-18" rx="109.68" ry="18"/>
<text text-anchor="middle" x="109.84" y="-14.3" font-family="Times New Roman,serif" font-size="14.00">Reddit API Documentation</text>
</a>
</g>
</g>
<!-- reddit&#45;&gt;redditAPI -->
<g id="edge1" class="edge">
<title>reddit&#45;&gt;redditAPI</title>
<path fill="none" stroke="black" d="M233.71,-89.19C209.88,-75.69 174.39,-55.58 147.5,-40.34"/>
<polygon fill="black" stroke="black" points="149.17,-37.26 138.74,-35.38 145.71,-43.35 149.17,-37.26"/>
<text text-anchor="middle" x="197.84" y="-57.8" font-family="Times New Roman,serif" font-size="14.00">ri</text>
</g>
<!-- redditAPIRules -->
<g id="node3" class="node">
<title>redditAPIRules</title>
<g id="a_node3"><a xlink:href="https://github.com/reddit-archive/reddit/wiki/API" xlink:title="Reddit API Rules" target="_blank">
<ellipse fill="none" stroke="black" cx="312.84" cy="-18" rx="75.29" ry="18"/>
<text text-anchor="middle" x="312.84" y="-14.3" font-family="Times New Roman,serif" font-size="14.00">Reddit API Rules</text>
</a>
</g>
</g>
<!-- reddit&#45;&gt;redditAPIRules -->
<g id="edge2" class="edge">
<title>reddit&#45;&gt;redditAPIRules</title>
<path fill="none" stroke="black" d="M270.31,-87.21C277.88,-75.06 288.25,-58.43 296.86,-44.63"/>
<polygon fill="black" stroke="black" points="299.89,-46.39 302.21,-36.05 293.95,-42.68 299.89,-46.39"/>
</g>
<!-- documentation -->
<g id="node4" class="node">
<title>documentation</title>
<ellipse fill="none" stroke="black" cx="492.84" cy="-105" rx="64.19" ry="18"/>
<text text-anchor="middle" x="492.84" y="-101.3" font-family="Times New Roman,serif" font-size="14.00">documentation</text>
</g>
<!-- sphinx -->
<g id="node5" class="node">
<title>sphinx</title>
<g id="a_node5"><a xlink:href="https://www.sphinx-doc.org" xlink:title="sphinx" target="_blank">
<ellipse fill="none" stroke="black" cx="492.84" cy="-18" rx="34.39" ry="18"/>
<text text-anchor="middle" x="492.84" y="-14.3" font-family="Times New Roman,serif" font-size="14.00">sphinx</text>
</a>
</g>
</g>
<!-- documentation&#45;&gt;sphinx -->
<g id="edge3" class="edge">
<title>documentation&#45;&gt;sphinx</title>
<path fill="none" stroke="black" d="M492.84,-86.8C492.84,-75.16 492.84,-59.55 492.84,-46.24"/>
<polygon fill="black" stroke="black" points="496.34,-46.18 492.84,-36.18 489.34,-46.18 496.34,-46.18"/>
</g>
<!-- django -->
<g id="node6" class="node">
<title>django</title>
<g id="a_node6"><a xlink:href="https://docs.djangoproject.com/en/3.2/" xlink:title="Django" target="_blank">
<ellipse fill="none" stroke="black" cx="611.84" cy="-105" rx="36.29" ry="18"/>
<text text-anchor="middle" x="611.84" y="-101.3" font-family="Times New Roman,serif" font-size="14.00">Django</text>
</a>
</g>
</g>
</g>
</svg>
