<?xml version="1.0" encoding="UTF-8" standalone="no"?>
<!DOCTYPE svg PUBLIC "-//W3C//DTD SVG 1.1//EN"
 "http://www.w3.org/Graphics/SVG/1.1/DTD/svg11.dtd">
<!-- Generated by graphviz version 2.47.1 (20210417.1919)
 -->
<!-- Title: legend Pages: 1 -->
<svg width="271pt" height="67pt"
 viewBox="0.00 0.00 270.50 67.00" xmlns="http://www.w3.org/2000/svg" xmlns:xlink="http://www.w3.org/1999/xlink">
<g id="graph0" class="graph" transform="scale(1 1) rotate(0) translate(4 63)">
<title>legend</title>
<polygon fill="white" stroke="transparent" points="-4,4 -4,-63 266.5,-63 266.5,4 -4,4"/>
<text text-anchor="middle" x="131.25" y="-7.8" font-family="Times New Roman,serif" font-size="14.00">Legend</text>
<!-- technology -->
<g id="node1" class="node">
<title>technology</title>
<path fill="#1f0477" stroke="black" d="M78,-55.73C78,-57.53 60.52,-59 39,-59 17.48,-59 0,-57.53 0,-55.73 0,-55.73 0,-26.27 0,-26.27 0,-24.47 17.48,-23 39,-23 60.52,-23 78,-24.47 78,-26.27 78,-26.27 78,-55.73 78,-55.73"/>
<path fill="none" stroke="black" d="M78,-55.73C78,-53.92 60.52,-52.45 39,-52.45 17.48,-52.45 0,-53.92 0,-55.73"/>
<text text-anchor="middle" x="39" y="-37.3" font-family="Times New Roman,serif" font-size="14.00" fill="white">technology</text>
</g>
<!-- ourcode -->
<g id="node2" class="node">
<title>ourcode</title>
<ellipse fill="#e5e6ce" stroke="black" cx="140" cy="-41" rx="43.59" ry="18"/>
<text text-anchor="middle" x="140" y="-37.3" font-family="Times New Roman,serif" font-size="14.00">our code</text>
</g>
<!-- process -->
<g id="node3" class="node">
<title>process</title>
<polygon fill="none" stroke="black" points="262.5,-59 201.5,-59 201.5,-55 197.5,-55 197.5,-51 201.5,-51 201.5,-31 197.5,-31 197.5,-27 201.5,-27 201.5,-23 262.5,-23 262.5,-59"/>
<polyline fill="none" stroke="black" points="201.5,-55 205.5,-55 205.5,-51 201.5,-51 "/>
<polyline fill="none" stroke="black" points="201.5,-31 205.5,-31 205.5,-27 201.5,-27 "/>
<text text-anchor="middle" x="232" y="-37.3" font-family="Times New Roman,serif" font-size="14.00">process</text>
</g>
</g>
</svg>
