<?xml version="1.0" encoding="UTF-8" standalone="no"?>
<!DOCTYPE svg PUBLIC "-//W3C//DTD SVG 1.1//EN"
 "http://www.w3.org/Graphics/SVG/1.1/DTD/svg11.dtd">
<!-- Generated by graphviz version 2.47.1 (20210417.1919)
 -->
<!-- Title: legend Pages: 1 -->
<svg width="271pt" height="44pt"
 viewBox="0.00 0.00 270.50 44.00" xmlns="http://www.w3.org/2000/svg" xmlns:xlink="http://www.w3.org/1999/xlink">
<g id="graph0" class="graph" transform="scale(1 1) rotate(0) translate(4 40)">
<title>legend</title>
<polygon fill="white" stroke="transparent" points="-4,4 -4,-40 266.5,-40 266.5,4 -4,4"/>
<!-- technology -->
<g id="node1" class="node">
<title>technology</title>
<path fill="#8b9fe0" stroke="black" d="M78,-32.73C78,-34.53 60.52,-36 39,-36 17.48,-36 0,-34.53 0,-32.73 0,-32.73 0,-3.27 0,-3.27 0,-1.47 17.48,0 39,0 60.52,0 78,-1.47 78,-3.27 78,-3.27 78,-32.73 78,-32.73"/>
<path fill="none" stroke="black" d="M78,-32.73C78,-30.92 60.52,-29.45 39,-29.45 17.48,-29.45 0,-30.92 0,-32.73"/>
<text text-anchor="middle" x="39" y="-14.3" font-family="Times New Roman,serif" font-size="14.00">technology</text>
</g>
<!-- ourcode -->
<g id="node2" class="node">
<title>ourcode</title>
<ellipse fill="#e5e6ce" stroke="black" cx="140" cy="-18" rx="43.59" ry="18"/>
<text text-anchor="middle" x="140" y="-14.3" font-family="Times New Roman,serif" font-size="14.00">our code</text>
</g>
<!-- process -->
<g id="node3" class="node">
<title>process</title>
<polygon fill="none" stroke="black" points="262.5,-36 201.5,-36 201.5,-32 197.5,-32 197.5,-28 201.5,-28 201.5,-8 197.5,-8 197.5,-4 201.5,-4 201.5,0 262.5,0 262.5,-36"/>
<polyline fill="none" stroke="black" points="201.5,-32 205.5,-32 205.5,-28 201.5,-28 "/>
<polyline fill="none" stroke="black" points="201.5,-8 205.5,-8 205.5,-4 201.5,-4 "/>
<text text-anchor="middle" x="232" y="-14.3" font-family="Times New Roman,serif" font-size="14.00">process</text>
</g>
</g>
</svg>
