<?xml version="1.0" encoding="UTF-8" standalone="no"?>
<!DOCTYPE svg PUBLIC "-//W3C//DTD SVG 1.1//EN"
 "http://www.w3.org/Graphics/SVG/1.1/DTD/svg11.dtd">
<!-- Generated by graphviz version 2.47.1 (20210417.1919)
 -->
<!-- Title: techstack Pages: 1 -->
<svg width="697pt" height="500pt"
 viewBox="0.00 0.00 697.00 500.00" xmlns="http://www.w3.org/2000/svg" xmlns:xlink="http://www.w3.org/1999/xlink">
<g id="graph0" class="graph" transform="scale(1 1) rotate(0) translate(4 496)">
<title>techstack</title>
<polygon fill="white" stroke="transparent" points="-4,4 -4,-496 693,-496 693,4 -4,4"/>
<!-- caller -->
<g id="node1" class="node">
<title>caller</title>
<g id="a_node1"><a xlink:href="https://www.digitalocean.com/community/tutorials/how-to-use-web-apis-in-python-3" xlink:title="Scheduled API calls" target="_blank">
<polygon fill="none" stroke="black" points="183,-492 53,-492 53,-488 49,-488 49,-484 53,-484 53,-464 49,-464 49,-460 53,-460 53,-456 183,-456 183,-492"/>
<polyline fill="none" stroke="black" points="53,-488 57,-488 57,-484 53,-484 "/>
<polyline fill="none" stroke="black" points="53,-464 57,-464 57,-460 53,-460 "/>
<text text-anchor="middle" x="118" y="-470.3" font-family="Times New Roman,serif" font-size="14.00">Scheduled API calls</text>
</a>
</g>
</g>
<!-- processor -->
<g id="node5" class="node">
<title>processor</title>
<polygon fill="none" stroke="black" points="233.5,-405 118.5,-405 118.5,-401 114.5,-401 114.5,-397 118.5,-397 118.5,-377 114.5,-377 114.5,-373 118.5,-373 118.5,-369 233.5,-369 233.5,-405"/>
<polyline fill="none" stroke="black" points="118.5,-401 122.5,-401 122.5,-397 118.5,-397 "/>
<polyline fill="none" stroke="black" points="118.5,-377 122.5,-377 122.5,-373 118.5,-373 "/>
<text text-anchor="middle" x="176" y="-383.3" font-family="Times New Roman,serif" font-size="14.00">Process API data</text>
</g>
<!-- caller&#45;&gt;processor -->
<g id="edge13" class="edge">
<title>caller&#45;&gt;processor</title>
<path fill="none" stroke="black" d="M129.74,-455.8C137.99,-443.7 149.18,-427.3 158.49,-413.67"/>
<polygon fill="black" stroke="black" points="161.53,-415.41 164.28,-405.18 155.75,-411.46 161.53,-415.41"/>
<text text-anchor="middle" x="179.5" y="-426.8" font-family="Times New Roman,serif" font-size="14.00">processes</text>
</g>
<!-- reddit -->
<g id="node6" class="node">
<title>reddit</title>
<g id="a_node6"><a xlink:href="https://www.reddit.com/dev/api" xlink:title="Reddit API" target="_blank">
<path fill="#1f0477" stroke="black" d="M99,-401.73C99,-403.53 81.07,-405 59,-405 36.93,-405 19,-403.53 19,-401.73 19,-401.73 19,-372.27 19,-372.27 19,-370.47 36.93,-369 59,-369 81.07,-369 99,-370.47 99,-372.27 99,-372.27 99,-401.73 99,-401.73"/>
<path fill="none" stroke="black" d="M99,-401.73C99,-399.92 81.07,-398.45 59,-398.45 36.93,-398.45 19,-399.92 19,-401.73"/>
<text text-anchor="middle" x="59" y="-383.3" font-family="Times New Roman,serif" font-size="14.00" fill="white">Reddit API</text>
</a>
</g>
</g>
<!-- caller&#45;&gt;reddit -->
<g id="edge12" class="edge">
<title>caller&#45;&gt;reddit</title>
<path fill="none" stroke="black" d="M106.06,-455.8C97.66,-443.7 86.28,-427.3 76.82,-413.67"/>
<polygon fill="black" stroke="black" points="79.5,-411.39 70.92,-405.18 73.75,-415.39 79.5,-411.39"/>
<text text-anchor="middle" x="113" y="-426.8" font-family="Times New Roman,serif" font-size="14.00">queries</text>
</g>
<!-- redditAPIRules -->
<g id="node2" class="node">
<title>redditAPIRules</title>
<g id="a_node2"><a xlink:href="https://github.com/reddit-archive/reddit/wiki/API" xlink:title="Reddit API Rules" target="_blank">
<polygon fill="none" stroke="black" points="116,-318 0,-318 0,-314 -4,-314 -4,-310 0,-310 0,-290 -4,-290 -4,-286 0,-286 0,-282 116,-282 116,-318"/>
<polyline fill="none" stroke="black" points="0,-314 4,-314 4,-310 0,-310 "/>
<polyline fill="none" stroke="black" points="0,-290 4,-290 4,-286 0,-286 "/>
<text text-anchor="middle" x="58" y="-296.3" font-family="Times New Roman,serif" font-size="14.00">Reddit API Rules</text>
</a>
</g>
</g>
<!-- production -->
<g id="node3" class="node">
<title>production</title>
<polygon fill="none" stroke="black" points="585.5,-405 506.5,-405 506.5,-401 502.5,-401 502.5,-397 506.5,-397 506.5,-377 502.5,-377 502.5,-373 506.5,-373 506.5,-369 585.5,-369 585.5,-405"/>
<polyline fill="none" stroke="black" points="506.5,-401 510.5,-401 510.5,-397 506.5,-397 "/>
<polyline fill="none" stroke="black" points="506.5,-377 510.5,-377 510.5,-373 506.5,-373 "/>
<text text-anchor="middle" x="546" y="-383.3" font-family="Times New Roman,serif" font-size="14.00">Production</text>
</g>
<!-- apache -->
<g id="node9" class="node">
<title>apache</title>
<g id="a_node9"><a xlink:href="https://httpd.apache.org/" xlink:title="Apache" target="_blank">
<path fill="#1f0477" stroke="black" d="M682.5,-314.73C682.5,-316.53 669.28,-318 653,-318 636.72,-318 623.5,-316.53 623.5,-314.73 623.5,-314.73 623.5,-285.27 623.5,-285.27 623.5,-283.47 636.72,-282 653,-282 669.28,-282 682.5,-283.47 682.5,-285.27 682.5,-285.27 682.5,-314.73 682.5,-314.73"/>
<path fill="none" stroke="black" d="M682.5,-314.73C682.5,-312.92 669.28,-311.45 653,-311.45 636.72,-311.45 623.5,-312.92 623.5,-314.73"/>
<text text-anchor="middle" x="653" y="-296.3" font-family="Times New Roman,serif" font-size="14.00" fill="white">Apache</text>
</a>
</g>
</g>
<!-- production&#45;&gt;apache -->
<g id="edge17" class="edge">
<title>production&#45;&gt;apache</title>
<path fill="none" stroke="black" d="M585.76,-371.18C606.1,-363.32 627.35,-354.57 631,-351 637.54,-344.62 642.27,-335.96 645.63,-327.65"/>
<polygon fill="black" stroke="black" points="648.94,-328.79 648.97,-318.19 642.34,-326.46 648.94,-328.79"/>
<text text-anchor="middle" x="665" y="-339.8" font-family="Times New Roman,serif" font-size="14.00">backend</text>
</g>
<!-- modwsgi -->
<g id="node10" class="node">
<title>modwsgi</title>
<g id="a_node10"><a xlink:href="https://modwsgi.readthedocs.io/en/develop/" xlink:title="mod_wsgi" target="_blank">
<path fill="#1f0477" stroke="black" d="M587.5,-314.73C587.5,-316.53 570.69,-318 550,-318 529.31,-318 512.5,-316.53 512.5,-314.73 512.5,-314.73 512.5,-285.27 512.5,-285.27 512.5,-283.47 529.31,-282 550,-282 570.69,-282 587.5,-283.47 587.5,-285.27 587.5,-285.27 587.5,-314.73 587.5,-314.73"/>
<path fill="none" stroke="black" d="M587.5,-314.73C587.5,-312.92 570.69,-311.45 550,-311.45 529.31,-311.45 512.5,-312.92 512.5,-314.73"/>
<text text-anchor="middle" x="550" y="-296.3" font-family="Times New Roman,serif" font-size="14.00" fill="white">mod_wsgi</text>
</a>
</g>
</g>
<!-- production&#45;&gt;modwsgi -->
<g id="edge18" class="edge">
<title>production&#45;&gt;modwsgi</title>
<path fill="none" stroke="black" d="M546.81,-368.8C547.36,-357.16 548.09,-341.55 548.72,-328.24"/>
<polygon fill="black" stroke="black" points="552.22,-328.33 549.19,-318.18 545.23,-328 552.22,-328.33"/>
<text text-anchor="middle" x="589" y="-339.8" font-family="Times New Roman,serif" font-size="14.00">python/apache</text>
</g>
<!-- testing -->
<g id="node4" class="node">
<title>testing</title>
<polygon fill="none" stroke="black" points="662,-405 604,-405 604,-401 600,-401 600,-397 604,-397 604,-377 600,-377 600,-373 604,-373 604,-369 662,-369 662,-405"/>
<polyline fill="none" stroke="black" points="604,-401 608,-401 608,-397 604,-397 "/>
<polyline fill="none" stroke="black" points="604,-377 608,-377 608,-373 604,-373 "/>
<text text-anchor="middle" x="633" y="-383.3" font-family="Times New Roman,serif" font-size="14.00">Testing</text>
</g>
<!-- database -->
<g id="node15" class="node">
<title>database</title>
<ellipse fill="#e5e6ce" stroke="black" cx="178" cy="-300" rx="44.39" ry="18"/>
<text text-anchor="middle" x="178" y="-296.3" font-family="Times New Roman,serif" font-size="14.00" fill="white">Database</text>
</g>
<!-- processor&#45;&gt;database -->
<g id="edge14" class="edge">
<title>processor&#45;&gt;database</title>
<path fill="none" stroke="black" d="M176.4,-368.8C176.68,-357.16 177.05,-341.55 177.36,-328.24"/>
<polygon fill="black" stroke="black" points="180.86,-328.26 177.6,-318.18 173.86,-328.09 180.86,-328.26"/>
<text text-anchor="middle" x="188" y="-339.8" font-family="Times New Roman,serif" font-size="14.00">fills</text>
</g>
<!-- reddit&#45;&gt;redditAPIRules -->
<g id="edge1" class="edge">
<title>reddit&#45;&gt;redditAPIRules</title>
<path fill="none" stroke="black" d="M58.8,-368.8C58.66,-357.16 58.48,-341.55 58.32,-328.24"/>
<polygon fill="black" stroke="black" points="61.82,-328.13 58.2,-318.18 54.82,-328.22 61.82,-328.13"/>
</g>
<!-- django -->
<g id="node7" class="node">
<title>django</title>
<g id="a_node7"><a xlink:href="https://docs.djangoproject.com/en/3.2/" xlink:title="Django" target="_blank">
<path fill="#1f0477" stroke="black" d="M316,-401.73C316,-403.53 303.45,-405 288,-405 272.55,-405 260,-403.53 260,-401.73 260,-401.73 260,-372.27 260,-372.27 260,-370.47 272.55,-369 288,-369 303.45,-369 316,-370.47 316,-372.27 316,-372.27 316,-401.73 316,-401.73"/>
<path fill="none" stroke="black" d="M316,-401.73C316,-399.92 303.45,-398.45 288,-398.45 272.55,-398.45 260,-399.92 260,-401.73"/>
<text text-anchor="middle" x="288" y="-383.3" font-family="Times New Roman,serif" font-size="14.00" fill="white">Django</text>
</a>
</g>
</g>
<!-- models -->
<g id="node14" class="node">
<title>models</title>
<g id="a_node14"><a xlink:href="https://docs.djangoproject.com/en/3.2/topics/db/models/" xlink:title="Models" target="_blank">
<ellipse fill="#e5e6ce" stroke="black" cx="220" cy="-192" rx="38.19" ry="18"/>
<text text-anchor="middle" x="220" y="-188.3" font-family="Times New Roman,serif" font-size="14.00" fill="white">Models</text>
</a>
</g>
</g>
<!-- django&#45;&gt;models -->
<g id="edge6" class="edge">
<title>django&#45;&gt;models</title>
<path fill="none" stroke="black" d="M280.74,-368.66C278.48,-363.06 276.05,-356.8 274,-351 254.92,-297.06 256.38,-281.46 236,-228 234.89,-225.1 233.66,-222.09 232.38,-219.12"/>
<polygon fill="black" stroke="black" points="235.54,-217.6 228.26,-209.9 229.15,-220.46 235.54,-217.6"/>
</g>
<!-- django&#45;&gt;database -->
<g id="edge7" class="edge">
<title>django&#45;&gt;database</title>
<path fill="none" stroke="black" d="M262.98,-370.03C254.28,-364.25 244.56,-357.54 236,-351 224.74,-342.41 212.81,-332.31 202.72,-323.44"/>
<polygon fill="black" stroke="black" points="204.86,-320.67 195.06,-316.65 200.22,-325.91 204.86,-320.67"/>
</g>
<!-- view -->
<g id="node16" class="node">
<title>view</title>
<g id="a_node16"><a xlink:href="https://docs.djangoproject.com/en/3.2/#the-view-layer" xlink:title="View" target="_blank">
<ellipse fill="#e5e6ce" stroke="black" cx="333" cy="-246" rx="29.5" ry="18"/>
<text text-anchor="middle" x="333" y="-242.3" font-family="Times New Roman,serif" font-size="14.00" fill="white">View</text>
</a>
</g>
</g>
<!-- django&#45;&gt;view -->
<g id="edge5" class="edge">
<title>django&#45;&gt;view</title>
<path fill="none" stroke="black" d="M295.29,-368.67C297.55,-363.07 299.98,-356.81 302,-351 311.01,-325.12 319.79,-295.08 325.69,-273.96"/>
<polygon fill="black" stroke="black" points="329.13,-274.66 328.42,-264.08 322.38,-272.79 329.13,-274.66"/>
</g>
<!-- template -->
<g id="node17" class="node">
<title>template</title>
<g id="a_node17"><a xlink:href="https://docs.djangoproject.com/en/3.2/topics/templates/" xlink:title="Template" target="_blank">
<ellipse fill="#e5e6ce" stroke="black" cx="288" cy="-105" rx="44.39" ry="18"/>
<text text-anchor="middle" x="288" y="-101.3" font-family="Times New Roman,serif" font-size="14.00" fill="white">Template</text>
</a>
</g>
</g>
<!-- django&#45;&gt;template -->
<g id="edge8" class="edge">
<title>django&#45;&gt;template</title>
<path fill="none" stroke="black" d="M288,-368.91C288,-321.95 288,-190.65 288,-133.34"/>
<polygon fill="black" stroke="black" points="291.5,-133.23 288,-123.23 284.5,-133.23 291.5,-133.23"/>
</g>
<!-- sqlite -->
<g id="node8" class="node">
<title>sqlite</title>
<g id="a_node8"><a xlink:href="https://www.sqlite.org/index.html" xlink:title="SQLite" target="_blank">
<path fill="#1f0477" stroke="black" d="M164,-206.73C164,-208.53 151.45,-210 136,-210 120.55,-210 108,-208.53 108,-206.73 108,-206.73 108,-177.27 108,-177.27 108,-175.47 120.55,-174 136,-174 151.45,-174 164,-175.47 164,-177.27 164,-177.27 164,-206.73 164,-206.73"/>
<path fill="none" stroke="black" d="M164,-206.73C164,-204.92 151.45,-203.45 136,-203.45 120.55,-203.45 108,-204.92 108,-206.73"/>
<text text-anchor="middle" x="136" y="-188.3" font-family="Times New Roman,serif" font-size="14.00" fill="white">SQLite</text>
</a>
</g>
</g>
<!-- autodoc -->
<g id="node11" class="node">
<title>autodoc</title>
<g id="a_node11"><a xlink:href="https://www.sphinx-doc.org/en/master/usage/extensions/autodoc.html" xlink:title="sphinx&#45;autodoc" target="_blank">
<path fill="#1f0477" stroke="black" d="M480,-401.73C480,-403.53 456.69,-405 428,-405 399.31,-405 376,-403.53 376,-401.73 376,-401.73 376,-372.27 376,-372.27 376,-370.47 399.31,-369 428,-369 456.69,-369 480,-370.47 480,-372.27 480,-372.27 480,-401.73 480,-401.73"/>
<path fill="none" stroke="black" d="M480,-401.73C480,-399.92 456.69,-398.45 428,-398.45 399.31,-398.45 376,-399.92 376,-401.73"/>
<text text-anchor="middle" x="428" y="-383.3" font-family="Times New Roman,serif" font-size="14.00" fill="white">sphinx&#45;autodoc</text>
</a>
</g>
</g>
<!-- sphinx -->
<g id="node12" class="node">
<title>sphinx</title>
<g id="a_node12"><a xlink:href="https://www.sphinx-doc.org" xlink:title="sphinx documentation" target="_blank">
<path fill="#1f0477" stroke="black" d="M494,-314.73C494,-316.53 462.62,-318 424,-318 385.38,-318 354,-316.53 354,-314.73 354,-314.73 354,-285.27 354,-285.27 354,-283.47 385.38,-282 424,-282 462.62,-282 494,-283.47 494,-285.27 494,-285.27 494,-314.73 494,-314.73"/>
<path fill="none" stroke="black" d="M494,-314.73C494,-312.92 462.62,-311.45 424,-311.45 385.38,-311.45 354,-312.92 354,-314.73"/>
<text text-anchor="middle" x="424" y="-296.3" font-family="Times New Roman,serif" font-size="14.00" fill="white">sphinx documentation</text>
</a>
</g>
</g>
<!-- autodoc&#45;&gt;sphinx -->
<g id="edge16" class="edge">
<title>autodoc&#45;&gt;sphinx</title>
<path fill="none" stroke="black" d="M427.19,-368.8C426.64,-357.16 425.91,-341.55 425.28,-328.24"/>
<polygon fill="black" stroke="black" points="428.77,-328 424.81,-318.18 421.78,-328.33 428.77,-328"/>
<text text-anchor="middle" x="455" y="-339.8" font-family="Times New Roman,serif" font-size="14.00">made with</text>
</g>
<!-- html -->
<g id="node13" class="node">
<title>html</title>
<path fill="#1f0477" stroke="black" d="M331,-32.73C331,-34.53 311.73,-36 288,-36 264.27,-36 245,-34.53 245,-32.73 245,-32.73 245,-3.27 245,-3.27 245,-1.47 264.27,0 288,0 311.73,0 331,-1.47 331,-3.27 331,-3.27 331,-32.73 331,-32.73"/>
<path fill="none" stroke="black" d="M331,-32.73C331,-30.92 311.73,-29.45 288,-29.45 264.27,-29.45 245,-30.92 245,-32.73"/>
<text text-anchor="middle" x="288" y="-14.3" font-family="Times New Roman,serif" font-size="14.00" fill="white">HTML/CSS</text>
</g>
<!-- models&#45;&gt;template -->
<g id="edge11" class="edge">
<title>models&#45;&gt;template</title>
<path fill="none" stroke="black" d="M215.3,-174.05C213.46,-163.75 213,-150.77 219,-141 224.59,-131.89 233.37,-125.06 242.82,-119.98"/>
<polygon fill="black" stroke="black" points="244.47,-123.07 252,-115.62 241.47,-116.75 244.47,-123.07"/>
<text text-anchor="middle" x="246.5" y="-144.8" font-family="Times New Roman,serif" font-size="14.00">populates</text>
</g>
<!-- database&#45;&gt;sqlite -->
<g id="edge3" class="edge">
<title>database&#45;&gt;sqlite</title>
<path fill="none" stroke="black" d="M171.25,-281.97C164.62,-265.22 154.39,-239.41 146.66,-219.89"/>
<polygon fill="black" stroke="black" points="149.81,-218.35 142.87,-210.34 143.3,-220.93 149.81,-218.35"/>
</g>
<!-- database&#45;&gt;models -->
<g id="edge2" class="edge">
<title>database&#45;&gt;models</title>
<path fill="none" stroke="black" d="M175.12,-281.76C173.44,-266.81 173,-244.96 181,-228 183.43,-222.86 186.99,-218.14 191,-213.95"/>
<polygon fill="black" stroke="black" points="193.56,-216.34 198.53,-206.98 188.81,-211.2 193.56,-216.34"/>
<text text-anchor="middle" x="208.5" y="-242.3" font-family="Times New Roman,serif" font-size="14.00">populates</text>
</g>
<!-- view&#45;&gt;template -->
<g id="edge9" class="edge">
<title>view&#45;&gt;template</title>
<path fill="none" stroke="black" d="M328.42,-227.92C322.75,-207.18 312.53,-171.25 302,-141 301.03,-138.22 299.97,-135.33 298.88,-132.47"/>
<polygon fill="black" stroke="black" points="302.06,-131 295.15,-122.97 295.55,-133.56 302.06,-131"/>
<text text-anchor="middle" x="340" y="-188.3" font-family="Times New Roman,serif" font-size="14.00">serves</text>
</g>
<!-- template&#45;&gt;html -->
<g id="edge4" class="edge">
<title>template&#45;&gt;html</title>
<path fill="none" stroke="black" d="M286.83,-86.92C286.49,-81.22 286.17,-74.84 286,-69 285.79,-61.65 285.94,-53.69 286.23,-46.33"/>
<polygon fill="black" stroke="black" points="289.74,-46.28 286.73,-36.12 282.74,-45.94 289.74,-46.28"/>
</g>
<!-- template&#45;&gt;html -->
<g id="edge10" class="edge">
<title>template&#45;&gt;html</title>
<path fill="none" stroke="black" d="M288,-86.8C288,-75.16 288,-59.55 288,-46.24"/>
<polygon fill="black" stroke="black" points="291.5,-46.18 288,-36.18 284.5,-46.18 291.5,-46.18"/>
<text text-anchor="middle" x="314" y="-57.8" font-family="Times New Roman,serif" font-size="14.00">generates</text>
</g>
<!-- codebase -->
<g id="node18" class="node">
<title>codebase</title>
<g id="a_node18"><a xlink:href="https://www.github.com/unhm-programming-team" xlink:title="Code Base" target="_blank">
<ellipse fill="#e5e6ce" stroke="black" cx="485" cy="-474" rx="50.89" ry="18"/>
<text text-anchor="middle" x="485" y="-470.3" font-family="Times New Roman,serif" font-size="14.00" fill="white">Code Base</text>
</a>
</g>
</g>
<!-- codebase&#45;&gt;production -->
<g id="edge19" class="edge">
<title>codebase&#45;&gt;production</title>
<path fill="none" stroke="black" d="M497.05,-456.21C505.85,-443.95 517.93,-427.11 527.89,-413.24"/>
<polygon fill="black" stroke="black" points="530.78,-415.21 533.76,-405.05 525.09,-411.13 530.78,-415.21"/>
</g>
<!-- codebase&#45;&gt;testing -->
<g id="edge20" class="edge">
<title>codebase&#45;&gt;testing</title>
<path fill="none" stroke="black" d="M510.44,-458.39C533.66,-445.06 568.29,-425.17 594.82,-409.93"/>
<polygon fill="black" stroke="black" points="596.9,-412.77 603.83,-404.75 593.42,-406.7 596.9,-412.77"/>
</g>
<!-- codebase&#45;&gt;django -->
<g id="edge21" class="edge">
<title>codebase&#45;&gt;django</title>
<path fill="none" stroke="black" d="M436.51,-468.48C406.33,-464.03 367.58,-455.26 337,-438 325.87,-431.72 315.61,-422.15 307.39,-413.07"/>
<polygon fill="black" stroke="black" points="309.89,-410.61 300.72,-405.3 304.58,-415.17 309.89,-410.61"/>
<text text-anchor="middle" x="393" y="-426.8" font-family="Times New Roman,serif" font-size="14.00">mostly written using</text>
</g>
<!-- codebase&#45;&gt;autodoc -->
<g id="edge15" class="edge">
<title>codebase&#45;&gt;autodoc</title>
<path fill="none" stroke="black" d="M473.74,-456.21C465.59,-444.06 454.44,-427.43 445.19,-413.63"/>
<polygon fill="black" stroke="black" points="447.91,-411.41 439.43,-405.05 442.1,-415.3 447.91,-411.41"/>
</g>
</g>
</svg>
