<?xml version="1.0" encoding="UTF-8" standalone="no"?>
<!DOCTYPE svg PUBLIC "-//W3C//DTD SVG 1.1//EN"
 "http://www.w3.org/Graphics/SVG/1.1/DTD/svg11.dtd">
<!-- Generated by graphviz version 2.47.1 (20210417.1919)
 -->
<!-- Title: techstack Pages: 1 -->
<svg width="832pt" height="500pt"
 viewBox="0.00 0.00 831.50 500.00" xmlns="http://www.w3.org/2000/svg" xmlns:xlink="http://www.w3.org/1999/xlink">
<g id="graph0" class="graph" transform="scale(1 1) rotate(0) translate(4 496)">
<title>techstack</title>
<polygon fill="white" stroke="transparent" points="-4,4 -4,-496 827.5,-496 827.5,4 -4,4"/>
<!-- caller -->
<g id="node1" class="node">
<title>caller</title>
<g id="a_node1"><a xlink:href="https://www.digitalocean.com/community/tutorials/how-to-use-web-apis-in-python-3" xlink:title="Scheduled API calls" target="_blank">
<polygon fill="none" stroke="black" points="183,-492 53,-492 53,-488 49,-488 49,-484 53,-484 53,-464 49,-464 49,-460 53,-460 53,-456 183,-456 183,-492"/>
<polyline fill="none" stroke="black" points="53,-488 57,-488 57,-484 53,-484 "/>
<polyline fill="none" stroke="black" points="53,-464 57,-464 57,-460 53,-460 "/>
<text text-anchor="middle" x="118" y="-470.3" font-family="Times New Roman,serif" font-size="14.00">Scheduled API calls</text>
</a>
</g>
</g>
<!-- processor -->
<g id="node5" class="node">
<title>processor</title>
<polygon fill="none" stroke="black" points="233.5,-405 118.5,-405 118.5,-401 114.5,-401 114.5,-397 118.5,-397 118.5,-377 114.5,-377 114.5,-373 118.5,-373 118.5,-369 233.5,-369 233.5,-405"/>
<polyline fill="none" stroke="black" points="118.5,-401 122.5,-401 122.5,-397 118.5,-397 "/>
<polyline fill="none" stroke="black" points="118.5,-377 122.5,-377 122.5,-373 118.5,-373 "/>
<text text-anchor="middle" x="176" y="-383.3" font-family="Times New Roman,serif" font-size="14.00">Process API data</text>
</g>
<!-- caller&#45;&gt;processor -->
<g id="edge13" class="edge">
<title>caller&#45;&gt;processor</title>
<path fill="none" stroke="black" d="M129.74,-455.8C137.99,-443.7 149.18,-427.3 158.49,-413.67"/>
<polygon fill="black" stroke="black" points="161.53,-415.41 164.28,-405.18 155.75,-411.46 161.53,-415.41"/>
<text text-anchor="middle" x="179.5" y="-426.8" font-family="Times New Roman,serif" font-size="14.00">processes</text>
</g>
<!-- reddit -->
<g id="node6" class="node">
<title>reddit</title>
<g id="a_node6"><a xlink:href="https://www.reddit.com/dev/api" xlink:title="Reddit API" target="_blank">
<path fill="#1f0477" stroke="black" d="M99,-401.73C99,-403.53 81.07,-405 59,-405 36.93,-405 19,-403.53 19,-401.73 19,-401.73 19,-372.27 19,-372.27 19,-370.47 36.93,-369 59,-369 81.07,-369 99,-370.47 99,-372.27 99,-372.27 99,-401.73 99,-401.73"/>
<path fill="none" stroke="black" d="M99,-401.73C99,-399.92 81.07,-398.45 59,-398.45 36.93,-398.45 19,-399.92 19,-401.73"/>
<text text-anchor="middle" x="59" y="-383.3" font-family="Times New Roman,serif" font-size="14.00" fill="white">Reddit API</text>
</a>
</g>
</g>
<!-- caller&#45;&gt;reddit -->
<g id="edge12" class="edge">
<title>caller&#45;&gt;reddit</title>
<path fill="none" stroke="black" d="M106.06,-455.8C97.66,-443.7 86.28,-427.3 76.82,-413.67"/>
<polygon fill="black" stroke="black" points="79.5,-411.39 70.92,-405.18 73.75,-415.39 79.5,-411.39"/>
<text text-anchor="middle" x="113" y="-426.8" font-family="Times New Roman,serif" font-size="14.00">queries</text>
</g>
<!-- redditAPIRules -->
<g id="node2" class="node">
<title>redditAPIRules</title>
<g id="a_node2"><a xlink:href="https://github.com/reddit-archive/reddit/wiki/API" xlink:title="Reddit API Rules" target="_blank">
<polygon fill="none" stroke="black" points="116,-318 0,-318 0,-314 -4,-314 -4,-310 0,-310 0,-290 -4,-290 -4,-286 0,-286 0,-282 116,-282 116,-318"/>
<polyline fill="none" stroke="black" points="0,-314 4,-314 4,-310 0,-310 "/>
<polyline fill="none" stroke="black" points="0,-290 4,-290 4,-286 0,-286 "/>
<text text-anchor="middle" x="58" y="-296.3" font-family="Times New Roman,serif" font-size="14.00">Reddit API Rules</text>
</a>
</g>
</g>
<!-- production -->
<g id="node3" class="node">
<title>production</title>
<polygon fill="none" stroke="black" points="592.5,-405 513.5,-405 513.5,-401 509.5,-401 509.5,-397 513.5,-397 513.5,-377 509.5,-377 509.5,-373 513.5,-373 513.5,-369 592.5,-369 592.5,-405"/>
<polyline fill="none" stroke="black" points="513.5,-401 517.5,-401 517.5,-397 513.5,-397 "/>
<polyline fill="none" stroke="black" points="513.5,-377 517.5,-377 517.5,-373 513.5,-373 "/>
<text text-anchor="middle" x="553" y="-383.3" font-family="Times New Roman,serif" font-size="14.00">Production</text>
</g>
<!-- apache -->
<g id="node9" class="node">
<title>apache</title>
<g id="a_node9"><a xlink:href="https://httpd.apache.org/" xlink:title="Apache" target="_blank">
<path fill="#1f0477" stroke="black" d="M689.5,-314.73C689.5,-316.53 676.28,-318 660,-318 643.72,-318 630.5,-316.53 630.5,-314.73 630.5,-314.73 630.5,-285.27 630.5,-285.27 630.5,-283.47 643.72,-282 660,-282 676.28,-282 689.5,-283.47 689.5,-285.27 689.5,-285.27 689.5,-314.73 689.5,-314.73"/>
<path fill="none" stroke="black" d="M689.5,-314.73C689.5,-312.92 676.28,-311.45 660,-311.45 643.72,-311.45 630.5,-312.92 630.5,-314.73"/>
<text text-anchor="middle" x="660" y="-296.3" font-family="Times New Roman,serif" font-size="14.00" fill="white">Apache</text>
</a>
</g>
</g>
<!-- production&#45;&gt;apache -->
<g id="edge17" class="edge">
<title>production&#45;&gt;apache</title>
<path fill="none" stroke="black" d="M592.76,-371.18C613.1,-363.32 634.35,-354.57 638,-351 644.54,-344.62 649.27,-335.96 652.63,-327.65"/>
<polygon fill="black" stroke="black" points="655.94,-328.79 655.97,-318.19 649.34,-326.46 655.94,-328.79"/>
<text text-anchor="middle" x="672" y="-339.8" font-family="Times New Roman,serif" font-size="14.00">backend</text>
</g>
<!-- modwsgi -->
<g id="node10" class="node">
<title>modwsgi</title>
<g id="a_node10"><a xlink:href="https://modwsgi.readthedocs.io/en/develop/" xlink:title="mod_wsgi" target="_blank">
<path fill="#1f0477" stroke="black" d="M593.5,-314.73C593.5,-316.53 576.69,-318 556,-318 535.31,-318 518.5,-316.53 518.5,-314.73 518.5,-314.73 518.5,-285.27 518.5,-285.27 518.5,-283.47 535.31,-282 556,-282 576.69,-282 593.5,-283.47 593.5,-285.27 593.5,-285.27 593.5,-314.73 593.5,-314.73"/>
<path fill="none" stroke="black" d="M593.5,-314.73C593.5,-312.92 576.69,-311.45 556,-311.45 535.31,-311.45 518.5,-312.92 518.5,-314.73"/>
<text text-anchor="middle" x="556" y="-296.3" font-family="Times New Roman,serif" font-size="14.00" fill="white">mod_wsgi</text>
</a>
</g>
</g>
<!-- production&#45;&gt;modwsgi -->
<g id="edge18" class="edge">
<title>production&#45;&gt;modwsgi</title>
<path fill="none" stroke="black" d="M553.61,-368.8C554.02,-357.16 554.57,-341.55 555.04,-328.24"/>
<polygon fill="black" stroke="black" points="558.54,-328.29 555.39,-318.18 551.54,-328.05 558.54,-328.29"/>
<text text-anchor="middle" x="595" y="-339.8" font-family="Times New Roman,serif" font-size="14.00">python/apache</text>
</g>
<!-- testing -->
<g id="node4" class="node">
<title>testing</title>
<polygon fill="none" stroke="black" points="669,-405 611,-405 611,-401 607,-401 607,-397 611,-397 611,-377 607,-377 607,-373 611,-373 611,-369 669,-369 669,-405"/>
<polyline fill="none" stroke="black" points="611,-401 615,-401 615,-397 611,-397 "/>
<polyline fill="none" stroke="black" points="611,-377 615,-377 615,-373 611,-373 "/>
<text text-anchor="middle" x="640" y="-383.3" font-family="Times New Roman,serif" font-size="14.00">Testing</text>
</g>
<!-- database -->
<g id="node16" class="node">
<title>database</title>
<ellipse fill="#e5e6ce" stroke="black" cx="178" cy="-300" rx="44.39" ry="18"/>
<text text-anchor="middle" x="178" y="-296.3" font-family="Times New Roman,serif" font-size="14.00">Database</text>
</g>
<!-- processor&#45;&gt;database -->
<g id="edge14" class="edge">
<title>processor&#45;&gt;database</title>
<path fill="none" stroke="black" d="M176.4,-368.8C176.68,-357.16 177.05,-341.55 177.36,-328.24"/>
<polygon fill="black" stroke="black" points="180.86,-328.26 177.6,-318.18 173.86,-328.09 180.86,-328.26"/>
<text text-anchor="middle" x="188" y="-339.8" font-family="Times New Roman,serif" font-size="14.00">fills</text>
</g>
<!-- reddit&#45;&gt;redditAPIRules -->
<g id="edge1" class="edge">
<title>reddit&#45;&gt;redditAPIRules</title>
<path fill="none" stroke="black" d="M58.8,-368.8C58.66,-357.16 58.48,-341.55 58.32,-328.24"/>
<polygon fill="black" stroke="black" points="61.82,-328.13 58.2,-318.18 54.82,-328.22 61.82,-328.13"/>
</g>
<!-- django -->
<g id="node7" class="node">
<title>django</title>
<g id="a_node7"><a xlink:href="https://docs.djangoproject.com/en/3.2/" xlink:title="Django" target="_blank">
<path fill="#1f0477" stroke="black" d="M316,-401.73C316,-403.53 303.45,-405 288,-405 272.55,-405 260,-403.53 260,-401.73 260,-401.73 260,-372.27 260,-372.27 260,-370.47 272.55,-369 288,-369 303.45,-369 316,-370.47 316,-372.27 316,-372.27 316,-401.73 316,-401.73"/>
<path fill="none" stroke="black" d="M316,-401.73C316,-399.92 303.45,-398.45 288,-398.45 272.55,-398.45 260,-399.92 260,-401.73"/>
<text text-anchor="middle" x="288" y="-383.3" font-family="Times New Roman,serif" font-size="14.00" fill="white">Django</text>
</a>
</g>
</g>
<!-- models -->
<g id="node15" class="node">
<title>models</title>
<g id="a_node15"><a xlink:href="https://docs.djangoproject.com/en/3.2/topics/db/models/" xlink:title="Models" target="_blank">
<ellipse fill="#e5e6ce" stroke="black" cx="220" cy="-192" rx="38.19" ry="18"/>
<text text-anchor="middle" x="220" y="-188.3" font-family="Times New Roman,serif" font-size="14.00">Models</text>
</a>
</g>
</g>
<!-- django&#45;&gt;models -->
<g id="edge6" class="edge">
<title>django&#45;&gt;models</title>
<path fill="none" stroke="black" d="M280.74,-368.66C278.48,-363.06 276.05,-356.8 274,-351 254.92,-297.06 256.38,-281.46 236,-228 234.89,-225.1 233.66,-222.09 232.38,-219.12"/>
<polygon fill="black" stroke="black" points="235.54,-217.6 228.26,-209.9 229.15,-220.46 235.54,-217.6"/>
</g>
<!-- django&#45;&gt;database -->
<g id="edge7" class="edge">
<title>django&#45;&gt;database</title>
<path fill="none" stroke="black" d="M262.98,-370.03C254.28,-364.25 244.56,-357.54 236,-351 224.74,-342.41 212.81,-332.31 202.72,-323.44"/>
<polygon fill="black" stroke="black" points="204.86,-320.67 195.06,-316.65 200.22,-325.91 204.86,-320.67"/>
</g>
<!-- view -->
<g id="node17" class="node">
<title>view</title>
<g id="a_node17"><a xlink:href="https://docs.djangoproject.com/en/3.2/#the-view-layer" xlink:title="View" target="_blank">
<ellipse fill="#e5e6ce" stroke="black" cx="333" cy="-246" rx="29.5" ry="18"/>
<text text-anchor="middle" x="333" y="-242.3" font-family="Times New Roman,serif" font-size="14.00">View</text>
</a>
</g>
</g>
<!-- django&#45;&gt;view -->
<g id="edge5" class="edge">
<title>django&#45;&gt;view</title>
<path fill="none" stroke="black" d="M295.29,-368.67C297.55,-363.07 299.98,-356.81 302,-351 311.01,-325.12 319.79,-295.08 325.69,-273.96"/>
<polygon fill="black" stroke="black" points="329.13,-274.66 328.42,-264.08 322.38,-272.79 329.13,-274.66"/>
</g>
<!-- template -->
<g id="node18" class="node">
<title>template</title>
<g id="a_node18"><a xlink:href="https://docs.djangoproject.com/en/3.2/topics/templates/" xlink:title="Template" target="_blank">
<ellipse fill="#e5e6ce" stroke="black" cx="288" cy="-105" rx="44.39" ry="18"/>
<text text-anchor="middle" x="288" y="-101.3" font-family="Times New Roman,serif" font-size="14.00">Template</text>
</a>
</g>
</g>
<!-- django&#45;&gt;template -->
<g id="edge8" class="edge">
<title>django&#45;&gt;template</title>
<path fill="none" stroke="black" d="M288,-368.91C288,-321.95 288,-190.65 288,-133.34"/>
<polygon fill="black" stroke="black" points="291.5,-133.23 288,-123.23 284.5,-133.23 291.5,-133.23"/>
</g>
<!-- sqlite -->
<g id="node8" class="node">
<title>sqlite</title>
<g id="a_node8"><a xlink:href="https://www.sqlite.org/index.html" xlink:title="SQLite" target="_blank">
<path fill="#1f0477" stroke="black" d="M164,-206.73C164,-208.53 151.45,-210 136,-210 120.55,-210 108,-208.53 108,-206.73 108,-206.73 108,-177.27 108,-177.27 108,-175.47 120.55,-174 136,-174 151.45,-174 164,-175.47 164,-177.27 164,-177.27 164,-206.73 164,-206.73"/>
<path fill="none" stroke="black" d="M164,-206.73C164,-204.92 151.45,-203.45 136,-203.45 120.55,-203.45 108,-204.92 108,-206.73"/>
<text text-anchor="middle" x="136" y="-188.3" font-family="Times New Roman,serif" font-size="14.00" fill="white">SQLite</text>
</a>
</g>
</g>
<!-- autodoc -->
<g id="node11" class="node">
<title>autodoc</title>
<g id="a_node11"><a xlink:href="https://www.sphinx-doc.org/en/master/usage/extensions/autodoc.html" xlink:title="sphinx&#45;autodoc" target="_blank">
<path fill="#1f0477" stroke="black" d="M487,-401.73C487,-403.53 463.69,-405 435,-405 406.31,-405 383,-403.53 383,-401.73 383,-401.73 383,-372.27 383,-372.27 383,-370.47 406.31,-369 435,-369 463.69,-369 487,-370.47 487,-372.27 487,-372.27 487,-401.73 487,-401.73"/>
<path fill="none" stroke="black" d="M487,-401.73C487,-399.92 463.69,-398.45 435,-398.45 406.31,-398.45 383,-399.92 383,-401.73"/>
<text text-anchor="middle" x="435" y="-383.3" font-family="Times New Roman,serif" font-size="14.00" fill="white">sphinx&#45;autodoc</text>
</a>
</g>
</g>
<!-- sphinx -->
<g id="node12" class="node">
<title>sphinx</title>
<g id="a_node12"><a xlink:href="https://www.sphinx-doc.org" xlink:title="sphinx documentation" target="_blank">
<path fill="#1f0477" stroke="black" d="M500,-314.73C500,-316.53 468.62,-318 430,-318 391.38,-318 360,-316.53 360,-314.73 360,-314.73 360,-285.27 360,-285.27 360,-283.47 391.38,-282 430,-282 468.62,-282 500,-283.47 500,-285.27 500,-285.27 500,-314.73 500,-314.73"/>
<path fill="none" stroke="black" d="M500,-314.73C500,-312.92 468.62,-311.45 430,-311.45 391.38,-311.45 360,-312.92 360,-314.73"/>
<text text-anchor="middle" x="430" y="-296.3" font-family="Times New Roman,serif" font-size="14.00" fill="white">sphinx documentation</text>
</a>
</g>
</g>
<!-- autodoc&#45;&gt;sphinx -->
<g id="edge16" class="edge">
<title>autodoc&#45;&gt;sphinx</title>
<path fill="none" stroke="black" d="M433.99,-368.8C433.3,-357.16 432.39,-341.55 431.6,-328.24"/>
<polygon fill="black" stroke="black" points="435.09,-327.95 431.01,-318.18 428.1,-328.36 435.09,-327.95"/>
<text text-anchor="middle" x="461" y="-339.8" font-family="Times New Roman,serif" font-size="14.00">made with</text>
</g>
<!-- github -->
<g id="node14" class="node">
<title>github</title>
<path fill="#1f0477" stroke="black" d="M475.5,-206.73C475.5,-208.53 456,-210 432,-210 408,-210 388.5,-208.53 388.5,-206.73 388.5,-206.73 388.5,-177.27 388.5,-177.27 388.5,-175.47 408,-174 432,-174 456,-174 475.5,-175.47 475.5,-177.27 475.5,-177.27 475.5,-206.73 475.5,-206.73"/>
<path fill="none" stroke="black" d="M475.5,-206.73C475.5,-204.92 456,-203.45 432,-203.45 408,-203.45 388.5,-204.92 388.5,-206.73"/>
<text text-anchor="middle" x="432" y="-188.3" font-family="Times New Roman,serif" font-size="14.00" fill="white">github pages</text>
</g>
<!-- sphinx&#45;&gt;github -->
<g id="edge22" class="edge">
<title>sphinx&#45;&gt;github</title>
<path fill="none" stroke="black" d="M430.32,-281.97C430.63,-265.38 431.12,-239.88 431.48,-220.43"/>
<polygon fill="black" stroke="black" points="434.98,-220.4 431.67,-210.34 427.98,-220.27 434.98,-220.4"/>
<text text-anchor="middle" x="476" y="-242.3" font-family="Times New Roman,serif" font-size="14.00">hosted statically</text>
</g>
<!-- html -->
<g id="node13" class="node">
<title>html</title>
<path fill="#1f0477" stroke="black" d="M331,-32.73C331,-34.53 311.73,-36 288,-36 264.27,-36 245,-34.53 245,-32.73 245,-32.73 245,-3.27 245,-3.27 245,-1.47 264.27,0 288,0 311.73,0 331,-1.47 331,-3.27 331,-3.27 331,-32.73 331,-32.73"/>
<path fill="none" stroke="black" d="M331,-32.73C331,-30.92 311.73,-29.45 288,-29.45 264.27,-29.45 245,-30.92 245,-32.73"/>
<text text-anchor="middle" x="288" y="-14.3" font-family="Times New Roman,serif" font-size="14.00" fill="white">HTML/CSS</text>
</g>
<!-- models&#45;&gt;template -->
<g id="edge11" class="edge">
<title>models&#45;&gt;template</title>
<path fill="none" stroke="black" d="M215.3,-174.05C213.46,-163.75 213,-150.77 219,-141 224.59,-131.89 233.37,-125.06 242.82,-119.98"/>
<polygon fill="black" stroke="black" points="244.47,-123.07 252,-115.62 241.47,-116.75 244.47,-123.07"/>
<text text-anchor="middle" x="246.5" y="-144.8" font-family="Times New Roman,serif" font-size="14.00">populates</text>
</g>
<!-- database&#45;&gt;sqlite -->
<g id="edge3" class="edge">
<title>database&#45;&gt;sqlite</title>
<path fill="none" stroke="black" d="M171.25,-281.97C164.62,-265.22 154.39,-239.41 146.66,-219.89"/>
<polygon fill="black" stroke="black" points="149.81,-218.35 142.87,-210.34 143.3,-220.93 149.81,-218.35"/>
</g>
<!-- database&#45;&gt;models -->
<g id="edge2" class="edge">
<title>database&#45;&gt;models</title>
<path fill="none" stroke="black" d="M175.12,-281.76C173.44,-266.81 173,-244.96 181,-228 183.43,-222.86 186.99,-218.14 191,-213.95"/>
<polygon fill="black" stroke="black" points="193.56,-216.34 198.53,-206.98 188.81,-211.2 193.56,-216.34"/>
<text text-anchor="middle" x="208.5" y="-242.3" font-family="Times New Roman,serif" font-size="14.00">populates</text>
</g>
<!-- view&#45;&gt;template -->
<g id="edge9" class="edge">
<title>view&#45;&gt;template</title>
<path fill="none" stroke="black" d="M328.42,-227.92C322.75,-207.18 312.53,-171.25 302,-141 301.03,-138.22 299.97,-135.33 298.88,-132.47"/>
<polygon fill="black" stroke="black" points="302.06,-131 295.15,-122.97 295.55,-133.56 302.06,-131"/>
<text text-anchor="middle" x="341" y="-188.3" font-family="Times New Roman,serif" font-size="14.00">serves</text>
</g>
<!-- template&#45;&gt;html -->
<g id="edge4" class="edge">
<title>template&#45;&gt;html</title>
<path fill="none" stroke="black" d="M286.73,-86.88C286.17,-77.23 285.69,-64.94 286,-54 286.07,-51.44 286.18,-48.79 286.3,-46.13"/>
<polygon fill="black" stroke="black" points="289.79,-46.25 286.83,-36.08 282.8,-45.88 289.79,-46.25"/>
</g>
<!-- template&#45;&gt;html -->
<g id="edge10" class="edge">
<title>template&#45;&gt;html</title>
<path fill="none" stroke="black" d="M288,-86.8C288,-75.16 288,-59.55 288,-46.24"/>
<polygon fill="black" stroke="black" points="291.5,-46.18 288,-36.18 284.5,-46.18 291.5,-46.18"/>
<text text-anchor="middle" x="314" y="-57.8" font-family="Times New Roman,serif" font-size="14.00">generates</text>
</g>
<!-- codebase -->
<g id="node19" class="node">
<title>codebase</title>
<g id="a_node19"><a xlink:href="https://www.github.com/unhm-programming-team" xlink:title="Code Base" target="_blank">
<ellipse fill="#e5e6ce" stroke="black" cx="492" cy="-474" rx="50.89" ry="18"/>
<text text-anchor="middle" x="492" y="-470.3" font-family="Times New Roman,serif" font-size="14.00">Code Base</text>
</a>
</g>
</g>
<!-- codebase&#45;&gt;production -->
<g id="edge19" class="edge">
<title>codebase&#45;&gt;production</title>
<path fill="none" stroke="black" d="M504.05,-456.21C512.85,-443.95 524.93,-427.11 534.89,-413.24"/>
<polygon fill="black" stroke="black" points="537.78,-415.21 540.76,-405.05 532.09,-411.13 537.78,-415.21"/>
</g>
<!-- codebase&#45;&gt;testing -->
<g id="edge20" class="edge">
<title>codebase&#45;&gt;testing</title>
<path fill="none" stroke="black" d="M517.44,-458.39C540.66,-445.06 575.29,-425.17 601.82,-409.93"/>
<polygon fill="black" stroke="black" points="603.9,-412.77 610.83,-404.75 600.42,-406.7 603.9,-412.77"/>
</g>
<!-- codebase&#45;&gt;django -->
<g id="edge21" class="edge">
<title>codebase&#45;&gt;django</title>
<path fill="none" stroke="black" d="M444.24,-467.82C414.16,-463.11 375.26,-454.29 344,-438 331.6,-431.53 319.75,-421.7 310.18,-412.46"/>
<polygon fill="black" stroke="black" points="312.55,-409.89 303.02,-405.26 307.58,-414.82 312.55,-409.89"/>
<text text-anchor="middle" x="400" y="-426.8" font-family="Times New Roman,serif" font-size="14.00">mostly written using</text>
</g>
<!-- codebase&#45;&gt;autodoc -->
<g id="edge15" class="edge">
<title>codebase&#45;&gt;autodoc</title>
<path fill="none" stroke="black" d="M480.74,-456.21C472.59,-444.06 461.44,-427.43 452.19,-413.63"/>
<polygon fill="black" stroke="black" points="454.91,-411.41 446.43,-405.05 449.1,-415.3 454.91,-411.41"/>
</g>
<!-- technology -->
<g id="node20" class="node">
<title>technology</title>
<path fill="#1f0477" stroke="black" d="M639,-488.73C639,-490.53 621.52,-492 600,-492 578.48,-492 561,-490.53 561,-488.73 561,-488.73 561,-459.27 561,-459.27 561,-457.47 578.48,-456 600,-456 621.52,-456 639,-457.47 639,-459.27 639,-459.27 639,-488.73 639,-488.73"/>
<path fill="none" stroke="black" d="M639,-488.73C639,-486.92 621.52,-485.45 600,-485.45 578.48,-485.45 561,-486.92 561,-488.73"/>
<text text-anchor="middle" x="600" y="-470.3" font-family="Times New Roman,serif" font-size="14.00" fill="white">technology</text>
</g>
<!-- ourcode -->
<g id="node21" class="node">
<title>ourcode</title>
<ellipse fill="#e5e6ce" stroke="black" cx="701" cy="-474" rx="43.59" ry="18"/>
<text text-anchor="middle" x="701" y="-470.3" font-family="Times New Roman,serif" font-size="14.00">our code</text>
</g>
<!-- process -->
<g id="node22" class="node">
<title>process</title>
<polygon fill="#e5e6ce" stroke="black" points="823.5,-492 762.5,-492 762.5,-488 758.5,-488 758.5,-484 762.5,-484 762.5,-464 758.5,-464 758.5,-460 762.5,-460 762.5,-456 823.5,-456 823.5,-492"/>
<polyline fill="none" stroke="black" points="762.5,-488 766.5,-488 766.5,-484 762.5,-484 "/>
<polyline fill="none" stroke="black" points="762.5,-464 766.5,-464 766.5,-460 762.5,-460 "/>
<text text-anchor="middle" x="793" y="-470.3" font-family="Times New Roman,serif" font-size="14.00">process</text>
</g>
</g>
</svg>
