<?xml version="1.0" encoding="UTF-8" standalone="no"?>
<!DOCTYPE svg PUBLIC "-//W3C//DTD SVG 1.1//EN"
 "http://www.w3.org/Graphics/SVG/1.1/DTD/svg11.dtd">
<!-- Generated by graphviz version 2.47.1 (20210417.1919)
 -->
<!-- Title: foo Pages: 1 -->
<svg width="964pt" height="305pt"
 viewBox="0.00 0.00 964.00 305.00" xmlns="http://www.w3.org/2000/svg" xmlns:xlink="http://www.w3.org/1999/xlink">
<g id="graph0" class="graph" transform="scale(1 1) rotate(0) translate(4 301)">
<title>foo</title>
<polygon fill="white" stroke="transparent" points="-4,4 -4,-301 960,-301 960,4 -4,4"/>
<!-- reddit -->
<g id="node1" class="node">
<title>reddit</title>
<ellipse fill="none" stroke="black" cx="159" cy="-279" rx="53.89" ry="18"/>
<text text-anchor="middle" x="159" y="-275.3" font-family="Times New Roman,serif" font-size="14.00">Reddit Data</text>
</g>
<!-- redditAPI -->
<g id="node2" class="node">
<title>redditAPI</title>
<g id="a_node2"><a xlink:href="https://www.reddit.com/dev/api" xlink:title="Reddit API" target="_blank">
<ellipse fill="none" stroke="black" cx="52" cy="-192" rx="51.99" ry="18"/>
<text text-anchor="middle" x="52" y="-188.3" font-family="Times New Roman,serif" font-size="14.00">Reddit API</text>
</a>
</g>
</g>
<!-- reddit&#45;&gt;redditAPI -->
<g id="edge1" class="edge">
<title>reddit&#45;&gt;redditAPI</title>
<path fill="none" stroke="black" d="M139.12,-262.21C122.38,-248.91 98.25,-229.74 79.63,-214.95"/>
<polygon fill="black" stroke="black" points="81.77,-212.18 71.76,-208.7 77.42,-217.66 81.77,-212.18"/>
</g>
<!-- redditAPIRules -->
<g id="node3" class="node">
<title>redditAPIRules</title>
<g id="a_node3"><a xlink:href="https://github.com/reddit-archive/reddit/wiki/API" xlink:title="Reddit API Rules" target="_blank">
<ellipse fill="none" stroke="black" cx="197" cy="-192" rx="75.29" ry="18"/>
<text text-anchor="middle" x="197" y="-188.3" font-family="Times New Roman,serif" font-size="14.00">Reddit API Rules</text>
</a>
</g>
</g>
<!-- reddit&#45;&gt;redditAPIRules -->
<g id="edge2" class="edge">
<title>reddit&#45;&gt;redditAPIRules</title>
<path fill="none" stroke="black" d="M166.69,-260.8C171.99,-248.93 179.15,-232.93 185.17,-219.45"/>
<polygon fill="black" stroke="black" points="188.43,-220.73 189.32,-210.18 182.04,-217.88 188.43,-220.73"/>
</g>
<!-- documentation -->
<g id="node4" class="node">
<title>documentation</title>
<ellipse fill="none" stroke="black" cx="363" cy="-279" rx="64.19" ry="18"/>
<text text-anchor="middle" x="363" y="-275.3" font-family="Times New Roman,serif" font-size="14.00">documentation</text>
</g>
<!-- sphinx -->
<g id="node5" class="node">
<title>sphinx</title>
<g id="a_node5"><a xlink:href="https://www.sphinx-doc.org" xlink:title="sphinx" target="_blank">
<ellipse fill="none" stroke="black" cx="363" cy="-192" rx="34.39" ry="18"/>
<text text-anchor="middle" x="363" y="-188.3" font-family="Times New Roman,serif" font-size="14.00">sphinx</text>
</a>
</g>
</g>
<!-- documentation&#45;&gt;sphinx -->
<g id="edge3" class="edge">
<title>documentation&#45;&gt;sphinx</title>
<path fill="none" stroke="black" d="M363,-260.8C363,-249.16 363,-233.55 363,-220.24"/>
<polygon fill="black" stroke="black" points="366.5,-220.18 363,-210.18 359.5,-220.18 366.5,-220.18"/>
<text text-anchor="middle" x="392" y="-231.8" font-family="Times New Roman,serif" font-size="14.00">made with</text>
</g>
<!-- django -->
<g id="node6" class="node">
<title>django</title>
<g id="a_node6"><a xlink:href="https://docs.djangoproject.com/en/3.2/" xlink:title="Django" target="_blank">
<ellipse fill="none" stroke="black" cx="482" cy="-279" rx="36.29" ry="18"/>
<text text-anchor="middle" x="482" y="-275.3" font-family="Times New Roman,serif" font-size="14.00">Django</text>
</a>
</g>
</g>
<!-- view -->
<g id="node13" class="node">
<title>view</title>
<g id="a_node13"><a xlink:href="https://docs.djangoproject.com/en/3.2/#the-view-layer" xlink:title="View" target="_blank">
<ellipse fill="none" stroke="black" cx="507" cy="-192" rx="29.5" ry="18"/>
<text text-anchor="middle" x="507" y="-188.3" font-family="Times New Roman,serif" font-size="14.00">View</text>
</a>
</g>
</g>
<!-- django&#45;&gt;view -->
<g id="edge9" class="edge">
<title>django&#45;&gt;view</title>
<path fill="none" stroke="black" d="M479.95,-260.94C479.35,-251.08 479.6,-238.58 483,-228 484.23,-224.16 486.03,-220.37 488.1,-216.77"/>
<polygon fill="black" stroke="black" points="491.07,-218.62 493.63,-208.34 485.22,-214.78 491.07,-218.62"/>
<text text-anchor="middle" x="543" y="-231.8" font-family="Times New Roman,serif" font-size="14.00">processes http GETs</text>
</g>
<!-- sqlite -->
<g id="node7" class="node">
<title>sqlite</title>
<g id="a_node7"><a xlink:href="https://www.sqlite.org/index.html" xlink:title="SQLite" target="_blank">
<ellipse fill="none" stroke="black" cx="604" cy="-192" rx="36.29" ry="18"/>
<text text-anchor="middle" x="604" y="-188.3" font-family="Times New Roman,serif" font-size="14.00">SQLite</text>
</a>
</g>
</g>
<!-- production -->
<g id="node8" class="node">
<title>production</title>
<ellipse fill="none" stroke="black" cx="845" cy="-279" rx="51.19" ry="18"/>
<text text-anchor="middle" x="845" y="-275.3" font-family="Times New Roman,serif" font-size="14.00">Production</text>
</g>
<!-- apache -->
<g id="node9" class="node">
<title>apache</title>
<g id="a_node9"><a xlink:href="https://httpd.apache.org/" xlink:title="Apache" target="_blank">
<ellipse fill="none" stroke="black" cx="792" cy="-192" rx="38.19" ry="18"/>
<text text-anchor="middle" x="792" y="-188.3" font-family="Times New Roman,serif" font-size="14.00">Apache</text>
</a>
</g>
</g>
<!-- production&#45;&gt;apache -->
<g id="edge4" class="edge">
<title>production&#45;&gt;apache</title>
<path fill="none" stroke="black" d="M829.35,-261.65C824.4,-256.01 819.14,-249.47 815,-243 810.23,-235.56 805.91,-226.98 802.33,-219.05"/>
<polygon fill="black" stroke="black" points="805.52,-217.61 798.36,-209.81 799.09,-220.38 805.52,-217.61"/>
<text text-anchor="middle" x="839" y="-231.8" font-family="Times New Roman,serif" font-size="14.00">backend</text>
</g>
<!-- modwsgi -->
<g id="node10" class="node">
<title>modwsgi</title>
<g id="a_node10"><a xlink:href="https://modwsgi.readthedocs.io/en/develop/" xlink:title="mod_wsgi" target="_blank">
<ellipse fill="none" stroke="black" cx="897" cy="-192" rx="48.99" ry="18"/>
<text text-anchor="middle" x="897" y="-188.3" font-family="Times New Roman,serif" font-size="14.00">mod_wsgi</text>
</a>
</g>
</g>
<!-- production&#45;&gt;modwsgi -->
<g id="edge5" class="edge">
<title>production&#45;&gt;modwsgi</title>
<path fill="none" stroke="black" d="M855.27,-261.21C862.75,-248.98 873.01,-232.21 881.48,-218.36"/>
<polygon fill="black" stroke="black" points="884.51,-220.12 886.74,-209.76 878.54,-216.46 884.51,-220.12"/>
<text text-anchor="middle" x="915" y="-231.8" font-family="Times New Roman,serif" font-size="14.00">python/apache</text>
</g>
<!-- database -->
<g id="node11" class="node">
<title>database</title>
<ellipse fill="none" stroke="black" cx="649" cy="-279" rx="44.39" ry="18"/>
<text text-anchor="middle" x="649" y="-275.3" font-family="Times New Roman,serif" font-size="14.00">Database</text>
</g>
<!-- database&#45;&gt;sqlite -->
<g id="edge7" class="edge">
<title>database&#45;&gt;sqlite</title>
<path fill="none" stroke="black" d="M640.1,-261.21C633.69,-249.1 624.92,-232.53 617.63,-218.76"/>
<polygon fill="black" stroke="black" points="620.64,-216.96 612.87,-209.76 614.45,-220.23 620.64,-216.96"/>
</g>
<!-- models -->
<g id="node12" class="node">
<title>models</title>
<g id="a_node12"><a xlink:href="https://docs.djangoproject.com/en/3.2/topics/db/models/" xlink:title="Models" target="_blank">
<ellipse fill="none" stroke="black" cx="697" cy="-192" rx="38.19" ry="18"/>
<text text-anchor="middle" x="697" y="-188.3" font-family="Times New Roman,serif" font-size="14.00">Models</text>
</a>
</g>
</g>
<!-- database&#45;&gt;models -->
<g id="edge6" class="edge">
<title>database&#45;&gt;models</title>
<path fill="none" stroke="black" d="M658.48,-261.21C665.36,-249.02 674.79,-232.32 682.6,-218.49"/>
<polygon fill="black" stroke="black" points="685.83,-219.9 687.7,-209.47 679.73,-216.46 685.83,-219.9"/>
<text text-anchor="middle" x="703.5" y="-231.8" font-family="Times New Roman,serif" font-size="14.00">populates</text>
</g>
<!-- template -->
<g id="node14" class="node">
<title>template</title>
<g id="a_node14"><a xlink:href="https://docs.djangoproject.com/en/3.2/topics/templates/" xlink:title="Template" target="_blank">
<ellipse fill="none" stroke="black" cx="595" cy="-105" rx="44.39" ry="18"/>
<text text-anchor="middle" x="595" y="-101.3" font-family="Times New Roman,serif" font-size="14.00">Template</text>
</a>
</g>
</g>
<!-- models&#45;&gt;template -->
<g id="edge12" class="edge">
<title>models&#45;&gt;template</title>
<path fill="none" stroke="black" d="M678.76,-175.8C662.86,-162.55 639.59,-143.16 621.61,-128.18"/>
<polygon fill="black" stroke="black" points="623.69,-125.35 613.76,-121.64 619.2,-130.73 623.69,-125.35"/>
<text text-anchor="middle" x="680.5" y="-144.8" font-family="Times New Roman,serif" font-size="14.00">populates</text>
</g>
<!-- view&#45;&gt;template -->
<g id="edge10" class="edge">
<title>view&#45;&gt;template</title>
<path fill="none" stroke="black" d="M522.32,-176.19C535.87,-163.11 555.83,-143.83 571.4,-128.79"/>
<polygon fill="black" stroke="black" points="573.89,-131.25 578.65,-121.79 569.03,-126.22 573.89,-131.25"/>
<text text-anchor="middle" x="575" y="-144.8" font-family="Times New Roman,serif" font-size="14.00">serves</text>
</g>
<!-- html -->
<g id="node15" class="node">
<title>html</title>
<ellipse fill="none" stroke="black" cx="595" cy="-18" rx="55.79" ry="18"/>
<text text-anchor="middle" x="595" y="-14.3" font-family="Times New Roman,serif" font-size="14.00">HTML/CSS</text>
</g>
<!-- template&#45;&gt;html -->
<g id="edge8" class="edge">
<title>template&#45;&gt;html</title>
<path fill="none" stroke="black" d="M593.82,-86.92C593.49,-81.22 593.16,-74.84 593,-69 592.79,-61.65 592.93,-53.69 593.22,-46.33"/>
<polygon fill="black" stroke="black" points="596.73,-46.28 593.73,-36.12 589.74,-45.94 596.73,-46.28"/>
</g>
<!-- template&#45;&gt;html -->
<g id="edge11" class="edge">
<title>template&#45;&gt;html</title>
<path fill="none" stroke="black" d="M595,-86.8C595,-75.16 595,-59.55 595,-46.24"/>
<polygon fill="black" stroke="black" points="598.5,-46.18 595,-36.18 591.5,-46.18 598.5,-46.18"/>
<text text-anchor="middle" x="607.5" y="-57.8" font-family="Times New Roman,serif" font-size="14.00">uses</text>
</g>
</g>
</svg>
