<?xml version="1.0" encoding="UTF-8" standalone="no"?>
<!DOCTYPE svg PUBLIC "-//W3C//DTD SVG 1.1//EN"
 "http://www.w3.org/Graphics/SVG/1.1/DTD/svg11.dtd">
<!-- Generated by graphviz version 2.47.1 (20210417.1919)
 -->
<!-- Title: foo Pages: 1 -->
<svg width="798pt" height="392pt"
 viewBox="0.00 0.00 798.40 392.00" xmlns="http://www.w3.org/2000/svg" xmlns:xlink="http://www.w3.org/1999/xlink">
<g id="graph0" class="graph" transform="scale(1 1) rotate(0) translate(4 388)">
<title>foo</title>
<polygon fill="white" stroke="transparent" points="-4,4 -4,-388 794.4,-388 794.4,4 -4,4"/>
<!-- reddit -->
<g id="node1" class="node">
<title>reddit</title>
<ellipse fill="none" stroke="black" cx="379.4" cy="-192" rx="53.89" ry="18"/>
<text text-anchor="middle" x="379.4" y="-188.3" font-family="Times New Roman,serif" font-size="14.00">Reddit Data</text>
</g>
<!-- redditAPI -->
<g id="node2" class="node">
<title>redditAPI</title>
<g id="a_node2"><a xlink:href="https://www.reddit.com/dev/api" xlink:title="Reddit API" target="_blank">
<ellipse fill="none" stroke="black" cx="279.4" cy="-105" rx="51.99" ry="18"/>
<text text-anchor="middle" x="279.4" y="-101.3" font-family="Times New Roman,serif" font-size="14.00">Reddit API</text>
</a>
</g>
</g>
<!-- reddit&#45;&gt;redditAPI -->
<g id="edge1" class="edge">
<title>reddit&#45;&gt;redditAPI</title>
<path fill="none" stroke="black" d="M360.59,-175.01C345.22,-161.95 323.32,-143.33 306.13,-128.72"/>
<polygon fill="black" stroke="black" points="308.01,-125.73 298.12,-121.92 303.47,-131.06 308.01,-125.73"/>
</g>
<!-- redditAPIRules -->
<g id="node3" class="node">
<title>redditAPIRules</title>
<g id="a_node3"><a xlink:href="https://github.com/reddit-archive/reddit/wiki/API" xlink:title="Reddit API Rules" target="_blank">
<ellipse fill="none" stroke="black" cx="424.4" cy="-105" rx="75.29" ry="18"/>
<text text-anchor="middle" x="424.4" y="-101.3" font-family="Times New Roman,serif" font-size="14.00">Reddit API Rules</text>
</a>
</g>
</g>
<!-- reddit&#45;&gt;redditAPIRules -->
<g id="edge2" class="edge">
<title>reddit&#45;&gt;redditAPIRules</title>
<path fill="none" stroke="black" d="M388.29,-174.21C394.66,-162.18 403.35,-145.75 410.62,-132.03"/>
<polygon fill="black" stroke="black" points="413.78,-133.52 415.37,-123.05 407.6,-130.25 413.78,-133.52"/>
</g>
<!-- documentation -->
<g id="node4" class="node">
<title>documentation</title>
<ellipse fill="none" stroke="black" cx="526.4" cy="-366" rx="64.19" ry="18"/>
<text text-anchor="middle" x="526.4" y="-362.3" font-family="Times New Roman,serif" font-size="14.00">documentation</text>
</g>
<!-- sphinx -->
<g id="node5" class="node">
<title>sphinx</title>
<g id="a_node5"><a xlink:href="https://www.sphinx-doc.org" xlink:title="sphinx" target="_blank">
<ellipse fill="none" stroke="black" cx="526.4" cy="-279" rx="34.39" ry="18"/>
<text text-anchor="middle" x="526.4" y="-275.3" font-family="Times New Roman,serif" font-size="14.00">sphinx</text>
</a>
</g>
</g>
<!-- documentation&#45;&gt;sphinx -->
<g id="edge3" class="edge">
<title>documentation&#45;&gt;sphinx</title>
<path fill="none" stroke="black" d="M526.4,-347.8C526.4,-336.16 526.4,-320.55 526.4,-307.24"/>
<polygon fill="black" stroke="black" points="529.9,-307.18 526.4,-297.18 522.9,-307.18 529.9,-307.18"/>
<text text-anchor="middle" x="555.4" y="-318.8" font-family="Times New Roman,serif" font-size="14.00">made with</text>
</g>
<!-- django -->
<g id="node6" class="node">
<title>django</title>
<g id="a_node6"><a xlink:href="https://docs.djangoproject.com/en/3.2/" xlink:title="Django" target="_blank">
<ellipse fill="none" stroke="black" cx="36.4" cy="-279" rx="36.29" ry="18"/>
<text text-anchor="middle" x="36.4" y="-275.3" font-family="Times New Roman,serif" font-size="14.00">Django</text>
</a>
</g>
</g>
<!-- view -->
<g id="node13" class="node">
<title>view</title>
<g id="a_node13"><a xlink:href="https://docs.djangoproject.com/en/3.2/#the-view-layer" xlink:title="View" target="_blank">
<ellipse fill="none" stroke="black" cx="61.4" cy="-192" rx="29.5" ry="18"/>
<text text-anchor="middle" x="61.4" y="-188.3" font-family="Times New Roman,serif" font-size="14.00">View</text>
</a>
</g>
</g>
<!-- django&#45;&gt;view -->
<g id="edge9" class="edge">
<title>django&#45;&gt;view</title>
<path fill="none" stroke="black" d="M34.35,-260.94C33.75,-251.08 34,-238.58 37.4,-228 38.63,-224.16 40.43,-220.37 42.5,-216.77"/>
<polygon fill="black" stroke="black" points="45.47,-218.62 48.03,-208.34 39.62,-214.78 45.47,-218.62"/>
<text text-anchor="middle" x="97.4" y="-231.8" font-family="Times New Roman,serif" font-size="14.00">processes http GETs</text>
</g>
<!-- sqlite -->
<g id="node7" class="node">
<title>sqlite</title>
<g id="a_node7"><a xlink:href="https://www.sqlite.org/index.html" xlink:title="SQLite" target="_blank">
<ellipse fill="none" stroke="black" cx="158.4" cy="-192" rx="36.29" ry="18"/>
<text text-anchor="middle" x="158.4" y="-188.3" font-family="Times New Roman,serif" font-size="14.00">SQLite</text>
</a>
</g>
</g>
<!-- production -->
<g id="node8" class="node">
<title>production</title>
<ellipse fill="none" stroke="black" cx="691.4" cy="-366" rx="51.19" ry="18"/>
<text text-anchor="middle" x="691.4" y="-362.3" font-family="Times New Roman,serif" font-size="14.00">Production</text>
</g>
<!-- apache -->
<g id="node9" class="node">
<title>apache</title>
<g id="a_node9"><a xlink:href="https://httpd.apache.org/" xlink:title="Apache" target="_blank">
<ellipse fill="none" stroke="black" cx="617.4" cy="-279" rx="38.19" ry="18"/>
<text text-anchor="middle" x="617.4" y="-275.3" font-family="Times New Roman,serif" font-size="14.00">Apache</text>
</a>
</g>
</g>
<!-- production&#45;&gt;apache -->
<g id="edge4" class="edge">
<title>production&#45;&gt;apache</title>
<path fill="none" stroke="black" d="M671.92,-349.09C665.41,-343.37 658.31,-336.67 652.4,-330 645.58,-322.31 638.91,-313.28 633.25,-305.02"/>
<polygon fill="black" stroke="black" points="636.01,-302.84 627.55,-296.46 630.18,-306.72 636.01,-302.84"/>
<text text-anchor="middle" x="676.4" y="-318.8" font-family="Times New Roman,serif" font-size="14.00">backend</text>
</g>
<!-- modwsgi -->
<g id="node10" class="node">
<title>modwsgi</title>
<g id="a_node10"><a xlink:href="https://modwsgi.readthedocs.io/en/develop/" xlink:title="mod_wsgi" target="_blank">
<ellipse fill="none" stroke="black" cx="722.4" cy="-279" rx="48.99" ry="18"/>
<text text-anchor="middle" x="722.4" y="-275.3" font-family="Times New Roman,serif" font-size="14.00">mod_wsgi</text>
</a>
</g>
</g>
<!-- production&#45;&gt;modwsgi -->
<g id="edge5" class="edge">
<title>production&#45;&gt;modwsgi</title>
<path fill="none" stroke="black" d="M697.67,-347.8C701.98,-335.97 707.8,-320.03 712.7,-306.58"/>
<polygon fill="black" stroke="black" points="716.1,-307.48 716.24,-296.89 709.52,-305.08 716.1,-307.48"/>
<text text-anchor="middle" x="749.4" y="-318.8" font-family="Times New Roman,serif" font-size="14.00">python/apache</text>
</g>
<!-- database -->
<g id="node11" class="node">
<title>database</title>
<ellipse fill="none" stroke="black" cx="232.4" cy="-279" rx="44.39" ry="18"/>
<text text-anchor="middle" x="232.4" y="-275.3" font-family="Times New Roman,serif" font-size="14.00">Database</text>
</g>
<!-- database&#45;&gt;sqlite -->
<g id="edge7" class="edge">
<title>database&#45;&gt;sqlite</title>
<path fill="none" stroke="black" d="M218.13,-261.61C206.93,-248.75 191.2,-230.68 178.69,-216.31"/>
<polygon fill="black" stroke="black" points="181.33,-214.01 172.12,-208.76 176.05,-218.6 181.33,-214.01"/>
</g>
<!-- models -->
<g id="node12" class="node">
<title>models</title>
<g id="a_node12"><a xlink:href="https://docs.djangoproject.com/en/3.2/topics/db/models/" xlink:title="Models" target="_blank">
<ellipse fill="none" stroke="black" cx="251.4" cy="-192" rx="38.19" ry="18"/>
<text text-anchor="middle" x="251.4" y="-188.3" font-family="Times New Roman,serif" font-size="14.00">Models</text>
</a>
</g>
</g>
<!-- database&#45;&gt;models -->
<g id="edge6" class="edge">
<title>database&#45;&gt;models</title>
<path fill="none" stroke="black" d="M236.24,-260.8C238.84,-249.16 242.33,-233.55 245.31,-220.24"/>
<polygon fill="black" stroke="black" points="248.79,-220.7 247.56,-210.18 241.96,-219.17 248.79,-220.7"/>
<text text-anchor="middle" x="270.9" y="-231.8" font-family="Times New Roman,serif" font-size="14.00">populates</text>
</g>
<!-- template -->
<g id="node14" class="node">
<title>template</title>
<g id="a_node14"><a xlink:href="https://docs.djangoproject.com/en/3.2/topics/templates/" xlink:title="Template" target="_blank">
<ellipse fill="none" stroke="black" cx="158.4" cy="-105" rx="44.39" ry="18"/>
<text text-anchor="middle" x="158.4" y="-101.3" font-family="Times New Roman,serif" font-size="14.00">Template</text>
</a>
</g>
</g>
<!-- models&#45;&gt;template -->
<g id="edge12" class="edge">
<title>models&#45;&gt;template</title>
<path fill="none" stroke="black" d="M233.24,-175.89C226.04,-169.81 217.75,-162.66 210.4,-156 200.92,-147.41 190.73,-137.72 181.91,-129.18"/>
<polygon fill="black" stroke="black" points="184.16,-126.49 174.56,-122.02 179.28,-131.5 184.16,-126.49"/>
<text text-anchor="middle" x="237.9" y="-144.8" font-family="Times New Roman,serif" font-size="14.00">populates</text>
</g>
<!-- view&#45;&gt;template -->
<g id="edge10" class="edge">
<title>view&#45;&gt;template</title>
<path fill="none" stroke="black" d="M77.85,-176.58C92.94,-163.35 115.53,-143.56 132.95,-128.3"/>
<polygon fill="black" stroke="black" points="135.33,-130.87 140.54,-121.64 130.72,-125.6 135.33,-130.87"/>
<text text-anchor="middle" x="134.4" y="-144.8" font-family="Times New Roman,serif" font-size="14.00">serves</text>
</g>
<!-- html -->
<g id="node15" class="node">
<title>html</title>
<ellipse fill="none" stroke="black" cx="158.4" cy="-18" rx="55.79" ry="18"/>
<text text-anchor="middle" x="158.4" y="-14.3" font-family="Times New Roman,serif" font-size="14.00">HTML/CSS</text>
</g>
<!-- template&#45;&gt;html -->
<g id="edge8" class="edge">
<title>template&#45;&gt;html</title>
<path fill="none" stroke="black" d="M157.13,-86.88C156.56,-77.23 156.08,-64.94 156.4,-54 156.47,-51.44 156.57,-48.79 156.69,-46.13"/>
<polygon fill="black" stroke="black" points="160.19,-46.25 157.22,-36.08 153.2,-45.88 160.19,-46.25"/>
</g>
<!-- template&#45;&gt;html -->
<g id="edge11" class="edge">
<title>template&#45;&gt;html</title>
<path fill="none" stroke="black" d="M158.4,-86.8C158.4,-75.16 158.4,-59.55 158.4,-46.24"/>
<polygon fill="black" stroke="black" points="161.9,-46.18 158.4,-36.18 154.9,-46.18 161.9,-46.18"/>
<text text-anchor="middle" x="184.4" y="-57.8" font-family="Times New Roman,serif" font-size="14.00">generates</text>
</g>
<!-- caller -->
<g id="node16" class="node">
<title>caller</title>
<g id="a_node16"><a xlink:href="https://www.digitalocean.com/community/tutorials/how-to-use-web-apis-in-python-3" xlink:title="Scheduled API calls" target="_blank">
<ellipse fill="none" stroke="black" cx="379.4" cy="-279" rx="84.49" ry="18"/>
<text text-anchor="middle" x="379.4" y="-275.3" font-family="Times New Roman,serif" font-size="14.00">Scheduled API calls</text>
</a>
</g>
</g>
<!-- caller&#45;&gt;reddit -->
<g id="edge13" class="edge">
<title>caller&#45;&gt;reddit</title>
<path fill="none" stroke="black" d="M379.4,-260.8C379.4,-249.16 379.4,-233.55 379.4,-220.24"/>
<polygon fill="black" stroke="black" points="382.9,-220.18 379.4,-210.18 375.9,-220.18 382.9,-220.18"/>
<text text-anchor="middle" x="399.4" y="-231.8" font-family="Times New Roman,serif" font-size="14.00">queries</text>
</g>
<!-- processor -->
<g id="node17" class="node">
<title>processor</title>
<ellipse fill="none" stroke="black" cx="350.4" cy="-366" rx="74.99" ry="18"/>
<text text-anchor="middle" x="350.4" y="-362.3" font-family="Times New Roman,serif" font-size="14.00">Process API data</text>
</g>
<!-- processor&#45;&gt;database -->
<g id="edge15" class="edge">
<title>processor&#45;&gt;database</title>
<path fill="none" stroke="black" d="M327.92,-348.81C309.08,-335.24 282.05,-315.77 261.55,-301"/>
<polygon fill="black" stroke="black" points="263.36,-297.99 253.2,-294.99 259.27,-303.67 263.36,-297.99"/>
<text text-anchor="middle" x="309.4" y="-318.8" font-family="Times New Roman,serif" font-size="14.00">fills</text>
</g>
<!-- processor&#45;&gt;caller -->
<g id="edge14" class="edge">
<title>processor&#45;&gt;caller</title>
<path fill="none" stroke="black" d="M356.27,-347.8C360.27,-336.05 365.67,-320.24 370.24,-306.84"/>
<polygon fill="black" stroke="black" points="373.62,-307.77 373.54,-297.18 367,-305.51 373.62,-307.77"/>
<text text-anchor="middle" x="395.9" y="-318.8" font-family="Times New Roman,serif" font-size="14.00">processes</text>
</g>
</g>
</svg>
