<?xml version="1.0" encoding="UTF-8" standalone="no"?>
<!DOCTYPE svg PUBLIC "-//W3C//DTD SVG 1.1//EN"
 "http://www.w3.org/Graphics/SVG/1.1/DTD/svg11.dtd">
<!-- Generated by graphviz version 2.47.1 (20210417.1919)
 -->
<!-- Title: foo Pages: 1 -->
<svg width="748pt" height="479pt"
 viewBox="0.00 0.00 748.00 479.00" xmlns="http://www.w3.org/2000/svg" xmlns:xlink="http://www.w3.org/1999/xlink">
<g id="graph0" class="graph" transform="scale(1 1) rotate(0) translate(4 475)">
<title>foo</title>
<polygon fill="white" stroke="transparent" points="-4,4 -4,-475 744,-475 744,4 -4,4"/>
<!-- reddit -->
<g id="node1" class="node">
<title>reddit</title>
<ellipse fill="none" stroke="black" cx="192" cy="-366" rx="53.89" ry="18"/>
<text text-anchor="middle" x="192" y="-362.3" font-family="Times New Roman,serif" font-size="14.00">Reddit Data</text>
</g>
<!-- redditAPI -->
<g id="node2" class="node">
<title>redditAPI</title>
<g id="a_node2"><a xlink:href="https://www.reddit.com/dev/api" xlink:title="Reddit API" target="_blank">
<ellipse fill="none" stroke="black" cx="52" cy="-279" rx="51.99" ry="18"/>
<text text-anchor="middle" x="52" y="-275.3" font-family="Times New Roman,serif" font-size="14.00">Reddit API</text>
</a>
</g>
</g>
<!-- reddit&#45;&gt;redditAPI -->
<g id="edge1" class="edge">
<title>reddit&#45;&gt;redditAPI</title>
<path fill="none" stroke="black" d="M166.97,-349.8C144.27,-336.02 110.64,-315.6 85.61,-300.41"/>
<polygon fill="black" stroke="black" points="87.17,-297.26 76.81,-295.06 83.54,-303.25 87.17,-297.26"/>
</g>
<!-- redditAPIRules -->
<g id="node3" class="node">
<title>redditAPIRules</title>
<g id="a_node3"><a xlink:href="https://github.com/reddit-archive/reddit/wiki/API" xlink:title="Reddit API Rules" target="_blank">
<ellipse fill="none" stroke="black" cx="197" cy="-279" rx="75.29" ry="18"/>
<text text-anchor="middle" x="197" y="-275.3" font-family="Times New Roman,serif" font-size="14.00">Reddit API Rules</text>
</a>
</g>
</g>
<!-- reddit&#45;&gt;redditAPIRules -->
<g id="edge2" class="edge">
<title>reddit&#45;&gt;redditAPIRules</title>
<path fill="none" stroke="black" d="M193.01,-347.8C193.69,-336.16 194.61,-320.55 195.39,-307.24"/>
<polygon fill="black" stroke="black" points="198.89,-307.36 195.99,-297.18 191.9,-306.95 198.89,-307.36"/>
</g>
<!-- documentation -->
<g id="node4" class="node">
<title>documentation</title>
<ellipse fill="none" stroke="black" cx="476" cy="-453" rx="64.19" ry="18"/>
<text text-anchor="middle" x="476" y="-449.3" font-family="Times New Roman,serif" font-size="14.00">documentation</text>
</g>
<!-- sphinx -->
<g id="node5" class="node">
<title>sphinx</title>
<g id="a_node5"><a xlink:href="https://www.sphinx-doc.org" xlink:title="sphinx" target="_blank">
<ellipse fill="none" stroke="black" cx="476" cy="-366" rx="34.39" ry="18"/>
<text text-anchor="middle" x="476" y="-362.3" font-family="Times New Roman,serif" font-size="14.00">sphinx</text>
</a>
</g>
</g>
<!-- documentation&#45;&gt;sphinx -->
<g id="edge3" class="edge">
<title>documentation&#45;&gt;sphinx</title>
<path fill="none" stroke="black" d="M476,-434.8C476,-423.16 476,-407.55 476,-394.24"/>
<polygon fill="black" stroke="black" points="479.5,-394.18 476,-384.18 472.5,-394.18 479.5,-394.18"/>
<text text-anchor="middle" x="505" y="-405.8" font-family="Times New Roman,serif" font-size="14.00">made with</text>
</g>
<!-- django -->
<g id="node6" class="node">
<title>django</title>
<g id="a_node6"><a xlink:href="https://docs.djangoproject.com/en/3.2/" xlink:title="Django" target="_blank">
<ellipse fill="none" stroke="black" cx="461" cy="-279" rx="36.29" ry="18"/>
<text text-anchor="middle" x="461" y="-275.3" font-family="Times New Roman,serif" font-size="14.00">Django</text>
</a>
</g>
</g>
<!-- view -->
<g id="node13" class="node">
<title>view</title>
<g id="a_node13"><a xlink:href="https://docs.djangoproject.com/en/3.2/#the-view-layer" xlink:title="View" target="_blank">
<ellipse fill="none" stroke="black" cx="461" cy="-192" rx="29.5" ry="18"/>
<text text-anchor="middle" x="461" y="-188.3" font-family="Times New Roman,serif" font-size="14.00">View</text>
</a>
</g>
</g>
<!-- django&#45;&gt;view -->
<g id="edge9" class="edge">
<title>django&#45;&gt;view</title>
<path fill="none" stroke="black" d="M461,-260.8C461,-249.16 461,-233.55 461,-220.24"/>
<polygon fill="black" stroke="black" points="464.5,-220.18 461,-210.18 457.5,-220.18 464.5,-220.18"/>
<text text-anchor="middle" x="521" y="-231.8" font-family="Times New Roman,serif" font-size="14.00">processes http GETs</text>
</g>
<!-- sqlite -->
<g id="node7" class="node">
<title>sqlite</title>
<g id="a_node7"><a xlink:href="https://www.sqlite.org/index.html" xlink:title="SQLite" target="_blank">
<ellipse fill="none" stroke="black" cx="282" cy="-192" rx="36.29" ry="18"/>
<text text-anchor="middle" x="282" y="-188.3" font-family="Times New Roman,serif" font-size="14.00">SQLite</text>
</a>
</g>
</g>
<!-- production -->
<g id="node8" class="node">
<title>production</title>
<ellipse fill="none" stroke="black" cx="641" cy="-453" rx="51.19" ry="18"/>
<text text-anchor="middle" x="641" y="-449.3" font-family="Times New Roman,serif" font-size="14.00">Production</text>
</g>
<!-- apache -->
<g id="node9" class="node">
<title>apache</title>
<g id="a_node9"><a xlink:href="https://httpd.apache.org/" xlink:title="Apache" target="_blank">
<ellipse fill="none" stroke="black" cx="567" cy="-366" rx="38.19" ry="18"/>
<text text-anchor="middle" x="567" y="-362.3" font-family="Times New Roman,serif" font-size="14.00">Apache</text>
</a>
</g>
</g>
<!-- production&#45;&gt;apache -->
<g id="edge4" class="edge">
<title>production&#45;&gt;apache</title>
<path fill="none" stroke="black" d="M621.52,-436.09C615.01,-430.37 607.91,-423.67 602,-417 595.18,-409.31 588.51,-400.28 582.85,-392.02"/>
<polygon fill="black" stroke="black" points="585.61,-389.84 577.15,-383.46 579.78,-393.72 585.61,-389.84"/>
<text text-anchor="middle" x="626" y="-405.8" font-family="Times New Roman,serif" font-size="14.00">backend</text>
</g>
<!-- modwsgi -->
<g id="node10" class="node">
<title>modwsgi</title>
<g id="a_node10"><a xlink:href="https://modwsgi.readthedocs.io/en/develop/" xlink:title="mod_wsgi" target="_blank">
<ellipse fill="none" stroke="black" cx="672" cy="-366" rx="48.99" ry="18"/>
<text text-anchor="middle" x="672" y="-362.3" font-family="Times New Roman,serif" font-size="14.00">mod_wsgi</text>
</a>
</g>
</g>
<!-- production&#45;&gt;modwsgi -->
<g id="edge5" class="edge">
<title>production&#45;&gt;modwsgi</title>
<path fill="none" stroke="black" d="M647.27,-434.8C651.58,-422.97 657.4,-407.03 662.3,-393.58"/>
<polygon fill="black" stroke="black" points="665.7,-394.48 665.84,-383.89 659.12,-392.08 665.7,-394.48"/>
<text text-anchor="middle" x="699" y="-405.8" font-family="Times New Roman,serif" font-size="14.00">python/apache</text>
</g>
<!-- database -->
<g id="node11" class="node">
<title>database</title>
<ellipse fill="none" stroke="black" cx="339" cy="-279" rx="44.39" ry="18"/>
<text text-anchor="middle" x="339" y="-275.3" font-family="Times New Roman,serif" font-size="14.00">Database</text>
</g>
<!-- database&#45;&gt;sqlite -->
<g id="edge7" class="edge">
<title>database&#45;&gt;sqlite</title>
<path fill="none" stroke="black" d="M327.73,-261.21C319.43,-248.82 308,-231.78 298.64,-217.82"/>
<polygon fill="black" stroke="black" points="301.32,-215.54 292.85,-209.18 295.51,-219.44 301.32,-215.54"/>
</g>
<!-- models -->
<g id="node12" class="node">
<title>models</title>
<g id="a_node12"><a xlink:href="https://docs.djangoproject.com/en/3.2/topics/db/models/" xlink:title="Models" target="_blank">
<ellipse fill="none" stroke="black" cx="375" cy="-192" rx="38.19" ry="18"/>
<text text-anchor="middle" x="375" y="-188.3" font-family="Times New Roman,serif" font-size="14.00">Models</text>
</a>
</g>
</g>
<!-- database&#45;&gt;models -->
<g id="edge6" class="edge">
<title>database&#45;&gt;models</title>
<path fill="none" stroke="black" d="M346.11,-261.21C351.19,-249.22 358.12,-232.85 363.92,-219.16"/>
<polygon fill="black" stroke="black" points="367.22,-220.33 367.9,-209.76 360.77,-217.6 367.22,-220.33"/>
<text text-anchor="middle" x="387.5" y="-231.8" font-family="Times New Roman,serif" font-size="14.00">populates</text>
</g>
<!-- template -->
<g id="node14" class="node">
<title>template</title>
<g id="a_node14"><a xlink:href="https://docs.djangoproject.com/en/3.2/topics/templates/" xlink:title="Template" target="_blank">
<ellipse fill="none" stroke="black" cx="418" cy="-105" rx="44.39" ry="18"/>
<text text-anchor="middle" x="418" y="-101.3" font-family="Times New Roman,serif" font-size="14.00">Template</text>
</a>
</g>
</g>
<!-- models&#45;&gt;template -->
<g id="edge12" class="edge">
<title>models&#45;&gt;template</title>
<path fill="none" stroke="black" d="M372.84,-173.96C372.32,-163.89 373.02,-151.15 378,-141 380.43,-136.03 383.93,-131.47 387.84,-127.39"/>
<polygon fill="black" stroke="black" points="390.23,-129.95 395.22,-120.61 385.49,-124.8 390.23,-129.95"/>
<text text-anchor="middle" x="405.5" y="-144.8" font-family="Times New Roman,serif" font-size="14.00">populates</text>
</g>
<!-- view&#45;&gt;template -->
<g id="edge10" class="edge">
<title>view&#45;&gt;template</title>
<path fill="none" stroke="black" d="M453.2,-174.23C448.6,-164.47 442.6,-151.97 437,-141 435.45,-137.98 433.81,-134.84 432.15,-131.73"/>
<polygon fill="black" stroke="black" points="435.08,-129.78 427.25,-122.64 428.92,-133.11 435.08,-129.78"/>
<text text-anchor="middle" x="462" y="-144.8" font-family="Times New Roman,serif" font-size="14.00">serves</text>
</g>
<!-- html -->
<g id="node15" class="node">
<title>html</title>
<ellipse fill="none" stroke="black" cx="418" cy="-18" rx="55.79" ry="18"/>
<text text-anchor="middle" x="418" y="-14.3" font-family="Times New Roman,serif" font-size="14.00">HTML/CSS</text>
</g>
<!-- template&#45;&gt;html -->
<g id="edge8" class="edge">
<title>template&#45;&gt;html</title>
<path fill="none" stroke="black" d="M416.73,-86.88C416.16,-77.23 415.68,-64.94 416,-54 416.07,-51.44 416.17,-48.79 416.29,-46.13"/>
<polygon fill="black" stroke="black" points="419.79,-46.25 416.82,-36.08 412.8,-45.88 419.79,-46.25"/>
</g>
<!-- template&#45;&gt;html -->
<g id="edge11" class="edge">
<title>template&#45;&gt;html</title>
<path fill="none" stroke="black" d="M418,-86.8C418,-75.16 418,-59.55 418,-46.24"/>
<polygon fill="black" stroke="black" points="421.5,-46.18 418,-36.18 414.5,-46.18 421.5,-46.18"/>
<text text-anchor="middle" x="444" y="-57.8" font-family="Times New Roman,serif" font-size="14.00">generates</text>
</g>
<!-- caller -->
<g id="node16" class="node">
<title>caller</title>
<g id="a_node16"><a xlink:href="https://www.digitalocean.com/community/tutorials/how-to-use-web-apis-in-python-3" xlink:title="Scheduled API calls" target="_blank">
<ellipse fill="none" stroke="black" cx="267" cy="-453" rx="84.49" ry="18"/>
<text text-anchor="middle" x="267" y="-449.3" font-family="Times New Roman,serif" font-size="14.00">Scheduled API calls</text>
</a>
</g>
</g>
<!-- caller&#45;&gt;reddit -->
<g id="edge13" class="edge">
<title>caller&#45;&gt;reddit</title>
<path fill="none" stroke="black" d="M252.18,-435.21C241.12,-422.67 225.83,-405.35 213.44,-391.3"/>
<polygon fill="black" stroke="black" points="215.77,-388.65 206.53,-383.47 210.52,-393.28 215.77,-388.65"/>
<text text-anchor="middle" x="254" y="-405.8" font-family="Times New Roman,serif" font-size="14.00">queries</text>
</g>
<!-- processor -->
<g id="node17" class="node">
<title>processor</title>
<ellipse fill="none" stroke="black" cx="339" cy="-366" rx="74.99" ry="18"/>
<text text-anchor="middle" x="339" y="-362.3" font-family="Times New Roman,serif" font-size="14.00">Process API data</text>
</g>
<!-- caller&#45;&gt;processor -->
<g id="edge14" class="edge">
<title>caller&#45;&gt;processor</title>
<path fill="none" stroke="black" d="M281.22,-435.21C291.77,-422.75 306.32,-405.57 318.18,-391.57"/>
<polygon fill="black" stroke="black" points="321.01,-393.65 324.8,-383.76 315.67,-389.13 321.01,-393.65"/>
<text text-anchor="middle" x="336.5" y="-405.8" font-family="Times New Roman,serif" font-size="14.00">processes</text>
</g>
<!-- processor&#45;&gt;database -->
<g id="edge15" class="edge">
<title>processor&#45;&gt;database</title>
<path fill="none" stroke="black" d="M339,-347.8C339,-336.16 339,-320.55 339,-307.24"/>
<polygon fill="black" stroke="black" points="342.5,-307.18 339,-297.18 335.5,-307.18 342.5,-307.18"/>
<text text-anchor="middle" x="349" y="-318.8" font-family="Times New Roman,serif" font-size="14.00">fills</text>
</g>
</g>
</svg>
