<?xml version="1.0" encoding="UTF-8" standalone="no"?>
<!DOCTYPE svg PUBLIC "-//W3C//DTD SVG 1.1//EN"
 "http://www.w3.org/Graphics/SVG/1.1/DTD/svg11.dtd">
<!-- Generated by graphviz version 2.47.1 (20210417.1919)
 -->
<!-- Title: foo Pages: 1 -->
<svg width="629pt" height="479pt"
 viewBox="0.00 0.00 629.39 479.00" xmlns="http://www.w3.org/2000/svg" xmlns:xlink="http://www.w3.org/1999/xlink">
<g id="graph0" class="graph" transform="scale(1 1) rotate(0) translate(4 475)">
<title>foo</title>
<polygon fill="white" stroke="transparent" points="-4,4 -4,-475 625.39,-475 625.39,4 -4,4"/>
<!-- reddit -->
<g id="node1" class="node">
<title>reddit</title>
<g id="a_node1"><a xlink:href="https://www.reddit.com/dev/api" xlink:title="Reddit API" target="_blank">
<ellipse fill="none" stroke="black" cx="75.39" cy="-366" rx="51.99" ry="18"/>
<text text-anchor="middle" x="75.39" y="-362.3" font-family="Times New Roman,serif" font-size="14.00">Reddit API</text>
</a>
</g>
</g>
<!-- redditAPIRules -->
<g id="node2" class="node">
<title>redditAPIRules</title>
<g id="a_node2"><a xlink:href="https://github.com/reddit-archive/reddit/wiki/API" xlink:title="Reddit API Rules" target="_blank">
<ellipse fill="none" stroke="black" cx="75.39" cy="-279" rx="75.29" ry="18"/>
<text text-anchor="middle" x="75.39" y="-275.3" font-family="Times New Roman,serif" font-size="14.00">Reddit API Rules</text>
</a>
</g>
</g>
<!-- reddit&#45;&gt;redditAPIRules -->
<g id="edge1" class="edge">
<title>reddit&#45;&gt;redditAPIRules</title>
<path fill="none" stroke="black" d="M75.39,-347.8C75.39,-336.16 75.39,-320.55 75.39,-307.24"/>
<polygon fill="black" stroke="black" points="78.89,-307.18 75.39,-297.18 71.89,-307.18 78.89,-307.18"/>
</g>
<!-- documentation -->
<g id="node3" class="node">
<title>documentation</title>
<ellipse fill="none" stroke="black" cx="357.39" cy="-453" rx="64.19" ry="18"/>
<text text-anchor="middle" x="357.39" y="-449.3" font-family="Times New Roman,serif" font-size="14.00">documentation</text>
</g>
<!-- sphinx -->
<g id="node4" class="node">
<title>sphinx</title>
<g id="a_node4"><a xlink:href="https://www.sphinx-doc.org" xlink:title="sphinx" target="_blank">
<ellipse fill="none" stroke="black" cx="357.39" cy="-366" rx="34.39" ry="18"/>
<text text-anchor="middle" x="357.39" y="-362.3" font-family="Times New Roman,serif" font-size="14.00">sphinx</text>
</a>
</g>
</g>
<!-- documentation&#45;&gt;sphinx -->
<g id="edge2" class="edge">
<title>documentation&#45;&gt;sphinx</title>
<path fill="none" stroke="black" d="M357.39,-434.8C357.39,-423.16 357.39,-407.55 357.39,-394.24"/>
<polygon fill="black" stroke="black" points="360.89,-394.18 357.39,-384.18 353.89,-394.18 360.89,-394.18"/>
<text text-anchor="middle" x="386.39" y="-405.8" font-family="Times New Roman,serif" font-size="14.00">made with</text>
</g>
<!-- django -->
<g id="node5" class="node">
<title>django</title>
<g id="a_node5"><a xlink:href="https://docs.djangoproject.com/en/3.2/" xlink:title="Django" target="_blank">
<ellipse fill="none" stroke="black" cx="368.39" cy="-279" rx="36.29" ry="18"/>
<text text-anchor="middle" x="368.39" y="-275.3" font-family="Times New Roman,serif" font-size="14.00">Django</text>
</a>
</g>
</g>
<!-- view -->
<g id="node12" class="node">
<title>view</title>
<g id="a_node12"><a xlink:href="https://docs.djangoproject.com/en/3.2/#the-view-layer" xlink:title="View" target="_blank">
<ellipse fill="none" stroke="black" cx="368.39" cy="-192" rx="29.5" ry="18"/>
<text text-anchor="middle" x="368.39" y="-188.3" font-family="Times New Roman,serif" font-size="14.00">View</text>
</a>
</g>
</g>
<!-- django&#45;&gt;view -->
<g id="edge8" class="edge">
<title>django&#45;&gt;view</title>
<path fill="none" stroke="black" d="M368.39,-260.8C368.39,-249.16 368.39,-233.55 368.39,-220.24"/>
<polygon fill="black" stroke="black" points="371.89,-220.18 368.39,-210.18 364.89,-220.18 371.89,-220.18"/>
<text text-anchor="middle" x="428.39" y="-231.8" font-family="Times New Roman,serif" font-size="14.00">processes http GETs</text>
</g>
<!-- sqlite -->
<g id="node6" class="node">
<title>sqlite</title>
<g id="a_node6"><a xlink:href="https://www.sqlite.org/index.html" xlink:title="SQLite" target="_blank">
<ellipse fill="none" stroke="black" cx="189.39" cy="-192" rx="36.29" ry="18"/>
<text text-anchor="middle" x="189.39" y="-188.3" font-family="Times New Roman,serif" font-size="14.00">SQLite</text>
</a>
</g>
</g>
<!-- production -->
<g id="node7" class="node">
<title>production</title>
<ellipse fill="none" stroke="black" cx="522.39" cy="-453" rx="51.19" ry="18"/>
<text text-anchor="middle" x="522.39" y="-449.3" font-family="Times New Roman,serif" font-size="14.00">Production</text>
</g>
<!-- apache -->
<g id="node8" class="node">
<title>apache</title>
<g id="a_node8"><a xlink:href="https://httpd.apache.org/" xlink:title="Apache" target="_blank">
<ellipse fill="none" stroke="black" cx="448.39" cy="-366" rx="38.19" ry="18"/>
<text text-anchor="middle" x="448.39" y="-362.3" font-family="Times New Roman,serif" font-size="14.00">Apache</text>
</a>
</g>
</g>
<!-- production&#45;&gt;apache -->
<g id="edge3" class="edge">
<title>production&#45;&gt;apache</title>
<path fill="none" stroke="black" d="M502.92,-436.09C496.41,-430.37 489.31,-423.67 483.39,-417 476.58,-409.31 469.91,-400.28 464.25,-392.02"/>
<polygon fill="black" stroke="black" points="467,-389.84 458.54,-383.46 461.18,-393.72 467,-389.84"/>
<text text-anchor="middle" x="507.39" y="-405.8" font-family="Times New Roman,serif" font-size="14.00">backend</text>
</g>
<!-- modwsgi -->
<g id="node9" class="node">
<title>modwsgi</title>
<g id="a_node9"><a xlink:href="https://modwsgi.readthedocs.io/en/develop/" xlink:title="mod_wsgi" target="_blank">
<ellipse fill="none" stroke="black" cx="553.39" cy="-366" rx="48.99" ry="18"/>
<text text-anchor="middle" x="553.39" y="-362.3" font-family="Times New Roman,serif" font-size="14.00">mod_wsgi</text>
</a>
</g>
</g>
<!-- production&#45;&gt;modwsgi -->
<g id="edge4" class="edge">
<title>production&#45;&gt;modwsgi</title>
<path fill="none" stroke="black" d="M528.67,-434.8C532.98,-422.97 538.79,-407.03 543.7,-393.58"/>
<polygon fill="black" stroke="black" points="547.1,-394.48 547.24,-383.89 540.52,-392.08 547.1,-394.48"/>
<text text-anchor="middle" x="580.39" y="-405.8" font-family="Times New Roman,serif" font-size="14.00">python/apache</text>
</g>
<!-- database -->
<g id="node10" class="node">
<title>database</title>
<ellipse fill="none" stroke="black" cx="220.39" cy="-279" rx="44.39" ry="18"/>
<text text-anchor="middle" x="220.39" y="-275.3" font-family="Times New Roman,serif" font-size="14.00">Database</text>
</g>
<!-- database&#45;&gt;sqlite -->
<g id="edge6" class="edge">
<title>database&#45;&gt;sqlite</title>
<path fill="none" stroke="black" d="M214.12,-260.8C209.81,-248.97 203.99,-233.03 199.09,-219.58"/>
<polygon fill="black" stroke="black" points="202.27,-218.08 195.55,-209.89 195.69,-220.48 202.27,-218.08"/>
</g>
<!-- models -->
<g id="node11" class="node">
<title>models</title>
<g id="a_node11"><a xlink:href="https://docs.djangoproject.com/en/3.2/topics/db/models/" xlink:title="Models" target="_blank">
<ellipse fill="none" stroke="black" cx="282.39" cy="-192" rx="38.19" ry="18"/>
<text text-anchor="middle" x="282.39" y="-188.3" font-family="Times New Roman,serif" font-size="14.00">Models</text>
</a>
</g>
</g>
<!-- database&#45;&gt;models -->
<g id="edge5" class="edge">
<title>database&#45;&gt;models</title>
<path fill="none" stroke="black" d="M232.35,-261.61C241.44,-249.15 254.1,-231.79 264.41,-217.65"/>
<polygon fill="black" stroke="black" points="267.41,-219.48 270.48,-209.34 261.76,-215.36 267.41,-219.48"/>
<text text-anchor="middle" x="282.89" y="-231.8" font-family="Times New Roman,serif" font-size="14.00">populates</text>
</g>
<!-- template -->
<g id="node13" class="node">
<title>template</title>
<g id="a_node13"><a xlink:href="https://docs.djangoproject.com/en/3.2/topics/templates/" xlink:title="Template" target="_blank">
<ellipse fill="none" stroke="black" cx="325.39" cy="-105" rx="44.39" ry="18"/>
<text text-anchor="middle" x="325.39" y="-101.3" font-family="Times New Roman,serif" font-size="14.00">Template</text>
</a>
</g>
</g>
<!-- models&#45;&gt;template -->
<g id="edge11" class="edge">
<title>models&#45;&gt;template</title>
<path fill="none" stroke="black" d="M280.24,-173.96C279.72,-163.89 280.42,-151.15 285.39,-141 287.83,-136.03 291.32,-131.47 295.24,-127.39"/>
<polygon fill="black" stroke="black" points="297.63,-129.95 302.62,-120.61 292.89,-124.8 297.63,-129.95"/>
<text text-anchor="middle" x="312.89" y="-144.8" font-family="Times New Roman,serif" font-size="14.00">populates</text>
</g>
<!-- view&#45;&gt;template -->
<g id="edge9" class="edge">
<title>view&#45;&gt;template</title>
<path fill="none" stroke="black" d="M360.6,-174.23C356,-164.47 350,-151.97 344.39,-141 342.85,-137.98 341.2,-134.84 339.55,-131.73"/>
<polygon fill="black" stroke="black" points="342.48,-129.78 334.65,-122.64 336.32,-133.11 342.48,-129.78"/>
<text text-anchor="middle" x="369.39" y="-144.8" font-family="Times New Roman,serif" font-size="14.00">serves</text>
</g>
<!-- html -->
<g id="node14" class="node">
<title>html</title>
<ellipse fill="none" stroke="black" cx="325.39" cy="-18" rx="55.79" ry="18"/>
<text text-anchor="middle" x="325.39" y="-14.3" font-family="Times New Roman,serif" font-size="14.00">HTML/CSS</text>
</g>
<!-- template&#45;&gt;html -->
<g id="edge7" class="edge">
<title>template&#45;&gt;html</title>
<path fill="none" stroke="black" d="M324.22,-86.92C323.88,-81.22 323.56,-74.84 323.39,-69 323.18,-61.65 323.33,-53.69 323.62,-46.33"/>
<polygon fill="black" stroke="black" points="327.13,-46.28 324.13,-36.12 320.14,-45.94 327.13,-46.28"/>
</g>
<!-- template&#45;&gt;html -->
<g id="edge10" class="edge">
<title>template&#45;&gt;html</title>
<path fill="none" stroke="black" d="M325.39,-86.8C325.39,-75.16 325.39,-59.55 325.39,-46.24"/>
<polygon fill="black" stroke="black" points="328.89,-46.18 325.39,-36.18 321.89,-46.18 328.89,-46.18"/>
<text text-anchor="middle" x="351.39" y="-57.8" font-family="Times New Roman,serif" font-size="14.00">generates</text>
</g>
<!-- caller -->
<g id="node15" class="node">
<title>caller</title>
<g id="a_node15"><a xlink:href="https://www.digitalocean.com/community/tutorials/how-to-use-web-apis-in-python-3" xlink:title="Scheduled API calls" target="_blank">
<ellipse fill="none" stroke="black" cx="148.39" cy="-453" rx="84.49" ry="18"/>
<text text-anchor="middle" x="148.39" y="-449.3" font-family="Times New Roman,serif" font-size="14.00">Scheduled API calls</text>
</a>
</g>
</g>
<!-- caller&#45;&gt;reddit -->
<g id="edge12" class="edge">
<title>caller&#45;&gt;reddit</title>
<path fill="none" stroke="black" d="M133.97,-435.21C123.2,-422.67 108.33,-405.35 96.26,-391.3"/>
<polygon fill="black" stroke="black" points="98.71,-388.78 89.54,-383.47 93.4,-393.34 98.71,-388.78"/>
<text text-anchor="middle" x="136.39" y="-405.8" font-family="Times New Roman,serif" font-size="14.00">queries</text>
</g>
<!-- processor -->
<g id="node16" class="node">
<title>processor</title>
<ellipse fill="none" stroke="black" cx="220.39" cy="-366" rx="74.99" ry="18"/>
<text text-anchor="middle" x="220.39" y="-362.3" font-family="Times New Roman,serif" font-size="14.00">Process API data</text>
</g>
<!-- caller&#45;&gt;processor -->
<g id="edge13" class="edge">
<title>caller&#45;&gt;processor</title>
<path fill="none" stroke="black" d="M162.62,-435.21C173.17,-422.75 187.72,-405.57 199.58,-391.57"/>
<polygon fill="black" stroke="black" points="202.41,-393.65 206.2,-383.76 197.06,-389.13 202.41,-393.65"/>
<text text-anchor="middle" x="217.89" y="-405.8" font-family="Times New Roman,serif" font-size="14.00">processes</text>
</g>
<!-- processor&#45;&gt;database -->
<g id="edge14" class="edge">
<title>processor&#45;&gt;database</title>
<path fill="none" stroke="black" d="M220.39,-347.8C220.39,-336.16 220.39,-320.55 220.39,-307.24"/>
<polygon fill="black" stroke="black" points="223.89,-307.18 220.39,-297.18 216.89,-307.18 223.89,-307.18"/>
<text text-anchor="middle" x="230.39" y="-318.8" font-family="Times New Roman,serif" font-size="14.00">fills</text>
</g>
</g>
</svg>
