<?xml version="1.0" encoding="UTF-8" standalone="no"?>
<!DOCTYPE svg PUBLIC "-//W3C//DTD SVG 1.1//EN"
 "http://www.w3.org/Graphics/SVG/1.1/DTD/svg11.dtd">
<!-- Generated by graphviz version 2.47.1 (20210417.1919)
 -->
<!-- Title: techstack Pages: 1 -->
<svg width="719pt" height="500pt"
 viewBox="0.00 0.00 719.00 500.00" xmlns="http://www.w3.org/2000/svg" xmlns:xlink="http://www.w3.org/1999/xlink">
<g id="graph0" class="graph" transform="scale(1 1) rotate(0) translate(4 496)">
<title>techstack</title>
<polygon fill="white" stroke="transparent" points="-4,4 -4,-496 715,-496 715,4 -4,4"/>
<!-- caller -->
<g id="node1" class="node">
<title>caller</title>
<g id="a_node1"><a xlink:href="https://www.digitalocean.com/community/tutorials/how-to-use-web-apis-in-python-3" xlink:title="Scheduled API calls" target="_blank">
<polygon fill="none" stroke="black" points="181,-492 51,-492 51,-488 47,-488 47,-484 51,-484 51,-464 47,-464 47,-460 51,-460 51,-456 181,-456 181,-492"/>
<polyline fill="none" stroke="black" points="51,-488 55,-488 55,-484 51,-484 "/>
<polyline fill="none" stroke="black" points="51,-464 55,-464 55,-460 51,-460 "/>
<text text-anchor="middle" x="116" y="-470.3" font-family="Times New Roman,serif" font-size="14.00">Scheduled API calls</text>
</a>
</g>
</g>
<!-- reddit -->
<g id="node5" class="node">
<title>reddit</title>
<g id="a_node5"><a xlink:href="https://www.reddit.com/dev/api" xlink:title="Reddit API" target="_blank">
<path fill="#8b9fe0" stroke="black" d="M98,-401.73C98,-403.53 80.07,-405 58,-405 35.93,-405 18,-403.53 18,-401.73 18,-401.73 18,-372.27 18,-372.27 18,-370.47 35.93,-369 58,-369 80.07,-369 98,-370.47 98,-372.27 98,-372.27 98,-401.73 98,-401.73"/>
<path fill="none" stroke="black" d="M98,-401.73C98,-399.92 80.07,-398.45 58,-398.45 35.93,-398.45 18,-399.92 18,-401.73"/>
<text text-anchor="middle" x="58" y="-383.3" font-family="Times New Roman,serif" font-size="14.00">Reddit API</text>
</a>
</g>
</g>
<!-- caller&#45;&gt;reddit -->
<g id="edge12" class="edge">
<title>caller&#45;&gt;reddit</title>
<path fill="none" stroke="black" d="M104.26,-455.8C96.01,-443.7 84.82,-427.3 75.51,-413.67"/>
<polygon fill="black" stroke="black" points="78.25,-411.46 69.72,-405.18 72.47,-415.41 78.25,-411.46"/>
<text text-anchor="middle" x="111" y="-426.8" font-family="Times New Roman,serif" font-size="14.00">queries</text>
</g>
<!-- processor -->
<g id="node17" class="node">
<title>processor</title>
<ellipse fill="#e5e6ce" stroke="black" cx="191" cy="-387" rx="74.99" ry="18"/>
<text text-anchor="middle" x="191" y="-383.3" font-family="Times New Roman,serif" font-size="14.00">Process API data</text>
</g>
<!-- caller&#45;&gt;processor -->
<g id="edge13" class="edge">
<title>caller&#45;&gt;processor</title>
<path fill="none" stroke="black" d="M131.18,-455.8C142.13,-443.39 157.07,-426.46 169.28,-412.62"/>
<polygon fill="black" stroke="black" points="172.11,-414.7 176.1,-404.89 166.86,-410.07 172.11,-414.7"/>
<text text-anchor="middle" x="186.5" y="-426.8" font-family="Times New Roman,serif" font-size="14.00">processes</text>
</g>
<!-- redditAPIRules -->
<g id="node2" class="node">
<title>redditAPIRules</title>
<g id="a_node2"><a xlink:href="https://github.com/reddit-archive/reddit/wiki/API" xlink:title="Reddit API Rules" target="_blank">
<polygon fill="none" stroke="black" points="116,-318 0,-318 0,-314 -4,-314 -4,-310 0,-310 0,-290 -4,-290 -4,-286 0,-286 0,-282 116,-282 116,-318"/>
<polyline fill="none" stroke="black" points="0,-314 4,-314 4,-310 0,-310 "/>
<polyline fill="none" stroke="black" points="0,-290 4,-290 4,-286 0,-286 "/>
<text text-anchor="middle" x="58" y="-296.3" font-family="Times New Roman,serif" font-size="14.00">Reddit API Rules</text>
</a>
</g>
</g>
<!-- production -->
<g id="node3" class="node">
<title>production</title>
<polygon fill="none" stroke="black" points="607.5,-405 528.5,-405 528.5,-401 524.5,-401 524.5,-397 528.5,-397 528.5,-377 524.5,-377 524.5,-373 528.5,-373 528.5,-369 607.5,-369 607.5,-405"/>
<polyline fill="none" stroke="black" points="528.5,-401 532.5,-401 532.5,-397 528.5,-397 "/>
<polyline fill="none" stroke="black" points="528.5,-377 532.5,-377 532.5,-373 528.5,-373 "/>
<text text-anchor="middle" x="568" y="-383.3" font-family="Times New Roman,serif" font-size="14.00">Production</text>
</g>
<!-- apache -->
<g id="node8" class="node">
<title>apache</title>
<g id="a_node8"><a xlink:href="https://httpd.apache.org/" xlink:title="Apache" target="_blank">
<path fill="#8b9fe0" stroke="black" d="M704.5,-314.73C704.5,-316.53 691.28,-318 675,-318 658.72,-318 645.5,-316.53 645.5,-314.73 645.5,-314.73 645.5,-285.27 645.5,-285.27 645.5,-283.47 658.72,-282 675,-282 691.28,-282 704.5,-283.47 704.5,-285.27 704.5,-285.27 704.5,-314.73 704.5,-314.73"/>
<path fill="none" stroke="black" d="M704.5,-314.73C704.5,-312.92 691.28,-311.45 675,-311.45 658.72,-311.45 645.5,-312.92 645.5,-314.73"/>
<text text-anchor="middle" x="675" y="-296.3" font-family="Times New Roman,serif" font-size="14.00">Apache</text>
</a>
</g>
</g>
<!-- production&#45;&gt;apache -->
<g id="edge17" class="edge">
<title>production&#45;&gt;apache</title>
<path fill="none" stroke="black" d="M607.76,-371.18C628.1,-363.32 649.35,-354.57 653,-351 659.54,-344.62 664.27,-335.96 667.63,-327.65"/>
<polygon fill="black" stroke="black" points="670.94,-328.79 670.97,-318.19 664.34,-326.46 670.94,-328.79"/>
<text text-anchor="middle" x="687" y="-339.8" font-family="Times New Roman,serif" font-size="14.00">backend</text>
</g>
<!-- modwsgi -->
<g id="node9" class="node">
<title>modwsgi</title>
<g id="a_node9"><a xlink:href="https://modwsgi.readthedocs.io/en/develop/" xlink:title="mod_wsgi" target="_blank">
<path fill="#8b9fe0" stroke="black" d="M609.5,-314.73C609.5,-316.53 592.69,-318 572,-318 551.31,-318 534.5,-316.53 534.5,-314.73 534.5,-314.73 534.5,-285.27 534.5,-285.27 534.5,-283.47 551.31,-282 572,-282 592.69,-282 609.5,-283.47 609.5,-285.27 609.5,-285.27 609.5,-314.73 609.5,-314.73"/>
<path fill="none" stroke="black" d="M609.5,-314.73C609.5,-312.92 592.69,-311.45 572,-311.45 551.31,-311.45 534.5,-312.92 534.5,-314.73"/>
<text text-anchor="middle" x="572" y="-296.3" font-family="Times New Roman,serif" font-size="14.00">mod_wsgi</text>
</a>
</g>
</g>
<!-- production&#45;&gt;modwsgi -->
<g id="edge18" class="edge">
<title>production&#45;&gt;modwsgi</title>
<path fill="none" stroke="black" d="M568.81,-368.8C569.36,-357.16 570.09,-341.55 570.72,-328.24"/>
<polygon fill="black" stroke="black" points="574.22,-328.33 571.19,-318.18 567.23,-328 574.22,-328.33"/>
<text text-anchor="middle" x="611" y="-339.8" font-family="Times New Roman,serif" font-size="14.00">python/apache</text>
</g>
<!-- testing -->
<g id="node4" class="node">
<title>testing</title>
<polygon fill="none" stroke="black" points="684,-405 626,-405 626,-401 622,-401 622,-397 626,-397 626,-377 622,-377 622,-373 626,-373 626,-369 684,-369 684,-405"/>
<polyline fill="none" stroke="black" points="626,-401 630,-401 630,-397 626,-397 "/>
<polyline fill="none" stroke="black" points="626,-377 630,-377 630,-373 626,-373 "/>
<text text-anchor="middle" x="655" y="-383.3" font-family="Times New Roman,serif" font-size="14.00">Testing</text>
</g>
<!-- reddit&#45;&gt;redditAPIRules -->
<g id="edge1" class="edge">
<title>reddit&#45;&gt;redditAPIRules</title>
<path fill="none" stroke="black" d="M58,-368.8C58,-357.16 58,-341.55 58,-328.24"/>
<polygon fill="black" stroke="black" points="61.5,-328.18 58,-318.18 54.5,-328.18 61.5,-328.18"/>
</g>
<!-- django -->
<g id="node6" class="node">
<title>django</title>
<g id="a_node6"><a xlink:href="https://docs.djangoproject.com/en/3.2/" xlink:title="Django" target="_blank">
<path fill="#8b9fe0" stroke="black" d="M340,-401.73C340,-403.53 327.45,-405 312,-405 296.55,-405 284,-403.53 284,-401.73 284,-401.73 284,-372.27 284,-372.27 284,-370.47 296.55,-369 312,-369 327.45,-369 340,-370.47 340,-372.27 340,-372.27 340,-401.73 340,-401.73"/>
<path fill="none" stroke="black" d="M340,-401.73C340,-399.92 327.45,-398.45 312,-398.45 296.55,-398.45 284,-399.92 284,-401.73"/>
<text text-anchor="middle" x="312" y="-383.3" font-family="Times New Roman,serif" font-size="14.00">Django</text>
</a>
</g>
</g>
<!-- models -->
<g id="node13" class="node">
<title>models</title>
<g id="a_node13"><a xlink:href="https://docs.djangoproject.com/en/3.2/topics/db/models/" xlink:title="Models" target="_blank">
<ellipse fill="#e5e6ce" stroke="black" cx="242" cy="-192" rx="38.19" ry="18"/>
<text text-anchor="middle" x="242" y="-188.3" font-family="Times New Roman,serif" font-size="14.00">Models</text>
</a>
</g>
</g>
<!-- django&#45;&gt;models -->
<g id="edge6" class="edge">
<title>django&#45;&gt;models</title>
<path fill="none" stroke="black" d="M303.63,-368.72C301.04,-363.12 298.28,-356.85 296,-351 275.13,-297.44 275.57,-282.05 256,-228 255,-225.23 253.91,-222.35 252.81,-219.49"/>
<polygon fill="black" stroke="black" points="255.99,-218.02 249.06,-210 249.48,-220.59 255.99,-218.02"/>
</g>
<!-- database -->
<g id="node14" class="node">
<title>database</title>
<ellipse fill="#e5e6ce" stroke="black" cx="194" cy="-300" rx="44.39" ry="18"/>
<text text-anchor="middle" x="194" y="-296.3" font-family="Times New Roman,serif" font-size="14.00">Database</text>
</g>
<!-- django&#45;&gt;database -->
<g id="edge7" class="edge">
<title>django&#45;&gt;database</title>
<path fill="none" stroke="black" d="M285.36,-370.26C275.93,-364.44 265.34,-357.65 256,-351 243.79,-342.31 230.81,-332.02 219.89,-323.03"/>
<polygon fill="black" stroke="black" points="221.93,-320.17 212,-316.47 217.45,-325.55 221.93,-320.17"/>
</g>
<!-- view -->
<g id="node15" class="node">
<title>view</title>
<g id="a_node15"><a xlink:href="https://docs.djangoproject.com/en/3.2/#the-view-layer" xlink:title="View" target="_blank">
<ellipse fill="#e5e6ce" stroke="black" cx="355" cy="-246" rx="29.5" ry="18"/>
<text text-anchor="middle" x="355" y="-242.3" font-family="Times New Roman,serif" font-size="14.00">View</text>
</a>
</g>
</g>
<!-- django&#45;&gt;view -->
<g id="edge5" class="edge">
<title>django&#45;&gt;view</title>
<path fill="none" stroke="black" d="M318,-368.96C319.96,-363.26 322.12,-356.87 324,-351 332.36,-324.91 341.22,-294.9 347.32,-273.84"/>
<polygon fill="black" stroke="black" points="350.75,-274.58 350.16,-264 344.03,-272.64 350.75,-274.58"/>
</g>
<!-- template -->
<g id="node16" class="node">
<title>template</title>
<g id="a_node16"><a xlink:href="https://docs.djangoproject.com/en/3.2/topics/templates/" xlink:title="Template" target="_blank">
<ellipse fill="#e5e6ce" stroke="black" cx="310" cy="-105" rx="44.39" ry="18"/>
<text text-anchor="middle" x="310" y="-101.3" font-family="Times New Roman,serif" font-size="14.00">Template</text>
</a>
</g>
</g>
<!-- django&#45;&gt;template -->
<g id="edge8" class="edge">
<title>django&#45;&gt;template</title>
<path fill="none" stroke="black" d="M311.88,-368.91C311.54,-321.95 310.6,-190.65 310.2,-133.34"/>
<polygon fill="black" stroke="black" points="313.69,-133.2 310.12,-123.23 306.69,-133.25 313.69,-133.2"/>
</g>
<!-- sqlite -->
<g id="node7" class="node">
<title>sqlite</title>
<g id="a_node7"><a xlink:href="https://www.sqlite.org/index.html" xlink:title="SQLite" target="_blank">
<path fill="#8b9fe0" stroke="black" d="M186,-206.73C186,-208.53 173.45,-210 158,-210 142.55,-210 130,-208.53 130,-206.73 130,-206.73 130,-177.27 130,-177.27 130,-175.47 142.55,-174 158,-174 173.45,-174 186,-175.47 186,-177.27 186,-177.27 186,-206.73 186,-206.73"/>
<path fill="none" stroke="black" d="M186,-206.73C186,-204.92 173.45,-203.45 158,-203.45 142.55,-203.45 130,-204.92 130,-206.73"/>
<text text-anchor="middle" x="158" y="-188.3" font-family="Times New Roman,serif" font-size="14.00">SQLite</text>
</a>
</g>
</g>
<!-- autodoc -->
<g id="node10" class="node">
<title>autodoc</title>
<g id="a_node10"><a xlink:href="https://www.sphinx-doc.org/en/master/usage/extensions/autodoc.html" xlink:title="sphinx&#45;autodoc" target="_blank">
<path fill="#8b9fe0" stroke="black" d="M502,-401.73C502,-403.53 478.69,-405 450,-405 421.31,-405 398,-403.53 398,-401.73 398,-401.73 398,-372.27 398,-372.27 398,-370.47 421.31,-369 450,-369 478.69,-369 502,-370.47 502,-372.27 502,-372.27 502,-401.73 502,-401.73"/>
<path fill="none" stroke="black" d="M502,-401.73C502,-399.92 478.69,-398.45 450,-398.45 421.31,-398.45 398,-399.92 398,-401.73"/>
<text text-anchor="middle" x="450" y="-383.3" font-family="Times New Roman,serif" font-size="14.00">sphinx&#45;autodoc</text>
</a>
</g>
</g>
<!-- sphinx -->
<g id="node11" class="node">
<title>sphinx</title>
<g id="a_node11"><a xlink:href="https://www.sphinx-doc.org" xlink:title="sphinx documentation" target="_blank">
<path fill="#8b9fe0" stroke="black" d="M516,-314.73C516,-316.53 484.62,-318 446,-318 407.38,-318 376,-316.53 376,-314.73 376,-314.73 376,-285.27 376,-285.27 376,-283.47 407.38,-282 446,-282 484.62,-282 516,-283.47 516,-285.27 516,-285.27 516,-314.73 516,-314.73"/>
<path fill="none" stroke="black" d="M516,-314.73C516,-312.92 484.62,-311.45 446,-311.45 407.38,-311.45 376,-312.92 376,-314.73"/>
<text text-anchor="middle" x="446" y="-296.3" font-family="Times New Roman,serif" font-size="14.00">sphinx documentation</text>
</a>
</g>
</g>
<!-- autodoc&#45;&gt;sphinx -->
<g id="edge16" class="edge">
<title>autodoc&#45;&gt;sphinx</title>
<path fill="none" stroke="black" d="M449.19,-368.8C448.64,-357.16 447.91,-341.55 447.28,-328.24"/>
<polygon fill="black" stroke="black" points="450.77,-328 446.81,-318.18 443.78,-328.33 450.77,-328"/>
<text text-anchor="middle" x="477" y="-339.8" font-family="Times New Roman,serif" font-size="14.00">made with</text>
</g>
<!-- html -->
<g id="node12" class="node">
<title>html</title>
<path fill="#8b9fe0" stroke="black" d="M353,-32.73C353,-34.53 333.73,-36 310,-36 286.27,-36 267,-34.53 267,-32.73 267,-32.73 267,-3.27 267,-3.27 267,-1.47 286.27,0 310,0 333.73,0 353,-1.47 353,-3.27 353,-3.27 353,-32.73 353,-32.73"/>
<path fill="none" stroke="black" d="M353,-32.73C353,-30.92 333.73,-29.45 310,-29.45 286.27,-29.45 267,-30.92 267,-32.73"/>
<text text-anchor="middle" x="310" y="-14.3" font-family="Times New Roman,serif" font-size="14.00">HTML/CSS</text>
</g>
<!-- models&#45;&gt;template -->
<g id="edge11" class="edge">
<title>models&#45;&gt;template</title>
<path fill="none" stroke="black" d="M237.3,-174.05C235.46,-163.75 235,-150.77 241,-141 246.59,-131.89 255.37,-125.06 264.82,-119.98"/>
<polygon fill="black" stroke="black" points="266.47,-123.07 274,-115.62 263.47,-116.75 266.47,-123.07"/>
<text text-anchor="middle" x="268.5" y="-144.8" font-family="Times New Roman,serif" font-size="14.00">populates</text>
</g>
<!-- database&#45;&gt;sqlite -->
<g id="edge3" class="edge">
<title>database&#45;&gt;sqlite</title>
<path fill="none" stroke="black" d="M183.8,-282.34C180.64,-276.67 177.38,-270.2 175,-264 169.59,-249.9 165.54,-233.54 162.74,-220.09"/>
<polygon fill="black" stroke="black" points="166.13,-219.16 160.78,-210.02 159.26,-220.5 166.13,-219.16"/>
</g>
<!-- database&#45;&gt;models -->
<g id="edge2" class="edge">
<title>database&#45;&gt;models</title>
<path fill="none" stroke="black" d="M192.23,-281.93C191.44,-266.88 192.23,-244.8 201,-228 203.78,-222.69 207.73,-217.84 212.1,-213.56"/>
<polygon fill="black" stroke="black" points="214.48,-216.12 219.71,-206.91 209.87,-210.85 214.48,-216.12"/>
<text text-anchor="middle" x="228.5" y="-242.3" font-family="Times New Roman,serif" font-size="14.00">populates</text>
</g>
<!-- view&#45;&gt;template -->
<g id="edge9" class="edge">
<title>view&#45;&gt;template</title>
<path fill="none" stroke="black" d="M350.42,-227.92C344.75,-207.18 334.53,-171.25 324,-141 323.03,-138.22 321.97,-135.33 320.88,-132.47"/>
<polygon fill="black" stroke="black" points="324.06,-131 317.15,-122.97 317.55,-133.56 324.06,-131"/>
<text text-anchor="middle" x="363" y="-188.3" font-family="Times New Roman,serif" font-size="14.00">serves</text>
</g>
<!-- template&#45;&gt;html -->
<g id="edge4" class="edge">
<title>template&#45;&gt;html</title>
<path fill="none" stroke="black" d="M308.83,-86.92C308.49,-81.22 308.17,-74.84 308,-69 307.79,-61.65 307.94,-53.69 308.23,-46.33"/>
<polygon fill="black" stroke="black" points="311.74,-46.28 308.73,-36.12 304.74,-45.94 311.74,-46.28"/>
</g>
<!-- template&#45;&gt;html -->
<g id="edge10" class="edge">
<title>template&#45;&gt;html</title>
<path fill="none" stroke="black" d="M310,-86.8C310,-75.16 310,-59.55 310,-46.24"/>
<polygon fill="black" stroke="black" points="313.5,-46.18 310,-36.18 306.5,-46.18 313.5,-46.18"/>
<text text-anchor="middle" x="336" y="-57.8" font-family="Times New Roman,serif" font-size="14.00">generates</text>
</g>
<!-- processor&#45;&gt;database -->
<g id="edge14" class="edge">
<title>processor&#45;&gt;database</title>
<path fill="none" stroke="black" d="M191.61,-368.8C192.02,-357.16 192.57,-341.55 193.04,-328.24"/>
<polygon fill="black" stroke="black" points="196.54,-328.29 193.39,-318.18 189.54,-328.05 196.54,-328.29"/>
<text text-anchor="middle" x="203" y="-339.8" font-family="Times New Roman,serif" font-size="14.00">fills</text>
</g>
<!-- codebase -->
<g id="node18" class="node">
<title>codebase</title>
<g id="a_node18"><a xlink:href="https://www.github.com/unhm-programming-team" xlink:title="Code Base" target="_blank">
<ellipse fill="#e5e6ce" stroke="black" cx="510" cy="-474" rx="50.89" ry="18"/>
<text text-anchor="middle" x="510" y="-470.3" font-family="Times New Roman,serif" font-size="14.00">Code Base</text>
</a>
</g>
</g>
<!-- codebase&#45;&gt;production -->
<g id="edge19" class="edge">
<title>codebase&#45;&gt;production</title>
<path fill="none" stroke="black" d="M521.46,-456.21C529.75,-444.06 541.09,-427.43 550.51,-413.63"/>
<polygon fill="black" stroke="black" points="553.62,-415.28 556.37,-405.05 547.84,-411.34 553.62,-415.28"/>
</g>
<!-- codebase&#45;&gt;testing -->
<g id="edge20" class="edge">
<title>codebase&#45;&gt;testing</title>
<path fill="none" stroke="black" d="M535.26,-458.19C557.83,-444.96 591.23,-425.39 617.02,-410.27"/>
<polygon fill="black" stroke="black" points="618.94,-413.2 625.79,-405.12 615.4,-407.16 618.94,-413.2"/>
</g>
<!-- codebase&#45;&gt;django -->
<g id="edge21" class="edge">
<title>codebase&#45;&gt;django</title>
<path fill="none" stroke="black" d="M461.14,-468.76C430.48,-464.42 391.02,-455.66 360,-438 349,-431.74 338.94,-422.18 330.9,-413.09"/>
<polygon fill="black" stroke="black" points="333.49,-410.74 324.38,-405.32 328.12,-415.23 333.49,-410.74"/>
<text text-anchor="middle" x="416" y="-426.8" font-family="Times New Roman,serif" font-size="14.00">mostly written using</text>
</g>
<!-- codebase&#45;&gt;autodoc -->
<g id="edge15" class="edge">
<title>codebase&#45;&gt;autodoc</title>
<path fill="none" stroke="black" d="M498.15,-456.21C489.49,-443.95 477.61,-427.11 467.82,-413.24"/>
<polygon fill="black" stroke="black" points="470.66,-411.2 462.03,-405.05 464.94,-415.24 470.66,-411.2"/>
<text text-anchor="middle" x="494" y="-426.8" font-family="Times New Roman,serif" font-size="14.00">doc</text>
</g>
</g>
</svg>
