<?xml version="1.0" encoding="UTF-8" standalone="no"?>
<!DOCTYPE svg PUBLIC "-//W3C//DTD SVG 1.1//EN"
 "http://www.w3.org/Graphics/SVG/1.1/DTD/svg11.dtd">
<!-- Generated by graphviz version 2.47.1 (20210417.1919)
 -->
<!-- Title: foo Pages: 1 -->
<svg width="856pt" height="131pt"
 viewBox="0.00 0.00 856.00 131.00" xmlns="http://www.w3.org/2000/svg" xmlns:xlink="http://www.w3.org/1999/xlink">
<g id="graph0" class="graph" transform="scale(1 1) rotate(0) translate(4 127)">
<title>foo</title>
<polygon fill="white" stroke="transparent" points="-4,4 -4,-127 852,-127 852,4 -4,4"/>
<!-- reddit -->
<g id="node1" class="node">
<title>reddit</title>
<ellipse fill="none" stroke="black" cx="159" cy="-105" rx="53.89" ry="18"/>
<text text-anchor="middle" x="159" y="-101.3" font-family="Times New Roman,serif" font-size="14.00">Reddit Data</text>
</g>
<!-- redditAPI -->
<g id="node2" class="node">
<title>redditAPI</title>
<g id="a_node2"><a xlink:href="https://www.reddit.com/dev/api" xlink:title="Reddit API" target="_blank">
<ellipse fill="none" stroke="black" cx="52" cy="-18" rx="51.99" ry="18"/>
<text text-anchor="middle" x="52" y="-14.3" font-family="Times New Roman,serif" font-size="14.00">Reddit API</text>
</a>
</g>
</g>
<!-- reddit&#45;&gt;redditAPI -->
<g id="edge1" class="edge">
<title>reddit&#45;&gt;redditAPI</title>
<path fill="none" stroke="black" d="M139.12,-88.21C122.38,-74.91 98.25,-55.74 79.63,-40.95"/>
<polygon fill="black" stroke="black" points="81.77,-38.18 71.76,-34.7 77.42,-43.66 81.77,-38.18"/>
<text text-anchor="middle" x="134" y="-57.8" font-family="Times New Roman,serif" font-size="14.00">get with</text>
</g>
<!-- redditAPIRules -->
<g id="node3" class="node">
<title>redditAPIRules</title>
<g id="a_node3"><a xlink:href="https://github.com/reddit-archive/reddit/wiki/API" xlink:title="Reddit API Rules" target="_blank">
<ellipse fill="none" stroke="black" cx="197" cy="-18" rx="75.29" ry="18"/>
<text text-anchor="middle" x="197" y="-14.3" font-family="Times New Roman,serif" font-size="14.00">Reddit API Rules</text>
</a>
</g>
</g>
<!-- reddit&#45;&gt;redditAPIRules -->
<g id="edge2" class="edge">
<title>reddit&#45;&gt;redditAPIRules</title>
<path fill="none" stroke="black" d="M166.69,-86.8C171.99,-74.93 179.15,-58.93 185.17,-45.45"/>
<polygon fill="black" stroke="black" points="188.43,-46.73 189.32,-36.18 182.04,-43.88 188.43,-46.73"/>
<text text-anchor="middle" x="202" y="-57.8" font-family="Times New Roman,serif" font-size="14.00">follows</text>
</g>
<!-- documentation -->
<g id="node4" class="node">
<title>documentation</title>
<ellipse fill="none" stroke="black" cx="363" cy="-105" rx="64.19" ry="18"/>
<text text-anchor="middle" x="363" y="-101.3" font-family="Times New Roman,serif" font-size="14.00">documentation</text>
</g>
<!-- sphinx -->
<g id="node5" class="node">
<title>sphinx</title>
<g id="a_node5"><a xlink:href="https://www.sphinx-doc.org" xlink:title="sphinx" target="_blank">
<ellipse fill="none" stroke="black" cx="363" cy="-18" rx="34.39" ry="18"/>
<text text-anchor="middle" x="363" y="-14.3" font-family="Times New Roman,serif" font-size="14.00">sphinx</text>
</a>
</g>
</g>
<!-- documentation&#45;&gt;sphinx -->
<g id="edge3" class="edge">
<title>documentation&#45;&gt;sphinx</title>
<path fill="none" stroke="black" d="M363,-86.8C363,-75.16 363,-59.55 363,-46.24"/>
<polygon fill="black" stroke="black" points="366.5,-46.18 363,-36.18 359.5,-46.18 366.5,-46.18"/>
<text text-anchor="middle" x="392" y="-57.8" font-family="Times New Roman,serif" font-size="14.00">made with</text>
</g>
<!-- django -->
<g id="node6" class="node">
<title>django</title>
<g id="a_node6"><a xlink:href="https://docs.djangoproject.com/en/3.2/" xlink:title="Django" target="_blank">
<ellipse fill="none" stroke="black" cx="482" cy="-105" rx="36.29" ry="18"/>
<text text-anchor="middle" x="482" y="-101.3" font-family="Times New Roman,serif" font-size="14.00">Django</text>
</a>
</g>
</g>
<!-- sqlite -->
<g id="node7" class="node">
<title>sqlite</title>
<g id="a_node7"><a xlink:href="https://www.sqlite.org/index.html" xlink:title="SQLite" target="_blank">
<ellipse fill="none" stroke="black" cx="573" cy="-105" rx="36.29" ry="18"/>
<text text-anchor="middle" x="573" y="-101.3" font-family="Times New Roman,serif" font-size="14.00">SQLite</text>
</a>
</g>
</g>
<!-- production -->
<g id="node8" class="node">
<title>production</title>
<ellipse fill="none" stroke="black" cx="679" cy="-105" rx="51.19" ry="18"/>
<text text-anchor="middle" x="679" y="-101.3" font-family="Times New Roman,serif" font-size="14.00">Production</text>
</g>
<!-- apache -->
<g id="node9" class="node">
<title>apache</title>
<g id="a_node9"><a xlink:href="https://httpd.apache.org/" xlink:title="Apache" target="_blank">
<ellipse fill="none" stroke="black" cx="578" cy="-18" rx="38.19" ry="18"/>
<text text-anchor="middle" x="578" y="-14.3" font-family="Times New Roman,serif" font-size="14.00">Apache</text>
</a>
</g>
</g>
<!-- production&#45;&gt;apache -->
<g id="edge4" class="edge">
<title>production&#45;&gt;apache</title>
<path fill="none" stroke="black" d="M655.76,-88.91C647.12,-83 637.39,-75.97 629,-69 619.11,-60.79 608.87,-51.03 600.18,-42.33"/>
<polygon fill="black" stroke="black" points="602.5,-39.69 593,-35.01 597.51,-44.6 602.5,-39.69"/>
<text text-anchor="middle" x="653" y="-57.8" font-family="Times New Roman,serif" font-size="14.00">backend</text>
</g>
<!-- modwsgi -->
<g id="node10" class="node">
<title>modwsgi</title>
<g id="a_node10"><a xlink:href="https://modwsgi.readthedocs.io/en/develop/" xlink:title="mod_wsgi" target="_blank">
<ellipse fill="none" stroke="black" cx="683" cy="-18" rx="48.99" ry="18"/>
<text text-anchor="middle" x="683" y="-14.3" font-family="Times New Roman,serif" font-size="14.00">mod_wsgi</text>
</a>
</g>
</g>
<!-- production&#45;&gt;modwsgi -->
<g id="edge5" class="edge">
<title>production&#45;&gt;modwsgi</title>
<path fill="none" stroke="black" d="M679.8,-86.8C680.35,-75.16 681.09,-59.55 681.71,-46.24"/>
<polygon fill="black" stroke="black" points="685.21,-46.33 682.19,-36.18 678.22,-46 685.21,-46.33"/>
<text text-anchor="middle" x="723" y="-57.8" font-family="Times New Roman,serif" font-size="14.00">python/apache</text>
</g>
<!-- database -->
<g id="node11" class="node">
<title>database</title>
<ellipse fill="none" stroke="black" cx="793" cy="-105" rx="44.39" ry="18"/>
<text text-anchor="middle" x="793" y="-101.3" font-family="Times New Roman,serif" font-size="14.00">Database</text>
</g>
<!-- models -->
<g id="node12" class="node">
<title>models</title>
<g id="a_node12"><a xlink:href="https://docs.djangoproject.com/en/3.2/topics/db/models/" xlink:title="Models" target="_blank">
<ellipse fill="none" stroke="black" cx="793" cy="-18" rx="38.19" ry="18"/>
<text text-anchor="middle" x="793" y="-14.3" font-family="Times New Roman,serif" font-size="14.00">Models</text>
</a>
</g>
</g>
<!-- database&#45;&gt;models -->
<g id="edge6" class="edge">
<title>database&#45;&gt;models</title>
<path fill="none" stroke="black" d="M793,-86.8C793,-75.16 793,-59.55 793,-46.24"/>
<polygon fill="black" stroke="black" points="796.5,-46.18 793,-36.18 789.5,-46.18 796.5,-46.18"/>
<text text-anchor="middle" x="820.5" y="-57.8" font-family="Times New Roman,serif" font-size="14.00">populates</text>
</g>
</g>
</svg>
