<?xml version="1.0" encoding="UTF-8" standalone="no"?>
<!DOCTYPE svg PUBLIC "-//W3C//DTD SVG 1.1//EN"
 "http://www.w3.org/Graphics/SVG/1.1/DTD/svg11.dtd">
<!-- Generated by graphviz version 2.47.1 (20210417.1919)
 -->
<!-- Title: foo Pages: 1 -->
<svg width="710pt" height="500pt"
 viewBox="0.00 0.00 710.39 500.00" xmlns="http://www.w3.org/2000/svg" xmlns:xlink="http://www.w3.org/1999/xlink">
<g id="graph0" class="graph" transform="scale(1 1) rotate(0) translate(4 496)">
<title>foo</title>
<polygon fill="white" stroke="transparent" points="-4,4 -4,-496 706.39,-496 706.39,4 -4,4"/>
<!-- reddit -->
<g id="node1" class="node">
<title>reddit</title>
<g id="a_node1"><a xlink:href="https://www.reddit.com/dev/api" xlink:title="Reddit API" target="_blank">
<ellipse fill="none" stroke="black" cx="75.39" cy="-387" rx="51.99" ry="18"/>
<text text-anchor="middle" x="75.39" y="-383.3" font-family="Times New Roman,serif" font-size="14.00">Reddit API</text>
</a>
</g>
</g>
<!-- redditAPIRules -->
<g id="node2" class="node">
<title>redditAPIRules</title>
<g id="a_node2"><a xlink:href="https://github.com/reddit-archive/reddit/wiki/API" xlink:title="Reddit API Rules" target="_blank">
<ellipse fill="none" stroke="black" cx="75.39" cy="-300" rx="75.29" ry="18"/>
<text text-anchor="middle" x="75.39" y="-296.3" font-family="Times New Roman,serif" font-size="14.00">Reddit API Rules</text>
</a>
</g>
</g>
<!-- reddit&#45;&gt;redditAPIRules -->
<g id="edge1" class="edge">
<title>reddit&#45;&gt;redditAPIRules</title>
<path fill="none" stroke="black" d="M75.39,-368.8C75.39,-357.16 75.39,-341.55 75.39,-328.24"/>
<polygon fill="black" stroke="black" points="78.89,-328.18 75.39,-318.18 71.89,-328.18 78.89,-328.18"/>
</g>
<!-- documentation -->
<g id="node3" class="node">
<title>documentation</title>
<ellipse fill="none" stroke="black" cx="438.39" cy="-474" rx="64.19" ry="18"/>
<text text-anchor="middle" x="438.39" y="-470.3" font-family="Times New Roman,serif" font-size="14.00">documentation</text>
</g>
<!-- sphinx -->
<g id="node4" class="node">
<title>sphinx</title>
<g id="a_node4"><a xlink:href="https://www.sphinx-doc.org" xlink:title="sphinx" target="_blank">
<ellipse fill="none" stroke="black" cx="438.39" cy="-387" rx="34.39" ry="18"/>
<text text-anchor="middle" x="438.39" y="-383.3" font-family="Times New Roman,serif" font-size="14.00">sphinx</text>
</a>
</g>
</g>
<!-- documentation&#45;&gt;sphinx -->
<g id="edge2" class="edge">
<title>documentation&#45;&gt;sphinx</title>
<path fill="none" stroke="black" d="M438.39,-455.8C438.39,-444.16 438.39,-428.55 438.39,-415.24"/>
<polygon fill="black" stroke="black" points="441.89,-415.18 438.39,-405.18 434.89,-415.18 441.89,-415.18"/>
<text text-anchor="middle" x="467.39" y="-426.8" font-family="Times New Roman,serif" font-size="14.00">made with</text>
</g>
<!-- django -->
<g id="node5" class="node">
<title>django</title>
<g id="a_node5"><a xlink:href="https://docs.djangoproject.com/en/3.2/" xlink:title="Django" target="_blank">
<ellipse fill="none" stroke="black" cx="349.39" cy="-387" rx="36.29" ry="18"/>
<text text-anchor="middle" x="349.39" y="-383.3" font-family="Times New Roman,serif" font-size="14.00">Django</text>
</a>
</g>
</g>
<!-- database -->
<g id="node10" class="node">
<title>database</title>
<ellipse fill="none" stroke="black" cx="225.39" cy="-300" rx="44.39" ry="18"/>
<text text-anchor="middle" x="225.39" y="-296.3" font-family="Times New Roman,serif" font-size="14.00">Database</text>
</g>
<!-- django&#45;&gt;database -->
<g id="edge10" class="edge">
<title>django&#45;&gt;database</title>
<path fill="none" stroke="black" d="M325.87,-373.25C314.61,-366.91 301.07,-358.92 289.39,-351 276.62,-342.34 263.07,-331.95 251.75,-322.89"/>
<polygon fill="black" stroke="black" points="253.91,-320.14 243.93,-316.57 249.51,-325.58 253.91,-320.14"/>
</g>
<!-- models -->
<g id="node11" class="node">
<title>models</title>
<g id="a_node11"><a xlink:href="https://docs.djangoproject.com/en/3.2/topics/db/models/" xlink:title="Models" target="_blank">
<ellipse fill="none" stroke="black" cx="275.39" cy="-192" rx="38.19" ry="18"/>
<text text-anchor="middle" x="275.39" y="-188.3" font-family="Times New Roman,serif" font-size="14.00">Models</text>
</a>
</g>
</g>
<!-- django&#45;&gt;models -->
<g id="edge9" class="edge">
<title>django&#45;&gt;models</title>
<path fill="none" stroke="black" d="M343.01,-368.89C332.15,-339.86 309.32,-279.12 289.39,-228 288.32,-225.26 287.2,-222.4 286.07,-219.54"/>
<polygon fill="black" stroke="black" points="289.24,-218.06 282.29,-210.07 282.74,-220.65 289.24,-218.06"/>
</g>
<!-- view -->
<g id="node12" class="node">
<title>view</title>
<g id="a_node12"><a xlink:href="https://docs.djangoproject.com/en/3.2/#the-view-layer" xlink:title="View" target="_blank">
<ellipse fill="none" stroke="black" cx="349.39" cy="-246" rx="29.5" ry="18"/>
<text text-anchor="middle" x="349.39" y="-242.3" font-family="Times New Roman,serif" font-size="14.00">View</text>
</a>
</g>
</g>
<!-- django&#45;&gt;view -->
<g id="edge8" class="edge">
<title>django&#45;&gt;view</title>
<path fill="none" stroke="black" d="M349.39,-368.96C349.39,-345.4 349.39,-302.64 349.39,-274.53"/>
<polygon fill="black" stroke="black" points="352.89,-274.18 349.39,-264.18 345.89,-274.18 352.89,-274.18"/>
</g>
<!-- template -->
<g id="node13" class="node">
<title>template</title>
<g id="a_node13"><a xlink:href="https://docs.djangoproject.com/en/3.2/topics/templates/" xlink:title="Template" target="_blank">
<ellipse fill="none" stroke="black" cx="349.39" cy="-105" rx="44.39" ry="18"/>
<text text-anchor="middle" x="349.39" y="-101.3" font-family="Times New Roman,serif" font-size="14.00">Template</text>
</a>
</g>
</g>
<!-- django&#45;&gt;template -->
<g id="edge11" class="edge">
<title>django&#45;&gt;template</title>
<path fill="none" stroke="black" d="M357.62,-369.3C374.29,-333.24 408.88,-245.56 389.39,-174 385.19,-158.58 376.51,-143.09 368.31,-130.8"/>
<polygon fill="black" stroke="black" points="371.08,-128.66 362.49,-122.46 365.34,-132.66 371.08,-128.66"/>
</g>
<!-- sqlite -->
<g id="node6" class="node">
<title>sqlite</title>
<g id="a_node6"><a xlink:href="https://www.sqlite.org/index.html" xlink:title="SQLite" target="_blank">
<ellipse fill="none" stroke="black" cx="182.39" cy="-192" rx="36.29" ry="18"/>
<text text-anchor="middle" x="182.39" y="-188.3" font-family="Times New Roman,serif" font-size="14.00">SQLite</text>
</a>
</g>
</g>
<!-- production -->
<g id="node7" class="node">
<title>production</title>
<ellipse fill="none" stroke="black" cx="603.39" cy="-474" rx="51.19" ry="18"/>
<text text-anchor="middle" x="603.39" y="-470.3" font-family="Times New Roman,serif" font-size="14.00">Production</text>
</g>
<!-- apache -->
<g id="node8" class="node">
<title>apache</title>
<g id="a_node8"><a xlink:href="https://httpd.apache.org/" xlink:title="Apache" target="_blank">
<ellipse fill="none" stroke="black" cx="529.39" cy="-387" rx="38.19" ry="18"/>
<text text-anchor="middle" x="529.39" y="-383.3" font-family="Times New Roman,serif" font-size="14.00">Apache</text>
</a>
</g>
</g>
<!-- production&#45;&gt;apache -->
<g id="edge3" class="edge">
<title>production&#45;&gt;apache</title>
<path fill="none" stroke="black" d="M583.92,-457.09C577.41,-451.37 570.31,-444.67 564.39,-438 557.58,-430.31 550.91,-421.28 545.25,-413.02"/>
<polygon fill="black" stroke="black" points="548,-410.84 539.54,-404.46 542.18,-414.72 548,-410.84"/>
<text text-anchor="middle" x="588.39" y="-426.8" font-family="Times New Roman,serif" font-size="14.00">backend</text>
</g>
<!-- modwsgi -->
<g id="node9" class="node">
<title>modwsgi</title>
<g id="a_node9"><a xlink:href="https://modwsgi.readthedocs.io/en/develop/" xlink:title="mod_wsgi" target="_blank">
<ellipse fill="none" stroke="black" cx="634.39" cy="-387" rx="48.99" ry="18"/>
<text text-anchor="middle" x="634.39" y="-383.3" font-family="Times New Roman,serif" font-size="14.00">mod_wsgi</text>
</a>
</g>
</g>
<!-- production&#45;&gt;modwsgi -->
<g id="edge4" class="edge">
<title>production&#45;&gt;modwsgi</title>
<path fill="none" stroke="black" d="M609.67,-455.8C613.98,-443.97 619.79,-428.03 624.7,-414.58"/>
<polygon fill="black" stroke="black" points="628.1,-415.48 628.24,-404.89 621.52,-413.08 628.1,-415.48"/>
<text text-anchor="middle" x="661.39" y="-426.8" font-family="Times New Roman,serif" font-size="14.00">python/apache</text>
</g>
<!-- database&#45;&gt;sqlite -->
<g id="edge6" class="edge">
<title>database&#45;&gt;sqlite</title>
<path fill="none" stroke="black" d="M216.13,-282.13C213.17,-276.45 209.99,-270.02 207.39,-264 201.17,-249.56 195.28,-233.01 190.77,-219.52"/>
<polygon fill="black" stroke="black" points="194.06,-218.3 187.62,-209.89 187.41,-220.48 194.06,-218.3"/>
</g>
<!-- database&#45;&gt;models -->
<g id="edge5" class="edge">
<title>database&#45;&gt;models</title>
<path fill="none" stroke="black" d="M224.21,-281.89C223.91,-266.82 225.36,-244.73 234.39,-228 237.24,-222.72 241.23,-217.9 245.62,-213.62"/>
<polygon fill="black" stroke="black" points="248,-216.19 253.23,-206.98 243.39,-210.92 248,-216.19"/>
<text text-anchor="middle" x="261.89" y="-242.3" font-family="Times New Roman,serif" font-size="14.00">populates</text>
</g>
<!-- models&#45;&gt;template -->
<g id="edge14" class="edge">
<title>models&#45;&gt;template</title>
<path fill="none" stroke="black" d="M273.2,-173.86C272.76,-163.5 273.89,-150.5 280.39,-141 286.43,-132.18 295.38,-125.46 304.85,-120.39"/>
<polygon fill="black" stroke="black" points="306.5,-123.49 314.01,-116.02 303.48,-117.17 306.5,-123.49"/>
<text text-anchor="middle" x="307.89" y="-144.8" font-family="Times New Roman,serif" font-size="14.00">populates</text>
</g>
<!-- view&#45;&gt;template -->
<g id="edge12" class="edge">
<title>view&#45;&gt;template</title>
<path fill="none" stroke="black" d="M349.39,-227.96C349.39,-204.4 349.39,-161.64 349.39,-133.53"/>
<polygon fill="black" stroke="black" points="352.89,-133.18 349.39,-123.18 345.89,-133.18 352.89,-133.18"/>
<text text-anchor="middle" x="367.39" y="-188.3" font-family="Times New Roman,serif" font-size="14.00">serves</text>
</g>
<!-- html -->
<g id="node14" class="node">
<title>html</title>
<ellipse fill="none" stroke="black" cx="349.39" cy="-18" rx="55.79" ry="18"/>
<text text-anchor="middle" x="349.39" y="-14.3" font-family="Times New Roman,serif" font-size="14.00">HTML/CSS</text>
</g>
<!-- template&#45;&gt;html -->
<g id="edge7" class="edge">
<title>template&#45;&gt;html</title>
<path fill="none" stroke="black" d="M348.22,-86.92C347.88,-81.22 347.56,-74.84 347.39,-69 347.18,-61.65 347.33,-53.69 347.62,-46.33"/>
<polygon fill="black" stroke="black" points="351.13,-46.28 348.13,-36.12 344.14,-45.94 351.13,-46.28"/>
</g>
<!-- template&#45;&gt;html -->
<g id="edge13" class="edge">
<title>template&#45;&gt;html</title>
<path fill="none" stroke="black" d="M349.39,-86.8C349.39,-75.16 349.39,-59.55 349.39,-46.24"/>
<polygon fill="black" stroke="black" points="352.89,-46.18 349.39,-36.18 345.89,-46.18 352.89,-46.18"/>
<text text-anchor="middle" x="375.39" y="-57.8" font-family="Times New Roman,serif" font-size="14.00">generates</text>
</g>
<!-- caller -->
<g id="node15" class="node">
<title>caller</title>
<g id="a_node15"><a xlink:href="https://www.digitalocean.com/community/tutorials/how-to-use-web-apis-in-python-3" xlink:title="Scheduled API calls" target="_blank">
<ellipse fill="none" stroke="black" cx="137.39" cy="-474" rx="84.49" ry="18"/>
<text text-anchor="middle" x="137.39" y="-470.3" font-family="Times New Roman,serif" font-size="14.00">Scheduled API calls</text>
</a>
</g>
</g>
<!-- caller&#45;&gt;reddit -->
<g id="edge15" class="edge">
<title>caller&#45;&gt;reddit</title>
<path fill="none" stroke="black" d="M124.85,-455.8C115.82,-443.43 103.52,-426.55 93.44,-412.74"/>
<polygon fill="black" stroke="black" points="96.22,-410.61 87.5,-404.6 90.56,-414.74 96.22,-410.61"/>
<text text-anchor="middle" x="130.39" y="-426.8" font-family="Times New Roman,serif" font-size="14.00">queries</text>
</g>
<!-- processor -->
<g id="node16" class="node">
<title>processor</title>
<ellipse fill="none" stroke="black" cx="220.39" cy="-387" rx="74.99" ry="18"/>
<text text-anchor="middle" x="220.39" y="-383.3" font-family="Times New Roman,serif" font-size="14.00">Process API data</text>
</g>
<!-- caller&#45;&gt;processor -->
<g id="edge16" class="edge">
<title>caller&#45;&gt;processor</title>
<path fill="none" stroke="black" d="M153.79,-456.21C166.07,-443.63 183.04,-426.25 196.78,-412.18"/>
<polygon fill="black" stroke="black" points="199.55,-414.36 204.03,-404.76 194.54,-409.47 199.55,-414.36"/>
<text text-anchor="middle" x="212.89" y="-426.8" font-family="Times New Roman,serif" font-size="14.00">processes</text>
</g>
<!-- processor&#45;&gt;database -->
<g id="edge17" class="edge">
<title>processor&#45;&gt;database</title>
<path fill="none" stroke="black" d="M221.41,-368.8C222.09,-357.16 223.01,-341.55 223.79,-328.24"/>
<polygon fill="black" stroke="black" points="227.29,-328.36 224.38,-318.18 220.3,-327.95 227.29,-328.36"/>
<text text-anchor="middle" x="233.39" y="-339.8" font-family="Times New Roman,serif" font-size="14.00">fills</text>
</g>
</g>
</svg>
