<?xml version="1.0" encoding="UTF-8" standalone="no"?>
<!DOCTYPE svg PUBLIC "-//W3C//DTD SVG 1.1//EN"
 "http://www.w3.org/Graphics/SVG/1.1/DTD/svg11.dtd">
<!-- Generated by graphviz version 2.47.1 (20210417.1919)
 -->
<!-- Title: foo Pages: 1 -->
<svg width="506pt" height="116pt"
 viewBox="0.00 0.00 506.29 116.00" xmlns="http://www.w3.org/2000/svg" xmlns:xlink="http://www.w3.org/1999/xlink">
<g id="graph0" class="graph" transform="scale(1 1) rotate(0) translate(4 112)">
<title>foo</title>
<polygon fill="white" stroke="transparent" points="-4,4 -4,-112 502.29,-112 502.29,4 -4,4"/>
<!-- reddit -->
<g id="node1" class="node">
<title>reddit</title>
<ellipse fill="none" stroke="black" cx="210.84" cy="-90" rx="53.89" ry="18"/>
<text text-anchor="middle" x="210.84" y="-86.3" font-family="Times New Roman,serif" font-size="14.00">Reddit Data</text>
</g>
<!-- redditAPI -->
<g id="node2" class="node">
<title>redditAPI</title>
<g id="a_node2"><a xlink:href="https://www.reddit.com/dev/api" xlink:title="Reddit API Documentation" target="_blank">
<ellipse fill="none" stroke="black" cx="109.84" cy="-18" rx="109.68" ry="18"/>
<text text-anchor="middle" x="109.84" y="-14.3" font-family="Times New Roman,serif" font-size="14.00">Reddit API Documentation</text>
</a>
</g>
</g>
<!-- reddit&#45;&gt;redditAPI -->
<g id="edge1" class="edge">
<title>reddit&#45;&gt;redditAPI</title>
<path fill="none" stroke="black" d="M188.43,-73.46C174.92,-64.1 157.48,-52.02 142.47,-41.61"/>
<polygon fill="black" stroke="black" points="144.17,-38.53 133.96,-35.71 140.18,-44.29 144.17,-38.53"/>
</g>
<!-- redditAPIRules -->
<g id="node3" class="node">
<title>redditAPIRules</title>
<g id="a_node3"><a xlink:href="https://github.com/reddit-archive/reddit/wiki/API" xlink:title="Reddit API Rules" target="_blank">
<ellipse fill="none" stroke="black" cx="312.84" cy="-18" rx="75.29" ry="18"/>
<text text-anchor="middle" x="312.84" y="-14.3" font-family="Times New Roman,serif" font-size="14.00">Reddit API Rules</text>
</a>
</g>
</g>
<!-- reddit&#45;&gt;redditAPIRules -->
<g id="edge2" class="edge">
<title>reddit&#45;&gt;redditAPIRules</title>
<path fill="none" stroke="black" d="M233.48,-73.46C247.31,-63.97 265.23,-51.67 280.54,-41.17"/>
<polygon fill="black" stroke="black" points="282.94,-43.77 289.2,-35.22 278.98,-37.99 282.94,-43.77"/>
</g>
<!-- documentation -->
<g id="node4" class="node">
<title>documentation</title>
<ellipse fill="none" stroke="black" cx="346.84" cy="-90" rx="64.19" ry="18"/>
<text text-anchor="middle" x="346.84" y="-86.3" font-family="Times New Roman,serif" font-size="14.00">documentation</text>
</g>
<!-- sphinx -->
<g id="node5" class="node">
<title>sphinx</title>
<g id="a_node5"><a xlink:href="https://www.sphinx-doc.org" xlink:title="sphinx" target="_blank">
<ellipse fill="none" stroke="black" cx="463.84" cy="-90" rx="34.39" ry="18"/>
<text text-anchor="middle" x="463.84" y="-86.3" font-family="Times New Roman,serif" font-size="14.00">sphinx</text>
</a>
</g>
</g>
</g>
</svg>
