<?xml version="1.0" encoding="UTF-8" standalone="no"?>
<!DOCTYPE svg PUBLIC "-//W3C//DTD SVG 1.1//EN"
 "http://www.w3.org/Graphics/SVG/1.1/DTD/svg11.dtd">
<!-- Generated by graphviz version 2.47.1 (20210417.1919)
 -->
<!-- Title: techstack Pages: 1 -->
<svg width="764pt" height="500pt"
 viewBox="0.00 0.00 763.99 500.00" xmlns="http://www.w3.org/2000/svg" xmlns:xlink="http://www.w3.org/1999/xlink">
<g id="graph0" class="graph" transform="scale(1 1) rotate(0) translate(4 496)">
<title>techstack</title>
<polygon fill="white" stroke="transparent" points="-4,4 -4,-496 759.99,-496 759.99,4 -4,4"/>
<!-- caller -->
<g id="node1" class="node">
<title>caller</title>
<g id="a_node1"><a xlink:href="https://www.digitalocean.com/community/tutorials/how-to-use-web-apis-in-python-3" xlink:title="Scheduled API calls" target="_blank">
<polygon fill="none" stroke="black" points="181,-492 51,-492 51,-488 47,-488 47,-484 51,-484 51,-464 47,-464 47,-460 51,-460 51,-456 181,-456 181,-492"/>
<polyline fill="none" stroke="black" points="51,-488 55,-488 55,-484 51,-484 "/>
<polyline fill="none" stroke="black" points="51,-464 55,-464 55,-460 51,-460 "/>
<text text-anchor="middle" x="116" y="-470.3" font-family="Times New Roman,serif" font-size="14.00">Scheduled API calls</text>
</a>
</g>
</g>
<!-- reddit -->
<g id="node2" class="node">
<title>reddit</title>
<g id="a_node2"><a xlink:href="https://www.reddit.com/dev/api" xlink:title="Reddit API" target="_blank">
<path fill="#8b9fe0" stroke="black" d="M98,-401.73C98,-403.53 80.07,-405 58,-405 35.93,-405 18,-403.53 18,-401.73 18,-401.73 18,-372.27 18,-372.27 18,-370.47 35.93,-369 58,-369 80.07,-369 98,-370.47 98,-372.27 98,-372.27 98,-401.73 98,-401.73"/>
<path fill="none" stroke="black" d="M98,-401.73C98,-399.92 80.07,-398.45 58,-398.45 35.93,-398.45 18,-399.92 18,-401.73"/>
<text text-anchor="middle" x="58" y="-383.3" font-family="Times New Roman,serif" font-size="14.00">Reddit API</text>
</a>
</g>
</g>
<!-- caller&#45;&gt;reddit -->
<g id="edge12" class="edge">
<title>caller&#45;&gt;reddit</title>
<path fill="none" stroke="black" d="M104.26,-455.8C96.01,-443.7 84.82,-427.3 75.51,-413.67"/>
<polygon fill="black" stroke="black" points="78.25,-411.46 69.72,-405.18 72.47,-415.41 78.25,-411.46"/>
<text text-anchor="middle" x="111" y="-426.8" font-family="Times New Roman,serif" font-size="14.00">queries</text>
</g>
<!-- processor -->
<g id="node14" class="node">
<title>processor</title>
<ellipse fill="#e5e6ce" stroke="black" cx="191" cy="-387" rx="74.99" ry="18"/>
<text text-anchor="middle" x="191" y="-383.3" font-family="Times New Roman,serif" font-size="14.00">Process API data</text>
</g>
<!-- caller&#45;&gt;processor -->
<g id="edge13" class="edge">
<title>caller&#45;&gt;processor</title>
<path fill="none" stroke="black" d="M131.18,-455.8C142.13,-443.39 157.07,-426.46 169.28,-412.62"/>
<polygon fill="black" stroke="black" points="172.11,-414.7 176.1,-404.89 166.86,-410.07 172.11,-414.7"/>
<text text-anchor="middle" x="186.5" y="-426.8" font-family="Times New Roman,serif" font-size="14.00">processes</text>
</g>
<!-- redditAPIRules -->
<g id="node3" class="node">
<title>redditAPIRules</title>
<g id="a_node3"><a xlink:href="https://github.com/reddit-archive/reddit/wiki/API" xlink:title="Reddit API Rules" target="_blank">
<path fill="#8b9fe0" stroke="black" d="M116,-314.73C116,-316.53 90,-318 58,-318 26,-318 0,-316.53 0,-314.73 0,-314.73 0,-285.27 0,-285.27 0,-283.47 26,-282 58,-282 90,-282 116,-283.47 116,-285.27 116,-285.27 116,-314.73 116,-314.73"/>
<path fill="none" stroke="black" d="M116,-314.73C116,-312.92 90,-311.45 58,-311.45 26,-311.45 0,-312.92 0,-314.73"/>
<text text-anchor="middle" x="58" y="-296.3" font-family="Times New Roman,serif" font-size="14.00">Reddit API Rules</text>
</a>
</g>
</g>
<!-- reddit&#45;&gt;redditAPIRules -->
<g id="edge1" class="edge">
<title>reddit&#45;&gt;redditAPIRules</title>
<path fill="none" stroke="black" d="M58,-368.8C58,-357.16 58,-341.55 58,-328.24"/>
<polygon fill="black" stroke="black" points="61.5,-328.18 58,-318.18 54.5,-328.18 61.5,-328.18"/>
</g>
<!-- django -->
<g id="node4" class="node">
<title>django</title>
<g id="a_node4"><a xlink:href="https://docs.djangoproject.com/en/3.2/" xlink:title="Django" target="_blank">
<path fill="#8b9fe0" stroke="black" d="M340,-401.73C340,-403.53 327.45,-405 312,-405 296.55,-405 284,-403.53 284,-401.73 284,-401.73 284,-372.27 284,-372.27 284,-370.47 296.55,-369 312,-369 327.45,-369 340,-370.47 340,-372.27 340,-372.27 340,-401.73 340,-401.73"/>
<path fill="none" stroke="black" d="M340,-401.73C340,-399.92 327.45,-398.45 312,-398.45 296.55,-398.45 284,-399.92 284,-401.73"/>
<text text-anchor="middle" x="312" y="-383.3" font-family="Times New Roman,serif" font-size="14.00">Django</text>
</a>
</g>
</g>
<!-- database -->
<g id="node9" class="node">
<title>database</title>
<path fill="#8b9fe0" stroke="black" d="M227,-314.73C227,-316.53 211.76,-318 193,-318 174.24,-318 159,-316.53 159,-314.73 159,-314.73 159,-285.27 159,-285.27 159,-283.47 174.24,-282 193,-282 211.76,-282 227,-283.47 227,-285.27 227,-285.27 227,-314.73 227,-314.73"/>
<path fill="none" stroke="black" d="M227,-314.73C227,-312.92 211.76,-311.45 193,-311.45 174.24,-311.45 159,-312.92 159,-314.73"/>
<text text-anchor="middle" x="193" y="-296.3" font-family="Times New Roman,serif" font-size="14.00">Database</text>
</g>
<!-- django&#45;&gt;database -->
<g id="edge7" class="edge">
<title>django&#45;&gt;database</title>
<path fill="none" stroke="black" d="M283.98,-371.4C273.37,-365.49 261.36,-358.34 251,-351 239.87,-343.12 228.35,-333.53 218.53,-324.86"/>
<polygon fill="black" stroke="black" points="220.85,-322.23 211.07,-318.16 216.17,-327.44 220.85,-322.23"/>
</g>
<!-- models -->
<g id="node10" class="node">
<title>models</title>
<g id="a_node10"><a xlink:href="https://docs.djangoproject.com/en/3.2/topics/db/models/" xlink:title="Models" target="_blank">
<ellipse fill="#e5e6ce" stroke="black" cx="238" cy="-192" rx="38.19" ry="18"/>
<text text-anchor="middle" x="238" y="-188.3" font-family="Times New Roman,serif" font-size="14.00">Models</text>
</a>
</g>
</g>
<!-- django&#45;&gt;models -->
<g id="edge6" class="edge">
<title>django&#45;&gt;models</title>
<path fill="none" stroke="black" d="M305.43,-368.87C292.45,-335.02 263.45,-259.37 248.05,-219.21"/>
<polygon fill="black" stroke="black" points="251.29,-217.9 244.45,-209.81 244.76,-220.4 251.29,-217.9"/>
</g>
<!-- view -->
<g id="node11" class="node">
<title>view</title>
<g id="a_node11"><a xlink:href="https://docs.djangoproject.com/en/3.2/#the-view-layer" xlink:title="View" target="_blank">
<ellipse fill="#e5e6ce" stroke="black" cx="312" cy="-246" rx="29.5" ry="18"/>
<text text-anchor="middle" x="312" y="-242.3" font-family="Times New Roman,serif" font-size="14.00">View</text>
</a>
</g>
</g>
<!-- django&#45;&gt;view -->
<g id="edge5" class="edge">
<title>django&#45;&gt;view</title>
<path fill="none" stroke="black" d="M312,-368.96C312,-345.4 312,-302.64 312,-274.53"/>
<polygon fill="black" stroke="black" points="315.5,-274.18 312,-264.18 308.5,-274.18 315.5,-274.18"/>
</g>
<!-- template -->
<g id="node12" class="node">
<title>template</title>
<g id="a_node12"><a xlink:href="https://docs.djangoproject.com/en/3.2/topics/templates/" xlink:title="Template" target="_blank">
<ellipse fill="#e5e6ce" stroke="black" cx="312" cy="-105" rx="44.39" ry="18"/>
<text text-anchor="middle" x="312" y="-101.3" font-family="Times New Roman,serif" font-size="14.00">Template</text>
</a>
</g>
</g>
<!-- django&#45;&gt;template -->
<g id="edge8" class="edge">
<title>django&#45;&gt;template</title>
<path fill="none" stroke="black" d="M320.48,-368.75C337.25,-332.36 371.39,-245.19 352,-174 347.8,-158.58 339.12,-143.09 330.92,-130.8"/>
<polygon fill="black" stroke="black" points="333.69,-128.66 325.1,-122.46 327.95,-132.66 333.69,-128.66"/>
</g>
<!-- sqlite -->
<g id="node5" class="node">
<title>sqlite</title>
<g id="a_node5"><a xlink:href="https://www.sqlite.org/index.html" xlink:title="SQLite" target="_blank">
<path fill="#8b9fe0" stroke="black" d="M182,-206.73C182,-208.53 169.45,-210 154,-210 138.55,-210 126,-208.53 126,-206.73 126,-206.73 126,-177.27 126,-177.27 126,-175.47 138.55,-174 154,-174 169.45,-174 182,-175.47 182,-177.27 182,-177.27 182,-206.73 182,-206.73"/>
<path fill="none" stroke="black" d="M182,-206.73C182,-204.92 169.45,-203.45 154,-203.45 138.55,-203.45 126,-204.92 126,-206.73"/>
<text text-anchor="middle" x="154" y="-188.3" font-family="Times New Roman,serif" font-size="14.00">SQLite</text>
</a>
</g>
</g>
<!-- production -->
<g id="node6" class="node">
<title>production</title>
<path fill="#8b9fe0" stroke="black" d="M558.5,-401.73C558.5,-403.53 540.8,-405 519,-405 497.2,-405 479.5,-403.53 479.5,-401.73 479.5,-401.73 479.5,-372.27 479.5,-372.27 479.5,-370.47 497.2,-369 519,-369 540.8,-369 558.5,-370.47 558.5,-372.27 558.5,-372.27 558.5,-401.73 558.5,-401.73"/>
<path fill="none" stroke="black" d="M558.5,-401.73C558.5,-399.92 540.8,-398.45 519,-398.45 497.2,-398.45 479.5,-399.92 479.5,-401.73"/>
<text text-anchor="middle" x="519" y="-383.3" font-family="Times New Roman,serif" font-size="14.00">Production</text>
</g>
<!-- apache -->
<g id="node7" class="node">
<title>apache</title>
<g id="a_node7"><a xlink:href="https://httpd.apache.org/" xlink:title="Apache" target="_blank">
<path fill="#8b9fe0" stroke="black" d="M463.5,-314.73C463.5,-316.53 450.28,-318 434,-318 417.72,-318 404.5,-316.53 404.5,-314.73 404.5,-314.73 404.5,-285.27 404.5,-285.27 404.5,-283.47 417.72,-282 434,-282 450.28,-282 463.5,-283.47 463.5,-285.27 463.5,-285.27 463.5,-314.73 463.5,-314.73"/>
<path fill="none" stroke="black" d="M463.5,-314.73C463.5,-312.92 450.28,-311.45 434,-311.45 417.72,-311.45 404.5,-312.92 404.5,-314.73"/>
<text text-anchor="middle" x="434" y="-296.3" font-family="Times New Roman,serif" font-size="14.00">Apache</text>
</a>
</g>
</g>
<!-- production&#45;&gt;apache -->
<g id="edge17" class="edge">
<title>production&#45;&gt;apache</title>
<path fill="none" stroke="black" d="M490.19,-369.53C482.18,-364.21 473.82,-357.88 467,-351 460.01,-343.95 453.64,-335.2 448.41,-327.01"/>
<polygon fill="black" stroke="black" points="451.38,-325.16 443.2,-318.43 445.4,-328.8 451.38,-325.16"/>
<text text-anchor="middle" x="491" y="-339.8" font-family="Times New Roman,serif" font-size="14.00">backend</text>
</g>
<!-- modwsgi -->
<g id="node8" class="node">
<title>modwsgi</title>
<g id="a_node8"><a xlink:href="https://modwsgi.readthedocs.io/en/develop/" xlink:title="mod_wsgi" target="_blank">
<path fill="#8b9fe0" stroke="black" d="M556.5,-314.73C556.5,-316.53 539.69,-318 519,-318 498.31,-318 481.5,-316.53 481.5,-314.73 481.5,-314.73 481.5,-285.27 481.5,-285.27 481.5,-283.47 498.31,-282 519,-282 539.69,-282 556.5,-283.47 556.5,-285.27 556.5,-285.27 556.5,-314.73 556.5,-314.73"/>
<path fill="none" stroke="black" d="M556.5,-314.73C556.5,-312.92 539.69,-311.45 519,-311.45 498.31,-311.45 481.5,-312.92 481.5,-314.73"/>
<text text-anchor="middle" x="519" y="-296.3" font-family="Times New Roman,serif" font-size="14.00">mod_wsgi</text>
</a>
</g>
</g>
<!-- production&#45;&gt;modwsgi -->
<g id="edge18" class="edge">
<title>production&#45;&gt;modwsgi</title>
<path fill="none" stroke="black" d="M519,-368.8C519,-357.16 519,-341.55 519,-328.24"/>
<polygon fill="black" stroke="black" points="522.5,-328.18 519,-318.18 515.5,-328.18 522.5,-328.18"/>
<text text-anchor="middle" x="560" y="-339.8" font-family="Times New Roman,serif" font-size="14.00">python/apache</text>
</g>
<!-- database&#45;&gt;sqlite -->
<g id="edge3" class="edge">
<title>database&#45;&gt;sqlite</title>
<path fill="none" stroke="black" d="M181.27,-281.72C177.92,-276.23 174.5,-270.02 172,-264 166.18,-250.01 161.88,-233.66 158.94,-220.18"/>
<polygon fill="black" stroke="black" points="162.31,-219.18 156.88,-210.09 155.45,-220.59 162.31,-219.18"/>
</g>
<!-- database&#45;&gt;models -->
<g id="edge2" class="edge">
<title>database&#45;&gt;models</title>
<path fill="none" stroke="black" d="M190,-281.99C188.2,-266.98 187.63,-244.92 196,-228 198.69,-222.55 202.67,-217.63 207.12,-213.33"/>
<polygon fill="black" stroke="black" points="209.58,-215.83 214.91,-206.67 205.03,-210.51 209.58,-215.83"/>
<text text-anchor="middle" x="223.5" y="-242.3" font-family="Times New Roman,serif" font-size="14.00">populates</text>
</g>
<!-- models&#45;&gt;template -->
<g id="edge11" class="edge">
<title>models&#45;&gt;template</title>
<path fill="none" stroke="black" d="M235.8,-173.86C235.37,-163.5 236.49,-150.5 243,-141 249.04,-132.18 257.99,-125.46 267.46,-120.39"/>
<polygon fill="black" stroke="black" points="269.1,-123.49 276.62,-116.02 266.09,-117.17 269.1,-123.49"/>
<text text-anchor="middle" x="270.5" y="-144.8" font-family="Times New Roman,serif" font-size="14.00">populates</text>
</g>
<!-- view&#45;&gt;template -->
<g id="edge9" class="edge">
<title>view&#45;&gt;template</title>
<path fill="none" stroke="black" d="M312,-227.96C312,-204.4 312,-161.64 312,-133.53"/>
<polygon fill="black" stroke="black" points="315.5,-133.18 312,-123.18 308.5,-133.18 315.5,-133.18"/>
<text text-anchor="middle" x="330" y="-188.3" font-family="Times New Roman,serif" font-size="14.00">serves</text>
</g>
<!-- html -->
<g id="node13" class="node">
<title>html</title>
<ellipse fill="#e5e6ce" stroke="black" cx="312" cy="-18" rx="55.79" ry="18"/>
<text text-anchor="middle" x="312" y="-14.3" font-family="Times New Roman,serif" font-size="14.00">HTML/CSS</text>
</g>
<!-- template&#45;&gt;html -->
<g id="edge4" class="edge">
<title>template&#45;&gt;html</title>
<path fill="none" stroke="black" d="M310.73,-86.88C310.17,-77.23 309.69,-64.94 310,-54 310.07,-51.44 310.18,-48.79 310.3,-46.13"/>
<polygon fill="black" stroke="black" points="313.79,-46.25 310.83,-36.08 306.8,-45.88 313.79,-46.25"/>
</g>
<!-- template&#45;&gt;html -->
<g id="edge10" class="edge">
<title>template&#45;&gt;html</title>
<path fill="none" stroke="black" d="M312,-86.8C312,-75.16 312,-59.55 312,-46.24"/>
<polygon fill="black" stroke="black" points="315.5,-46.18 312,-36.18 308.5,-46.18 315.5,-46.18"/>
<text text-anchor="middle" x="338" y="-57.8" font-family="Times New Roman,serif" font-size="14.00">generates</text>
</g>
<!-- processor&#45;&gt;database -->
<g id="edge14" class="edge">
<title>processor&#45;&gt;database</title>
<path fill="none" stroke="black" d="M191.4,-368.8C191.68,-357.16 192.05,-341.55 192.36,-328.24"/>
<polygon fill="black" stroke="black" points="195.86,-328.26 192.6,-318.18 188.86,-328.09 195.86,-328.26"/>
<text text-anchor="middle" x="203" y="-339.8" font-family="Times New Roman,serif" font-size="14.00">fills</text>
</g>
<!-- codebase -->
<g id="node15" class="node">
<title>codebase</title>
<g id="a_node15"><a xlink:href="https://www.github.com/unhm-programming-team" xlink:title="Code Base" target="_blank">
<ellipse fill="#e5e6ce" stroke="black" cx="591" cy="-474" rx="50.89" ry="18"/>
<text text-anchor="middle" x="591" y="-470.3" font-family="Times New Roman,serif" font-size="14.00">Code Base</text>
</a>
</g>
</g>
<!-- codebase&#45;&gt;production -->
<g id="edge19" class="edge">
<title>codebase&#45;&gt;production</title>
<path fill="none" stroke="black" d="M577.12,-456.61C566.66,-444.27 552.15,-427.14 540.24,-413.08"/>
<polygon fill="black" stroke="black" points="542.72,-410.58 533.58,-405.21 537.37,-415.11 542.72,-410.58"/>
</g>
<!-- autodoc -->
<g id="node16" class="node">
<title>autodoc</title>
<g id="a_node16"><a xlink:href="https://www.sphinx-doc.org/en/master/usage/extensions/autodoc.html" xlink:title="sphinx&#45;autodoc" target="_blank">
<ellipse fill="#e5e6ce" stroke="black" cx="655" cy="-387" rx="67.69" ry="18"/>
<text text-anchor="middle" x="655" y="-383.3" font-family="Times New Roman,serif" font-size="14.00">sphinx&#45;autodoc</text>
</a>
</g>
</g>
<!-- codebase&#45;&gt;autodoc -->
<g id="edge15" class="edge">
<title>codebase&#45;&gt;autodoc</title>
<path fill="none" stroke="black" d="M603.64,-456.21C612.94,-443.87 625.72,-426.89 636.2,-412.97"/>
<polygon fill="black" stroke="black" points="639.16,-414.85 642.38,-404.76 633.57,-410.64 639.16,-414.85"/>
<text text-anchor="middle" x="638" y="-426.8" font-family="Times New Roman,serif" font-size="14.00">doc</text>
</g>
<!-- sphinx -->
<g id="node17" class="node">
<title>sphinx</title>
<g id="a_node17"><a xlink:href="https://www.sphinx-doc.org" xlink:title="sphinx documentation" target="_blank">
<ellipse fill="#e5e6ce" stroke="black" cx="665" cy="-300" rx="90.98" ry="18"/>
<text text-anchor="middle" x="665" y="-296.3" font-family="Times New Roman,serif" font-size="14.00">sphinx documentation</text>
</a>
</g>
</g>
<!-- autodoc&#45;&gt;sphinx -->
<g id="edge16" class="edge">
<title>autodoc&#45;&gt;sphinx</title>
<path fill="none" stroke="black" d="M657.02,-368.8C658.39,-357.16 660.23,-341.55 661.8,-328.24"/>
<polygon fill="black" stroke="black" points="665.29,-328.52 662.98,-318.18 658.33,-327.7 665.29,-328.52"/>
<text text-anchor="middle" x="690" y="-339.8" font-family="Times New Roman,serif" font-size="14.00">made with</text>
</g>
</g>
</svg>
